<svg width="415" height="302" viewBox="0 0 415 302" fill="none" xmlns="http://www.w3.org/2000/svg">
<g clip-path="url(#clip0)">
<path d="M415 0H0V302H415V0Z" fill="white"/>
<path d="M415.106 0H0V301.776H415.106V0Z" fill="#1C7DF8"/>
<g filter="url(#filter0_d)">
<path d="M348.605 36.5725H66.5008C52.0207 36.5725 40.2822 48.311 40.2822 62.7911V238.985C40.2822 253.465 52.0207 265.204 66.5008 265.204H348.605C363.085 265.204 374.823 253.465 374.823 238.985V62.7911C374.823 48.311 363.085 36.5725 348.605 36.5725Z" fill="white" fill-opacity="0.01"/>
</g>
<path d="M348.605 36.5725H66.5008C52.0207 36.5725 40.2822 48.311 40.2822 62.7911V238.985C40.2822 253.465 52.0207 265.204 66.5008 265.204H348.605C363.085 265.204 374.823 253.465 374.823 238.985V62.7911C374.823 48.311 363.085 36.5725 348.605 36.5725Z" fill="white"/>
<g filter="url(#filter1_d)">
<path d="M313.016 130.252C314.99 127.265 318.132 122.246 323.303 122.246C328.475 122.246 333.928 126.317 339.619 126.317C345.311 126.317 348.401 118.032 352.274 118.032" stroke="#72D962" stroke-opacity="0.01" stroke-width="4.21691" stroke-linecap="round"/>
</g>
<path d="M313.016 130.252C314.99 127.265 318.132 122.246 323.303 122.246C328.475 122.246 333.928 126.317 339.619 126.317C345.311 126.317 348.401 118.032 352.274 118.032" stroke="#72D962" stroke-width="4.21691" stroke-linecap="round"/>
<g filter="url(#filter2_d)">
<path d="M313.016 183.993C324.726 183.993 342.328 182.676 348.248 172.09" stroke="#72D962" stroke-opacity="0.01" stroke-width="4.21691" stroke-linecap="round"/>
</g>
<path d="M313.016 183.993C324.726 183.993 342.328 182.676 348.248 172.09" stroke="#72D962" stroke-width="4.21691" stroke-linecap="round"/>
<g filter="url(#filter3_d)">
<path d="M313.016 237.734C314.99 234.746 319.428 230.931 330.652 234.866C341.876 238.802 339.015 221.441 352.44 226.723" stroke="#72D962" stroke-opacity="0.01" stroke-width="4.21691" stroke-linecap="round"/>
</g>
<path d="M313.016 237.734C314.99 234.746 319.428 230.931 330.652 234.866C341.876 238.802 339.015 221.441 352.44 226.723" stroke="#72D962" stroke-width="4.21691" stroke-linecap="round"/>
<path d="M77.1807 114.444H66.6385C64.1931 114.444 62.2107 116.426 62.2107 118.872V129.414C62.2107 131.86 64.1931 133.842 66.6385 133.842H77.1807C79.6261 133.842 81.6085 131.86 81.6085 129.414V118.872C81.6085 116.426 79.6261 114.444 77.1807 114.444Z" fill="white" stroke="#DCE3ED" stroke-width="1.68676"/>
<path d="M77.1807 168.184H66.6385C64.1931 168.184 62.2107 170.166 62.2107 172.612V183.154C62.2107 185.599 64.1931 187.582 66.6385 187.582H77.1807C79.6261 187.582 81.6085 185.599 81.6085 183.154V172.612C81.6085 170.166 79.6261 168.184 77.1807 168.184Z" fill="white" stroke="#DCE3ED" stroke-width="1.68676"/>
<path d="M77.1807 221.924H66.6385C64.1931 221.924 62.2107 223.906 62.2107 226.352V236.894C62.2107 239.34 64.1931 241.322 66.6385 241.322H77.1807C79.6261 241.322 81.6085 239.34 81.6085 236.894V226.352C81.6085 223.906 79.6261 221.924 77.1807 221.924Z" fill="white" stroke="#DCE3ED" stroke-width="1.68676"/>
<path d="M61.3672 152.003H353.739" stroke="#DCE3ED" stroke-width="1.05423"/>
<path d="M61.3672 205.743H353.739" stroke="#DCE3ED" stroke-width="1.05423"/>
<path opacity="0.8" d="M168.773 119.01H95.9286C93.0939 119.01 90.7959 121.308 90.7959 124.143C90.7959 126.977 93.0939 129.275 95.9286 129.275H168.773C171.607 129.275 173.905 126.977 173.905 124.143C173.905 121.308 171.607 119.01 168.773 119.01Z" fill="#778BA5"/>
<path opacity="0.8" d="M168.773 172.75H95.9286C93.0939 172.75 90.7959 175.048 90.7959 177.883C90.7959 180.717 93.0939 183.015 95.9286 183.015H168.773C171.607 183.015 173.905 180.717 173.905 177.883C173.905 175.048 171.607 172.75 168.773 172.75Z" fill="#778BA5"/>
<path opacity="0.8" d="M168.773 226.491H95.9286C93.0939 226.491 90.7959 228.789 90.7959 231.624C90.7959 234.458 93.0939 236.756 95.9286 236.756H168.773C171.607 236.756 173.905 234.458 173.905 231.624C173.905 228.789 171.607 226.491 168.773 226.491Z" fill="#778BA5"/>
<path opacity="0.8" d="M283.874 119.01H261.506C258.671 119.01 256.373 121.308 256.373 124.143C256.373 126.977 258.671 129.275 261.506 129.275H283.874C286.708 129.275 289.006 126.977 289.006 124.143C289.006 121.308 286.708 119.01 283.874 119.01Z" fill="#DCE3ED"/>
<path opacity="0.8" d="M283.874 172.75H261.506C258.671 172.75 256.373 175.048 256.373 177.883C256.373 180.717 258.671 183.015 261.506 183.015H283.874C286.708 183.015 289.006 180.717 289.006 177.883C289.006 175.048 286.708 172.75 283.874 172.75Z" fill="#DCE3ED"/>
<path opacity="0.8" d="M283.874 226.491H261.506C258.671 226.491 256.373 228.789 256.373 231.624C256.373 234.458 258.671 236.756 261.506 236.756H283.874C286.708 236.756 289.006 234.458 289.006 231.624C289.006 228.789 286.708 226.491 283.874 226.491Z" fill="#DCE3ED"/>
<path opacity="0.8" d="M241.874 119.01H206.257C203.422 119.01 201.124 121.308 201.124 124.143C201.124 126.977 203.422 129.275 206.257 129.275H241.874C244.709 129.275 247.007 126.977 247.007 124.143C247.007 121.308 244.709 119.01 241.874 119.01Z" fill="#DCE3ED"/>
<path opacity="0.8" d="M241.874 172.75H206.257C203.422 172.75 201.124 175.048 201.124 177.883C201.124 180.717 203.422 183.015 206.257 183.015H241.874C244.709 183.015 247.007 180.717 247.007 177.883C247.007 175.048 244.709 172.75 241.874 172.75Z" fill="#DCE3ED"/>
<path opacity="0.8" d="M241.874 226.491H206.257C203.422 226.491 201.124 228.789 201.124 231.624C201.124 234.458 203.422 236.756 206.257 236.756H241.874C244.709 236.756 247.007 234.458 247.007 231.624C247.007 228.789 244.709 226.491 241.874 226.491Z" fill="#DCE3ED"/>
<g filter="url(#filter4_d)">
<path d="M335.817 59.0925H79.2891C69.3911 59.0925 61.3672 67.1164 61.3672 77.0144C61.3672 86.9123 69.3911 94.9362 79.2891 94.9362H335.817C345.715 94.9362 353.739 86.9123 353.739 77.0144C353.739 67.1164 345.715 59.0925 335.817 59.0925Z" fill="white"/>
<path d="M335.818 59.6196H79.2891C69.6822 59.6196 61.8943 67.4075 61.8943 77.0144C61.8943 86.6212 69.6822 94.4091 79.2891 94.4091H335.818C345.424 94.4091 353.212 86.6212 353.212 77.0144C353.212 67.4075 345.424 59.6196 335.818 59.6196Z" stroke="#DCE3ED" stroke-opacity="0.01" stroke-width="1.05423"/>
</g>
<path d="M335.817 59.0925H79.2891C69.3911 59.0925 61.3672 67.1164 61.3672 77.0144C61.3672 86.9123 69.3911 94.9362 79.2891 94.9362H335.817C345.715 94.9362 353.739 86.9123 353.739 77.0144C353.739 67.1164 345.715 59.0925 335.817 59.0925Z" fill="white"/>
<path d="M335.818 59.6196H79.2891C69.6822 59.6196 61.8943 67.4075 61.8943 77.0144C61.8943 86.6212 69.6822 94.4091 79.2891 94.4091H335.818C345.424 94.4091 353.212 86.6212 353.212 77.0144C353.212 67.4075 345.424 59.6196 335.818 59.6196Z" stroke="#DCE3ED" stroke-width="1.05423"/>
<path opacity="0.8" d="M155.258 71.8816H82.4139C79.5792 71.8816 77.2812 74.1796 77.2812 77.0142C77.2812 79.8489 79.5792 82.1469 82.4139 82.1469H155.258C158.093 82.1469 160.391 79.8489 160.391 77.0142C160.391 74.1796 158.093 71.8816 155.258 71.8816Z" fill="#DCE3ED"/>
<g filter="url(#filter5_d)">
<path d="M326.612 83.6003C330.911 83.6003 334.396 80.1153 334.396 75.8163C334.396 71.5172 330.911 68.0322 326.612 68.0322C322.313 68.0322 318.828 71.5172 318.828 75.8163C318.828 80.1153 322.313 83.6003 326.612 83.6003Z" stroke="#1C7DF8" stroke-opacity="0.01" stroke-width="3.16268" stroke-linecap="round" stroke-linejoin="round"/>
<path d="M332.116 81.3208L336.791 85.996" stroke="#1C7DF8" stroke-opacity="0.01" stroke-width="3.16268" stroke-linecap="round" stroke-linejoin="round"/>
</g>
<path d="M326.612 83.6003C330.911 83.6003 334.396 80.1153 334.396 75.8163C334.396 71.5172 330.911 68.0322 326.612 68.0322C322.313 68.0322 318.828 71.5172 318.828 75.8163C318.828 80.1153 322.313 83.6003 326.612 83.6003Z" stroke="#1C7DF8" stroke-width="3.16268" stroke-linecap="round" stroke-linejoin="round"/>
<path d="M332.116 81.3208L336.791 85.996" stroke="#1C7DF8" stroke-width="3.16268" stroke-linecap="round" stroke-linejoin="round"/>
</g>
<defs>
<filter id="filter0_d" x="-0.267773" y="-0.0261595" width="415.641" height="309.731" filterUnits="userSpaceOnUse" color-interpolation-filters="sRGB">
<feFlood flood-opacity="0" result="BackgroundImageFix"/>
<feColorMatrix in="SourceAlpha" type="matrix" values="0 0 0 0 0 0 0 0 0 0 0 0 0 0 0 0 0 0 127 0"/>
<feOffset dy="3.95133"/>
<feGaussianBlur stdDeviation="20.275"/>
<feColorMatrix type="matrix" values="0 0 0 0 0.0102083 0 0 0 0 0.146125 0 0 0 0 0.35 0 0 0 0.27 0"/>
<feBlend mode="normal" in2="BackgroundImageFix" result="effect1_dropShadow"/>
<feBlend mode="normal" in="SourceGraphic" in2="effect1_dropShadow" result="shape"/>
</filter>
<filter id="filter1_d" x="307.475" y="114.78" width="50.3396" height="23.3016" filterUnits="userSpaceOnUse" color-interpolation-filters="sRGB">
<feFlood flood-opacity="0" result="BackgroundImageFix"/>
<feColorMatrix in="SourceAlpha" type="matrix" values="0 0 0 0 0 0 0 0 0 0 0 0 0 0 0 0 0 0 127 0"/>
<feOffset dy="2.28814"/>
<feGaussianBlur stdDeviation="1.71611"/>
<feColorMatrix type="matrix" values="0 0 0 0 0.44795 0 0 0 0 0.85 0 0 0 0 0.3825 0 0 0 0.41 0"/>
<feBlend mode="normal" in2="BackgroundImageFix" result="effect1_dropShadow"/>
<feBlend mode="normal" in="SourceGraphic" in2="effect1_dropShadow" result="shape"/>
</filter>
<filter id="filter2_d" x="307.475" y="168.837" width="46.3137" height="22.9847" filterUnits="userSpaceOnUse" color-interpolation-filters="sRGB">
<feFlood flood-opacity="0" result="BackgroundImageFix"/>
<feColorMatrix in="SourceAlpha" type="matrix" values="0 0 0 0 0 0 0 0 0 0 0 0 0 0 0 0 0 0 127 0"/>
<feOffset dy="2.28814"/>
<feGaussianBlur stdDeviation="1.71611"/>
<feColorMatrix type="matrix" values="0 0 0 0 0.44795 0 0 0 0 0.85 0 0 0 0 0.3825 0 0 0 0.41 0"/>
<feBlend mode="normal" in2="BackgroundImageFix" result="effect1_dropShadow"/>
<feBlend mode="normal" in="SourceGraphic" in2="effect1_dropShadow" result="shape"/>
</filter>
<filter id="filter3_d" x="307.475" y="222.461" width="50.5062" height="23.1021" filterUnits="userSpaceOnUse" color-interpolation-filters="sRGB">
<feFlood flood-opacity="0" result="BackgroundImageFix"/>
<feColorMatrix in="SourceAlpha" type="matrix" values="0 0 0 0 0 0 0 0 0 0 0 0 0 0 0 0 0 0 127 0"/>
<feOffset dy="2.28814"/>
<feGaussianBlur stdDeviation="1.71611"/>
<feColorMatrix type="matrix" values="0 0 0 0 0.44795 0 0 0 0 0.85 0 0 0 0 0.3825 0 0 0 0.41 0"/>
<feBlend mode="normal" in2="BackgroundImageFix" result="effect1_dropShadow"/>
<feBlend mode="normal" in="SourceGraphic" in2="effect1_dropShadow" result="shape"/>
</filter>
<filter id="filter4_d" x="55.0418" y="54.8756" width="305.023" height="48.4945" filterUnits="userSpaceOnUse" color-interpolation-filters="sRGB">
<feFlood flood-opacity="0" result="BackgroundImageFix"/>
<feColorMatrix in="SourceAlpha" type="matrix" values="0 0 0 0 0 0 0 0 0 0 0 0 0 0 0 0 0 0 127 0"/>
<feOffset dy="2.10846"/>
<feGaussianBlur stdDeviation="3.16268"/>
<feColorMatrix type="matrix" values="0 0 0 0 0.109219 0 0 0 0 0.491032 0 0 0 0 0.970833 0 0 0 0.08 0"/>
<feBlend mode="normal" in2="BackgroundImageFix" result="effect1_dropShadow"/>
<feBlend mode="normal" in="SourceGraphic" in2="effect1_dropShadow" result="shape"/>
</filter>
<filter id="filter5_d" x="313.03" y="65.3967" width="29.5596" height="29.5603" filterUnits="userSpaceOnUse" color-interpolation-filters="sRGB">
<feFlood flood-opacity="0" result="BackgroundImageFix"/>
<feColorMatrix in="SourceAlpha" type="matrix" values="0 0 0 0 0 0 0 0 0 0 0 0 0 0 0 0 0 0 127 0"/>
<feOffset dy="3.16268"/>
<feGaussianBlur stdDeviation="2.10846"/>
<feColorMatrix type="matrix" values="0 0 0 0 0.109219 0 0 0 0 0.491032 0 0 0 0 0.970833 0 0 0 0.24 0"/>
<feBlend mode="normal" in2="BackgroundImageFix" result="effect1_dropShadow"/>
<feBlend mode="normal" in="SourceGraphic" in2="effect1_dropShadow" result="shape"/>
</filter>
<clipPath id="clip0">
<rect width="415" height="302" fill="white"/>
</clipPath>
</defs>
</svg>
