<svg width="53" height="36" viewBox="0 0 53 36" fill="none" xmlns="http://www.w3.org/2000/svg">
<g clip-path="url(#clip0)">
<g filter="url(#filter0_d)">
<path d="M8.44507 23.3665C9.06755 23.3677 9.66691 23.1308 10.1203 22.7042L20.881 12.6108C21.0351 12.4651 21.2399 12.3853 21.4519 12.3884C21.6639 12.3916 21.8663 12.4775 22.0159 12.6277L25.6356 16.2491C26.7246 17.2887 28.1723 17.8689 29.6779 17.8689C31.1834 17.8689 32.6311 17.2887 33.7201 16.2491L39.7789 10.1903C39.8167 10.1524 39.8615 10.1223 39.911 10.1018C39.9604 10.0813 40.0133 10.0707 40.0668 10.0707C40.1203 10.0707 40.1733 10.0813 40.2227 10.1018C40.2722 10.1223 40.317 10.1524 40.3548 10.1903L43.2241 13.0495C43.5305 13.3544 43.9453 13.5256 44.3776 13.5254C44.8107 13.525 45.2259 13.3529 45.5323 13.0468C45.8387 12.7407 46.0112 12.3257 46.0121 11.8926V2.13285C46.0117 1.69964 45.8393 1.28432 45.5328 0.978155C45.2263 0.671988 44.8108 0.500012 44.3776 0.500012H34.5789C34.2545 0.498756 33.9371 0.594141 33.6672 0.774002C33.3972 0.953864 33.187 1.21005 33.0632 1.50989C32.9395 1.80973 32.9078 2.13964 32.9723 2.45753C33.0369 2.77543 33.1946 3.06691 33.4254 3.2948L36.3049 6.17428C36.3816 6.25118 36.4249 6.35529 36.4252 6.46392C36.4253 6.51752 36.4148 6.57061 36.3941 6.62006C36.3735 6.66952 36.3431 6.71433 36.3049 6.75187L30.2546 12.8039C30.1008 12.9559 29.8933 13.0412 29.677 13.0412C29.4607 13.0412 29.2532 12.9559 29.0994 12.8039L25.478 9.18249C24.4337 8.12764 23.0185 7.52269 21.5343 7.49674C20.0502 7.4708 18.6146 8.0259 17.5341 9.0436L6.76989 19.1286C6.413 19.4649 6.16523 19.9006 6.05862 20.3793C5.952 20.858 5.99145 21.3577 6.17186 21.8138C6.35227 22.2698 6.66534 22.6612 7.0706 22.9374C7.47585 23.2136 7.95465 23.3619 8.44507 23.3631V23.3665Z" fill="#FFCD1D" fill-opacity="0.01"/>
</g>
<path d="M8.44507 23.3665C9.06755 23.3677 9.66691 23.1308 10.1203 22.7042L20.881 12.6108C21.0351 12.4651 21.2399 12.3853 21.4519 12.3884C21.6639 12.3916 21.8663 12.4775 22.0159 12.6277L25.6356 16.2491C26.7246 17.2887 28.1723 17.8689 29.6779 17.8689C31.1834 17.8689 32.6311 17.2887 33.7201 16.2491L39.7789 10.1903C39.8167 10.1524 39.8615 10.1223 39.911 10.1018C39.9604 10.0813 40.0133 10.0707 40.0668 10.0707C40.1203 10.0707 40.1733 10.0813 40.2227 10.1018C40.2722 10.1223 40.317 10.1524 40.3548 10.1903L43.2241 13.0495C43.5305 13.3544 43.9453 13.5256 44.3776 13.5254C44.8107 13.525 45.2259 13.3529 45.5323 13.0468C45.8387 12.7407 46.0112 12.3257 46.0121 11.8926V2.13285C46.0117 1.69964 45.8393 1.28432 45.5328 0.978155C45.2263 0.671988 44.8108 0.500012 44.3776 0.500012H34.5789C34.2545 0.498756 33.9371 0.594141 33.6672 0.774002C33.3972 0.953864 33.187 1.21005 33.0632 1.50989C32.9395 1.80973 32.9078 2.13964 32.9723 2.45753C33.0369 2.77543 33.1946 3.06691 33.4254 3.2948L36.3049 6.17428C36.3816 6.25118 36.4249 6.35529 36.4252 6.46392C36.4253 6.51752 36.4148 6.57061 36.3941 6.62006C36.3735 6.66952 36.3431 6.71433 36.3049 6.75187L30.2546 12.8039C30.1008 12.9559 29.8933 13.0412 29.677 13.0412C29.4607 13.0412 29.2532 12.9559 29.0994 12.8039L25.478 9.18249C24.4337 8.12764 23.0185 7.52269 21.5343 7.49674C20.0502 7.4708 18.6146 8.0259 17.5341 9.0436L6.76989 19.1286C6.413 19.4649 6.16523 19.9006 6.05862 20.3793C5.952 20.858 5.99145 21.3577 6.17186 21.8138C6.35227 22.2698 6.66534 22.6612 7.0706 22.9374C7.47585 23.2136 7.95465 23.3619 8.44507 23.3631V23.3665Z" fill="#FFCD1D"/>
</g>
<defs>
<filter id="filter0_d" x="0" y="0.5" width="52.0121" height="34.8665" filterUnits="userSpaceOnUse" color-interpolation-filters="sRGB">
<feFlood flood-opacity="0" result="BackgroundImageFix"/>
<feColorMatrix in="SourceAlpha" type="matrix" values="0 0 0 0 0 0 0 0 0 0 0 0 0 0 0 0 0 0 127 0"/>
<feOffset dy="6"/>
<feGaussianBlur stdDeviation="3"/>
<feColorMatrix type="matrix" values="0 0 0 0 1 0 0 0 0 0.80475 0 0 0 0 0.1125 0 0 0 0.38 0"/>
<feBlend mode="normal" in2="BackgroundImageFix" result="effect1_dropShadow"/>
<feBlend mode="normal" in="SourceGraphic" in2="effect1_dropShadow" result="shape"/>
</filter>
<clipPath id="clip0">
<rect width="53" height="35" fill="white" transform="translate(0 0.5)"/>
</clipPath>
</defs>
</svg>
