<svg width="32" height="32" viewBox="0 0 32 32" fill="none" xmlns="http://www.w3.org/2000/svg">
<rect width="32" height="32" fill="#1DA1F2"/>
<path d="M18.5619 10.0029V10H19.3031L19.5739 10.0543C19.7544 10.0896 19.9184 10.1358 20.0656 10.193C20.2129 10.2502 20.3555 10.3169 20.4932 10.3931C20.631 10.4694 20.756 10.547 20.8681 10.6261C20.9793 10.7043 21.0791 10.7872 21.1675 10.8749C21.2549 10.9635 21.3912 10.9864 21.5765 10.9435C21.7618 10.9006 21.9614 10.841 22.1752 10.7648C22.389 10.6886 22.6004 10.6028 22.8095 10.5075C23.0185 10.4122 23.1459 10.3517 23.1915 10.3259C23.2361 10.2993 23.2599 10.285 23.2627 10.283L23.2656 10.2788L23.2798 10.2716L23.2941 10.2645L23.3083 10.2573L23.3226 10.2502L23.3254 10.2459L23.3297 10.243L23.334 10.2402L23.3368 10.2359L23.3511 10.2316L23.3653 10.2287L23.3625 10.2502L23.3582 10.2716L23.3511 10.2931L23.344 10.3145L23.3368 10.3288L23.3297 10.3431L23.3226 10.3645C23.3178 10.3788 23.3131 10.3979 23.3083 10.4217C23.3036 10.4455 23.2584 10.5408 23.1729 10.7076C23.0874 10.8744 22.9805 11.0435 22.8522 11.2151C22.7239 11.3866 22.609 11.5162 22.5073 11.6039C22.4047 11.6925 22.3367 11.7545 22.3035 11.7898C22.2702 11.826 22.2298 11.8593 22.1823 11.8898L22.111 11.937L22.0968 11.9441L22.0825 11.9513L22.0797 11.9556L22.0754 11.9584L22.0711 11.9613L22.0683 11.9656L22.054 11.9727L22.0398 11.9799L22.0369 11.9842L22.0326 11.987L22.0284 11.9899L22.0255 11.9942L22.0227 11.9985L22.0184 12.0013L22.0141 12.0042L22.0113 12.0085H22.0825L22.4816 11.9227C22.7477 11.8655 23.0019 11.7964 23.2442 11.7154L23.629 11.5868L23.6718 11.5725L23.6932 11.5653L23.7074 11.5582L23.7217 11.551L23.7359 11.5439L23.7502 11.5367L23.7787 11.5324L23.8072 11.5296V11.5582L23.8001 11.561L23.7929 11.5653L23.7901 11.5696L23.7858 11.5725L23.7815 11.5753L23.7787 11.5796L23.7759 11.5839L23.7716 11.5868L23.7673 11.5896L23.7644 11.5939L23.7616 11.5982L23.7573 11.6011L23.7502 11.6154L23.7431 11.6296L23.7388 11.6325C23.7369 11.6354 23.6766 11.7164 23.5578 11.8755C23.439 12.0356 23.3749 12.1166 23.3653 12.1185C23.3559 12.1214 23.3425 12.1357 23.3254 12.1614C23.3093 12.1881 23.2086 12.2944 23.0233 12.4802C22.838 12.666 22.6565 12.8314 22.4788 12.9763C22.3001 13.1221 22.2099 13.3012 22.208 13.5138C22.2051 13.7253 22.1942 13.9645 22.1752 14.2314C22.1562 14.4982 22.1205 14.7865 22.0683 15.0962C22.016 15.406 21.9352 15.7562 21.826 16.1469C21.7167 16.5377 21.5836 16.9189 21.4269 17.2905C21.2701 17.6622 21.1062 17.9958 20.9351 18.2912C20.7641 18.5866 20.6073 18.8368 20.4647 19.0417C20.3222 19.2466 20.1773 19.4396 20.03 19.6206C19.8827 19.8017 19.6965 20.0057 19.4713 20.2325C19.2451 20.4583 19.1216 20.5822 19.1007 20.6042C19.0788 20.6251 18.9857 20.7033 18.8213 20.8386C18.6579 20.9749 18.4821 21.1111 18.2939 21.2474C18.1067 21.3828 17.9347 21.4957 17.7779 21.5862C17.6212 21.6768 17.4321 21.7802 17.2107 21.8964C16.9902 22.0137 16.7517 22.1223 16.4951 22.2224C16.2386 22.3224 15.9677 22.4154 15.6827 22.5011C15.3976 22.5869 15.122 22.6536 14.856 22.7013C14.5899 22.7489 14.2882 22.7894 13.9509 22.8228L13.4449 22.8728V22.8799H12.5184V22.8728L12.3972 22.8657C12.3165 22.8609 12.2499 22.8561 12.1977 22.8514C12.1454 22.8466 11.9482 22.8204 11.6062 22.7727C11.2641 22.7251 10.9956 22.6774 10.8008 22.6298C10.606 22.5821 10.3162 22.4916 9.93136 22.3582C9.54651 22.2248 9.21725 22.0899 8.94359 21.9536C8.67087 21.8183 8.49983 21.7325 8.43046 21.6963C8.36204 21.661 8.28507 21.6172 8.19955 21.5648L8.07127 21.4862L8.06843 21.4819L8.06414 21.479L8.05986 21.4762L8.05701 21.4719L8.04276 21.4647L8.02851 21.4576L8.02567 21.4533L8.02138 21.4504L8.0171 21.4476L8.01425 21.4433L8.01142 21.439L8.00713 21.4361H8V21.4075L8.01425 21.4104L8.02851 21.4147L8.09265 21.4218C8.13541 21.4266 8.25182 21.4337 8.44186 21.4433C8.63192 21.4528 8.83383 21.4528 9.04764 21.4433C9.26144 21.4337 9.48 21.4123 9.7033 21.379C9.92661 21.3456 10.1903 21.2884 10.4944 21.2074C10.7985 21.1264 11.0778 21.0302 11.3325 20.9186C11.5862 20.8062 11.7667 20.7223 11.8741 20.6671C11.9806 20.6127 12.143 20.5117 12.3616 20.364L12.6894 20.1424L12.6923 20.1381L12.6965 20.1353L12.7008 20.1324L12.7037 20.1281L12.7065 20.1238L12.7108 20.121L12.7151 20.1181L12.7179 20.1138L12.7322 20.1095L12.7464 20.1067L12.7493 20.0924L12.7536 20.0781L12.7579 20.0752L12.7607 20.0709L12.6467 20.0638C12.5706 20.059 12.497 20.0543 12.4257 20.0495C12.3545 20.0447 12.2428 20.0233 12.0908 19.9852C11.9387 19.947 11.7748 19.8899 11.599 19.8136C11.4232 19.7374 11.2522 19.6468 11.0859 19.542C10.9196 19.4372 10.7994 19.35 10.7253 19.2804C10.6521 19.2118 10.5571 19.1146 10.4402 18.9888C10.3243 18.8621 10.2236 18.732 10.138 18.5985C10.0525 18.4651 9.9708 18.3112 9.89289 18.1368L9.77457 17.8766L9.76744 17.8552L9.76032 17.8338L9.75604 17.8195L9.75319 17.8052L9.77457 17.808L9.79595 17.8123L9.95274 17.8338C10.0573 17.848 10.2212 17.8528 10.4445 17.848C10.6678 17.8433 10.8222 17.8338 10.9077 17.8195C10.9932 17.8052 11.0455 17.7956 11.0645 17.7909L11.093 17.7837L11.1287 17.7766L11.1643 17.7694L11.1671 17.7651L11.1714 17.7623L11.1757 17.7594L11.1785 17.7551L11.15 17.748L11.1215 17.7408L11.093 17.7337L11.0645 17.7265L11.036 17.7194C11.017 17.7146 10.9838 17.7051 10.9362 17.6908C10.8887 17.6765 10.7604 17.6241 10.5514 17.5336C10.3423 17.443 10.176 17.3549 10.0525 17.2691C9.92867 17.1831 9.81059 17.089 9.69902 16.9875C9.58785 16.8846 9.46575 16.7521 9.33271 16.5901C9.19968 16.4281 9.0809 16.2398 8.97637 16.0254C8.87185 15.811 8.79345 15.6061 8.74119 15.4107C8.68913 15.2165 8.65478 15.0179 8.63857 14.8175L8.6129 14.5173L8.62716 14.5201L8.64141 14.5244L8.65566 14.5316L8.66992 14.5387L8.68417 14.5459L8.69842 14.553L8.91935 14.6531C9.06665 14.7198 9.24957 14.777 9.46812 14.8246C9.68668 14.8723 9.81733 14.8985 9.86009 14.9032L9.92423 14.9104H10.0525L10.0497 14.9061L10.0454 14.9032L10.0411 14.9004L10.0383 14.8961L10.0354 14.8918L10.0311 14.8889L10.0269 14.8861L10.024 14.8818L10.0098 14.8747L9.9955 14.8675L9.99266 14.8632L9.98837 14.8604L9.9841 14.8575L9.98125 14.8532L9.96699 14.8461L9.95274 14.8389L9.9499 14.8346C9.94705 14.8327 9.90619 14.8022 9.82731 14.7431C9.74938 14.6831 9.66767 14.6054 9.58215 14.5101C9.49662 14.4148 9.4111 14.3148 9.32558 14.2099C9.2399 14.1049 9.16359 13.9924 9.09752 13.874C9.03102 13.7549 8.96069 13.6033 8.88657 13.4194C8.81341 13.2364 8.75782 13.052 8.71981 12.8662C8.68181 12.6803 8.66042 12.4969 8.65566 12.3158C8.65092 12.1347 8.65566 11.9799 8.66992 11.8512C8.68417 11.7226 8.71268 11.5772 8.75544 11.4152C8.7982 11.2532 8.85997 11.0817 8.94074 10.9006L9.06189 10.629L9.06902 10.6075L9.07614 10.5861L9.08043 10.5832L9.08327 10.579L9.08612 10.5747L9.0904 10.5718L9.09469 10.5747L9.09752 10.579L9.10038 10.5832L9.10465 10.5861L9.10894 10.589L9.11178 10.5932L9.11463 10.5975L9.1189 10.6004L9.12603 10.6147L9.13316 10.629L9.13745 10.6318L9.14029 10.6361L9.33271 10.8506C9.46099 10.9935 9.61303 11.1531 9.78882 11.3295C9.96463 11.5058 10.062 11.5972 10.081 11.6039C10.1 11.6115 10.1238 11.6335 10.1523 11.6697C10.1808 11.7049 10.2758 11.7893 10.4374 11.9227C10.5989 12.0561 10.8103 12.211 11.0716 12.3873C11.333 12.5636 11.6228 12.7375 11.9411 12.9091C12.2594 13.0806 12.6015 13.2355 12.9674 13.3737C13.3332 13.5119 13.5898 13.6024 13.7371 13.6453C13.8844 13.6882 14.1362 13.7429 14.4925 13.8097C14.8488 13.8764 15.1173 13.9193 15.2978 13.9383C15.4784 13.9574 15.6019 13.9683 15.6684 13.9712L15.7682 13.9741L15.7654 13.9526L15.7611 13.9312L15.7326 13.7525C15.7136 13.6334 15.7041 13.4666 15.7041 13.2522C15.7041 13.0377 15.7207 12.84 15.7539 12.6589C15.7872 12.4778 15.8371 12.2944 15.9036 12.1085C15.9701 11.9227 16.0352 11.7735 16.0989 11.6611C16.1635 11.5496 16.2481 11.4224 16.3526 11.2794C16.4571 11.1365 16.5925 10.9888 16.7588 10.8363C16.9251 10.6838 17.1152 10.548 17.329 10.4289C17.5428 10.3097 17.7399 10.2192 17.9205 10.1572C18.101 10.0953 18.2531 10.0548 18.3766 10.0357C18.5001 10.0167 18.5619 10.0057 18.5619 10.0029Z" fill="white"/>
</svg>
