<svg width="54" height="56" viewBox="0 0 54 56" fill="none" xmlns="http://www.w3.org/2000/svg">
<g filter="url(#filter0_d)">
<path d="M47.1352 15.3595L44.3903 10.6053C44.0263 9.97487 43.4268 9.51486 42.7236 9.32645C42.0204 9.13805 41.2712 9.23669 40.6407 9.60067L38.6973 10.7233C36.8283 9.04601 34.6279 7.77982 32.2386 7.00673V4.74491C32.2386 4.01692 31.9494 3.31874 31.4346 2.80397C30.9198 2.2892 30.2216 2 29.4936 2H24.0038C23.2758 2 22.5776 2.2892 22.0629 2.80397C21.5481 3.31874 21.2589 4.01692 21.2589 4.74491V6.99849C18.8625 7.76572 16.657 9.03457 14.7891 10.7206L12.8512 9.60067C12.2218 9.24016 11.4752 9.14346 10.7747 9.33171C10.0742 9.51996 9.47662 9.97785 9.11266 10.6053L6.36774 15.3595C6.00376 15.9899 5.90512 16.7392 6.09353 17.4423C6.28193 18.1455 6.74195 18.745 7.37238 19.1091L9.32676 20.24C8.79964 22.6943 8.79964 25.2326 9.32676 27.6869L7.37238 28.8151C6.74195 29.1791 6.28193 29.7786 6.09353 30.4818C5.90512 31.185 6.00376 31.9342 6.36774 32.5646L9.11266 37.3188C9.47667 37.9492 10.0762 38.4093 10.7794 38.5977C11.4825 38.7861 12.2318 38.6874 12.8622 38.3235L14.8056 37.2008C16.6747 38.8816 18.8774 40.149 21.2699 40.9201V43.1737C21.2699 43.9017 21.5591 44.5999 22.0739 45.1147C22.5886 45.6294 23.2868 45.9186 24.0148 45.9186H29.5046C30.2326 45.9186 30.9308 45.6294 31.4456 45.1147C31.9603 44.5999 32.2495 43.9017 32.2495 43.1737V40.9229C34.6442 40.1549 36.8485 38.8871 38.7166 37.2035L40.6517 38.3235C41.2822 38.6874 42.0314 38.7861 42.7346 38.5977C43.4377 38.4093 44.0373 37.9492 44.4013 37.3188L47.1462 32.5646C47.5102 31.9342 47.6088 31.185 47.4204 30.4818C47.232 29.7786 46.772 29.1791 46.1415 28.8151L44.1899 27.6897C44.7184 25.2336 44.7184 22.6933 44.1899 20.2372L46.1415 19.1091C46.7701 18.7432 47.2278 18.1429 47.4141 17.4399C47.6004 16.7368 47.5001 15.9886 47.1352 15.3595ZM26.7487 33.5665C24.8486 33.5665 22.9912 33.0031 21.4113 31.9474C19.8314 30.8918 18.6 29.3913 17.8728 27.6358C17.1457 25.8803 16.9554 23.9487 17.3261 22.085C17.6968 20.2214 18.6118 18.5096 19.9554 17.166C21.299 15.8224 23.0108 14.9074 24.8745 14.5367C26.7381 14.166 28.6698 14.3563 30.4252 15.0834C32.1807 15.8106 33.6812 17.0419 34.7368 18.6218C35.7925 20.2017 36.3559 22.0592 36.3559 23.9593C36.3559 26.5073 35.3437 28.9509 33.542 30.7526C31.7403 32.5543 29.2967 33.5665 26.7487 33.5665Z" fill="#72D962" fill-opacity="0.01"/>
</g>
<path d="M47.1352 15.3595L44.3903 10.6053C44.0263 9.97487 43.4268 9.51486 42.7236 9.32645C42.0204 9.13805 41.2712 9.23669 40.6407 9.60067L38.6973 10.7233C36.8283 9.04601 34.6279 7.77982 32.2386 7.00673V4.74491C32.2386 4.01692 31.9494 3.31874 31.4346 2.80397C30.9198 2.2892 30.2216 2 29.4936 2H24.0038C23.2758 2 22.5776 2.2892 22.0629 2.80397C21.5481 3.31874 21.2589 4.01692 21.2589 4.74491V6.99849C18.8625 7.76572 16.657 9.03457 14.7891 10.7206L12.8512 9.60067C12.2218 9.24016 11.4752 9.14346 10.7747 9.33171C10.0742 9.51996 9.47662 9.97785 9.11266 10.6053L6.36774 15.3595C6.00376 15.9899 5.90512 16.7392 6.09353 17.4423C6.28193 18.1455 6.74195 18.745 7.37238 19.1091L9.32676 20.24C8.79964 22.6943 8.79964 25.2326 9.32676 27.6869L7.37238 28.8151C6.74195 29.1791 6.28193 29.7786 6.09353 30.4818C5.90512 31.185 6.00376 31.9342 6.36774 32.5646L9.11266 37.3188C9.47667 37.9492 10.0762 38.4093 10.7794 38.5977C11.4825 38.7861 12.2318 38.6874 12.8622 38.3235L14.8056 37.2008C16.6747 38.8816 18.8774 40.149 21.2699 40.9201V43.1737C21.2699 43.9017 21.5591 44.5999 22.0739 45.1147C22.5886 45.6294 23.2868 45.9186 24.0148 45.9186H29.5046C30.2326 45.9186 30.9308 45.6294 31.4456 45.1147C31.9603 44.5999 32.2495 43.9017 32.2495 43.1737V40.9229C34.6442 40.1549 36.8485 38.8871 38.7166 37.2035L40.6517 38.3235C41.2822 38.6874 42.0314 38.7861 42.7346 38.5977C43.4377 38.4093 44.0373 37.9492 44.4013 37.3188L47.1462 32.5646C47.5102 31.9342 47.6088 31.185 47.4204 30.4818C47.232 29.7786 46.772 29.1791 46.1415 28.8151L44.1899 27.6897C44.7184 25.2336 44.7184 22.6933 44.1899 20.2372L46.1415 19.1091C46.7701 18.7432 47.2278 18.1429 47.4141 17.4399C47.6004 16.7368 47.5001 15.9886 47.1352 15.3595ZM26.7487 33.5665C24.8486 33.5665 22.9912 33.0031 21.4113 31.9474C19.8314 30.8918 18.6 29.3913 17.8728 27.6358C17.1457 25.8803 16.9554 23.9487 17.3261 22.085C17.6968 20.2214 18.6118 18.5096 19.9554 17.166C21.299 15.8224 23.0108 14.9074 24.8745 14.5367C26.7381 14.166 28.6698 14.3563 30.4252 15.0834C32.1807 15.8106 33.6812 17.0419 34.7368 18.6218C35.7925 20.2017 36.3559 22.0592 36.3559 23.9593C36.3559 26.5073 35.3437 28.9509 33.542 30.7526C31.7403 32.5543 29.2967 33.5665 26.7487 33.5665Z" fill="#72D962"/>
<defs>
<filter id="filter0_d" x="0" y="0" width="53.5139" height="55.9186" filterUnits="userSpaceOnUse" color-interpolation-filters="sRGB">
<feFlood flood-opacity="0" result="BackgroundImageFix"/>
<feColorMatrix in="SourceAlpha" type="matrix" values="0 0 0 0 0 0 0 0 0 0 0 0 0 0 0 0 0 0 127 0"/>
<feOffset dy="4"/>
<feGaussianBlur stdDeviation="3"/>
<feColorMatrix type="matrix" values="0 0 0 0 0.44795 0 0 0 0 0.85 0 0 0 0 0.3825 0 0 0 0.21 0"/>
<feBlend mode="normal" in2="BackgroundImageFix" result="effect1_dropShadow"/>
<feBlend mode="normal" in="SourceGraphic" in2="effect1_dropShadow" result="shape"/>
</filter>
</defs>
</svg>
