<svg width="219" height="150" viewBox="0 0 219 150" fill="none" xmlns="http://www.w3.org/2000/svg">
<g clip-path="url(#clip0)">
<g filter="url(#filter0_d)">
<path d="M78.4722 27.2085L20.0095 35.4303C12.8666 36.4348 7.88946 43.0397 8.89269 50.1828L19.6206 126.566C20.6239 133.709 27.2276 138.685 34.3705 137.681L92.8332 129.459C99.9761 128.454 104.953 121.85 103.95 114.707L93.2221 38.3234C92.2189 31.1803 85.6151 26.204 78.4722 27.2085Z" fill="white" fill-opacity="0.01"/>
</g>
<path d="M78.4722 27.2085L20.0095 35.4303C12.8666 36.4348 7.88946 43.0397 8.89269 50.1828L19.6206 126.566C20.6239 133.709 27.2276 138.685 34.3705 137.681L92.8332 129.459C99.9761 128.454 104.953 121.85 103.95 114.707L93.2221 38.3234C92.2189 31.1803 85.6151 26.204 78.4722 27.2085Z" fill="white"/>
<path d="M53.0083 55.9143C63.8869 54.3844 71.4663 44.3192 69.9374 33.4331C68.4085 22.547 58.3503 14.9623 47.4718 16.4922C36.5932 18.0222 29.0138 28.0874 30.5427 38.9735C32.0716 49.8596 42.1298 57.4443 53.0083 55.9143Z" fill="#B4C2D6"/>
<path d="M55.0567 30.0612C54.6343 27.054 51.8563 24.9592 48.8511 25.3819C45.8459 25.8045 43.7525 28.5844 44.1748 31.5916C44.1963 31.7449 44.2807 32.3456 44.3022 32.499C44.7246 35.5062 47.5026 37.6009 50.5078 37.1783C53.513 36.7556 55.6065 33.9758 55.1841 30.9686C55.1626 30.8152 55.0782 30.2145 55.0567 30.0612Z" fill="white"/>
<path d="M62.2163 42.5209C60.4284 40.7805 54.8568 39.3173 50.7572 39.8939C46.6577 40.4704 41.7069 43.4125 40.4678 45.5796C39.7021 46.9195 40.8391 48.5431 42.3731 48.3274L61.1416 45.6878C62.6756 45.4721 63.3213 43.5977 62.2163 42.5209Z" fill="white"/>
<path opacity="0.5" d="M26.1051 77.9143C28.4849 77.5797 30.143 75.3779 29.8085 72.9966C29.4741 70.6152 27.2737 68.9561 24.894 69.2907C22.5142 69.6254 20.8561 71.8272 21.1905 74.2085C21.525 76.5899 23.7253 78.249 26.1051 77.9143Z" fill="#778BA5"/>
<path opacity="0.5" d="M28.1813 92.6977C30.5611 92.363 32.2192 90.1612 31.8847 87.7799C31.5502 85.3985 29.3499 83.7394 26.9701 84.0741C24.5903 84.4087 22.9323 86.6105 23.2667 88.9918C23.6012 91.3732 25.8015 93.0323 28.1813 92.6977Z" fill="#778BA5"/>
<path opacity="0.5" d="M32.3336 122.264C34.7134 121.929 36.3715 119.727 36.037 117.346C35.7026 114.965 33.5023 113.306 31.1225 113.64C28.7427 113.975 27.0846 116.177 27.4191 118.558C27.7535 120.939 29.9539 122.598 32.3336 122.264Z" fill="#778BA5"/>
<path opacity="0.5" d="M30.2575 107.481C32.6373 107.146 34.2953 104.944 33.9609 102.563C33.6264 100.182 31.4261 98.5225 29.0463 98.8572C26.6665 99.1919 25.0084 101.394 25.3429 103.775C25.6773 106.156 27.8777 107.815 30.2575 107.481Z" fill="#778BA5"/>
<path opacity="0.7" d="M75.7845 64.1545L34.2646 69.9938C33.2442 70.1373 32.5332 71.0809 32.6765 72.1013C32.8198 73.1217 33.7632 73.8326 34.7836 73.6891L76.3035 67.8498C77.3239 67.7063 78.0349 66.7627 77.8916 65.7423C77.7483 64.7219 76.8049 64.011 75.7845 64.1545Z" fill="#DCE3ED"/>
<path opacity="0.7" d="M86.73 78.1822L36.4101 85.2591C35.3897 85.4026 34.6787 86.3461 34.822 87.3666C34.9653 88.387 35.9087 89.0979 36.9291 88.9544L87.249 81.8774C88.2694 81.7339 88.9804 80.7904 88.8371 79.77C88.6938 78.7495 87.7504 78.0386 86.73 78.1822Z" fill="#DCE3ED"/>
<path opacity="0.7" d="M87.4733 108.228L40.5634 114.825C39.543 114.969 38.832 115.912 38.9753 116.933C39.1186 117.953 40.062 118.664 41.0824 118.52L87.9923 111.923C89.0127 111.78 89.7237 110.836 89.5804 109.816C89.4371 108.795 88.4937 108.084 87.4733 108.228Z" fill="#DCE3ED"/>
<path opacity="0.7" d="M76.7704 94.6579L38.4872 100.042C37.4668 100.186 36.7558 101.129 36.8991 102.15C37.0424 103.17 37.9858 103.881 39.0062 103.737L77.2894 98.3532C78.3098 98.2097 79.0208 97.2662 78.8775 96.2457C78.7342 95.2253 77.7908 94.5144 76.7704 94.6579Z" fill="#DCE3ED"/>
<g filter="url(#filter1_d)">
<path d="M198.983 35.4108L140.52 27.1887C133.377 26.1841 126.774 31.1603 125.77 38.3034L115.043 114.687C114.04 121.83 119.017 128.435 126.16 129.439L184.623 137.661C191.765 138.666 198.369 133.69 199.372 126.547L210.1 50.1634C211.103 43.0203 206.126 36.4153 198.983 35.4108Z" fill="white" fill-opacity="0.01"/>
</g>
<path d="M198.983 35.4109L140.52 27.1888C133.377 26.1842 126.774 31.1605 125.77 38.3035L115.043 114.687C114.04 121.83 119.017 128.435 126.16 129.439L184.623 137.661C191.765 138.666 198.369 133.69 199.372 126.547L210.1 50.1635C211.103 43.0204 206.126 36.4155 198.983 35.4109Z" fill="white"/>
<path d="M166.598 55.9808C177.477 57.5105 187.535 49.9257 189.064 39.0396C190.593 28.1535 183.014 18.0885 172.136 16.5588C161.257 15.029 151.199 22.6139 149.67 33.4999C148.14 44.386 155.72 54.451 166.598 55.9808Z" fill="#B4C2D6"/>
<path d="M175.689 31.6949C176.111 28.6878 174.017 25.9079 171.012 25.4852C168.007 25.0626 165.229 27.1573 164.807 30.1645C164.785 30.3179 164.701 30.9186 164.679 31.0719C164.257 34.0791 166.35 36.859 169.356 37.2816C172.361 37.7043 175.139 35.6095 175.561 32.6023C175.583 32.449 175.667 31.8483 175.689 31.6949Z" fill="white"/>
<path d="M179.142 45.6469C177.902 43.4808 172.95 40.5375 168.85 39.9609C164.75 39.3844 159.181 40.8468 157.393 42.5883C156.288 43.6651 156.934 45.5394 158.468 45.7552L177.236 48.3947C178.77 48.6105 179.907 46.9868 179.142 45.6469Z" fill="white"/>
<path opacity="0.7" d="M186.222 70.1848L144.702 64.3455C143.681 64.202 142.738 64.9129 142.595 65.9333L142.595 65.9333C142.451 66.9538 143.162 67.8973 144.183 68.0408L185.703 73.8801C186.723 74.0237 187.666 73.3128 187.81 72.2923C187.953 71.2719 187.242 70.3283 186.222 70.1848Z" fill="#DCE3ED"/>
<path opacity="0.7" d="M192.879 86.6877L142.56 79.6108C141.539 79.4673 140.596 80.1782 140.452 81.1986L140.452 81.1986C140.309 82.219 141.02 83.1626 142.041 83.3061L192.36 90.383C193.381 90.5265 194.324 89.8156 194.468 88.7952C194.611 87.7748 193.9 86.8312 192.879 86.6877Z" fill="#DCE3ED"/>
<path opacity="0.7" d="M185.318 115.775L138.408 109.178C137.387 109.034 136.444 109.745 136.301 110.766L136.301 110.766C136.157 111.786 136.868 112.73 137.889 112.873L184.799 119.47C185.819 119.614 186.762 118.903 186.906 117.883C187.049 116.862 186.338 115.919 185.318 115.775Z" fill="#DCE3ED"/>
<path opacity="0.7" d="M178.766 99.7781L140.483 94.394C139.462 94.2505 138.519 94.9614 138.376 95.9818L138.376 95.9818C138.232 97.0022 138.943 97.9458 139.964 98.0893L178.247 103.473C179.267 103.617 180.211 102.906 180.354 101.886C180.497 100.865 179.786 99.9216 178.766 99.7781Z" fill="#DCE3ED"/>
<g filter="url(#filter2_dd)">
<path d="M139.256 17.4287H80.2188C73.0056 17.4287 67.1582 23.2761 67.1582 30.4893V107.624C67.1582 114.837 73.0056 120.685 80.2188 120.685H139.256C146.469 120.685 152.316 114.837 152.316 107.624V30.4893C152.316 23.2761 146.469 17.4287 139.256 17.4287Z" fill="white" fill-opacity="0.01"/>
</g>
<path d="M139.256 17.4287H80.2188C73.0056 17.4287 67.1582 23.2761 67.1582 30.4893V107.624C67.1582 114.837 73.0056 120.685 80.2188 120.685H139.256C146.469 120.685 152.316 114.837 152.316 107.624V30.4893C152.316 23.2761 146.469 17.4287 139.256 17.4287Z" fill="white"/>
<g filter="url(#filter3_d)">
<path d="M110.049 42.3094C121.035 42.3094 129.94 33.3978 129.94 22.4047C129.94 11.4116 121.035 2.5 110.049 2.5C99.0637 2.5 90.1582 11.4116 90.1582 22.4047C90.1582 33.3978 99.0637 42.3094 110.049 42.3094Z" fill="#1C7DF8" fill-opacity="0.01"/>
</g>
<path d="M110.049 42.3094C121.035 42.3094 129.94 33.3978 129.94 22.4047C129.94 11.4116 121.035 2.5 110.049 2.5C99.0637 2.5 90.1582 11.4116 90.1582 22.4047C90.1582 33.3978 99.0637 42.3094 110.049 42.3094Z" fill="#1C7DF8"/>
<path d="M115.672 16.993C115.672 13.9563 113.213 11.4951 110.178 11.4951C107.143 11.4951 104.684 13.9563 104.684 16.993C104.684 17.1479 104.684 17.7545 104.684 17.9094C104.684 20.9461 107.143 23.4074 110.178 23.4074C113.213 23.4074 115.672 20.9461 115.672 17.9094C115.672 17.7545 115.672 17.1479 115.672 16.993Z" fill="white"/>
<path d="M121.03 30.3281C119.501 28.3557 114.188 26.1307 110.048 26.1307C105.908 26.1307 100.597 28.3546 99.0684 30.3281C98.1239 31.5483 99.024 33.3145 100.573 33.3145H119.525C121.074 33.3145 121.974 31.5483 121.03 30.3281Z" fill="white"/>
<g filter="url(#filter4_d)">
<path d="M80.3445 60.3478C82.7477 60.3478 84.6958 58.3984 84.6958 55.9937C84.6958 53.5889 82.7477 51.6395 80.3445 51.6395C77.9413 51.6395 75.9932 53.5889 75.9932 55.9937C75.9932 58.3984 77.9413 60.3478 80.3445 60.3478Z" fill="#FFCD1D" fill-opacity="0.01"/>
</g>
<path d="M80.3445 60.348C82.7477 60.348 84.6958 58.3985 84.6958 55.9938C84.6958 53.5891 82.7477 51.6396 80.3445 51.6396C77.9413 51.6396 75.9932 53.5891 75.9932 55.9938C75.9932 58.3985 77.9413 60.348 80.3445 60.348Z" fill="#FFCD1D"/>
<g filter="url(#filter5_d)">
<path d="M80.3445 75.2767C82.7477 75.2767 84.6958 73.3273 84.6958 70.9225C84.6958 68.5178 82.7477 66.5684 80.3445 66.5684C77.9413 66.5684 75.9932 68.5178 75.9932 70.9225C75.9932 73.3273 77.9413 75.2767 80.3445 75.2767Z" fill="#72D962" fill-opacity="0.01"/>
</g>
<path d="M80.3445 75.2767C82.7477 75.2767 84.6958 73.3273 84.6958 70.9225C84.6958 68.5178 82.7477 66.5684 80.3445 66.5684C77.9413 66.5684 75.9932 68.5178 75.9932 70.9225C75.9932 73.3273 77.9413 75.2767 80.3445 75.2767Z" fill="#72D962"/>
<g filter="url(#filter6_d)">
<path d="M80.3445 105.134C82.7477 105.134 84.6958 103.185 84.6958 100.78C84.6958 98.3752 82.7477 96.4258 80.3445 96.4258C77.9413 96.4258 75.9932 98.3752 75.9932 100.78C75.9932 103.185 77.9413 105.134 80.3445 105.134Z" fill="#72D962" fill-opacity="0.01"/>
</g>
<path d="M80.3445 105.134C82.7477 105.134 84.6958 103.185 84.6958 100.78C84.6958 98.3752 82.7477 96.4258 80.3445 96.4258C77.9413 96.4258 75.9932 98.3752 75.9932 100.78C75.9932 103.185 77.9413 105.134 80.3445 105.134Z" fill="#72D962"/>
<g filter="url(#filter7_d)">
<path d="M80.3445 90.2054C82.7477 90.2054 84.6958 88.256 84.6958 85.8512C84.6958 83.4465 82.7477 81.4971 80.3445 81.4971C77.9413 81.4971 75.9932 83.4465 75.9932 85.8512C75.9932 88.256 77.9413 90.2054 80.3445 90.2054Z" fill="#FFCD1D" fill-opacity="0.01"/>
</g>
<path d="M80.3445 90.2054C82.7477 90.2054 84.6958 88.256 84.6958 85.8512C84.6958 83.4465 82.7477 81.4971 80.3445 81.4971C77.9413 81.4971 75.9932 83.4465 75.9932 85.8512C75.9932 88.256 77.9413 90.2054 80.3445 90.2054Z" fill="#FFCD1D"/>
<path opacity="0.7" d="M131.457 53.6409H89.5289C88.4984 53.6409 87.6631 54.4762 87.6631 55.5067V55.5067C87.6631 56.5371 88.4984 57.3725 89.5289 57.3725H131.457C132.487 57.3725 133.323 56.5371 133.323 55.5067C133.323 54.4762 132.487 53.6409 131.457 53.6409Z" fill="#DCE3ED"/>
<path opacity="0.7" d="M140.343 69.0566H89.5289C88.4984 69.0566 87.6631 69.892 87.6631 70.9224V70.9224C87.6631 71.9529 88.4984 72.7882 89.5289 72.7882H140.343C141.374 72.7882 142.209 71.9529 142.209 70.9224C142.209 69.892 141.374 69.0566 140.343 69.0566Z" fill="#DCE3ED"/>
<path opacity="0.7" d="M136.9 98.9136H89.5289C88.4984 98.9136 87.6631 99.7489 87.6631 100.779V100.779C87.6631 101.81 88.4984 102.645 89.5289 102.645H136.9C137.93 102.645 138.766 101.81 138.766 100.779C138.766 99.7489 137.93 98.9136 136.9 98.9136Z" fill="#DCE3ED"/>
<path opacity="0.7" d="M128.188 83.9849H89.5289C88.4984 83.9849 87.6631 84.8202 87.6631 85.8507V85.8507C87.6631 86.8811 88.4984 87.7165 89.5289 87.7165H128.188C129.219 87.7165 130.054 86.8811 130.054 85.8507C130.054 84.8202 129.219 83.9849 128.188 83.9849Z" fill="#DCE3ED"/>
</g>
<defs>
<filter id="filter0_d" x="0.0570803" y="20.8604" width="112.729" height="128.144" filterUnits="userSpaceOnUse" color-interpolation-filters="sRGB">
<feFlood flood-opacity="0" result="BackgroundImageFix"/>
<feColorMatrix in="SourceAlpha" type="matrix" values="0 0 0 0 0 0 0 0 0 0 0 0 0 0 0 0 0 0 127 0"/>
<feOffset dy="2.48774"/>
<feGaussianBlur stdDeviation="4.35354"/>
<feColorMatrix type="matrix" values="0 0 0 0 0.121042 0 0 0 0 0.143938 0 0 0 0 0.35 0 0 0 0.08 0"/>
<feBlend mode="normal" in2="BackgroundImageFix" result="effect1_dropShadow"/>
<feBlend mode="normal" in="SourceGraphic" in2="effect1_dropShadow" result="shape"/>
</filter>
<filter id="filter1_d" x="106.207" y="20.8405" width="112.728" height="128.145" filterUnits="userSpaceOnUse" color-interpolation-filters="sRGB">
<feFlood flood-opacity="0" result="BackgroundImageFix"/>
<feColorMatrix in="SourceAlpha" type="matrix" values="0 0 0 0 0 0 0 0 0 0 0 0 0 0 0 0 0 0 127 0"/>
<feOffset dy="2.48774"/>
<feGaussianBlur stdDeviation="4.35354"/>
<feColorMatrix type="matrix" values="0 0 0 0 0.121042 0 0 0 0 0.143938 0 0 0 0 0.35 0 0 0 0.08 0"/>
<feBlend mode="normal" in2="BackgroundImageFix" result="effect1_dropShadow"/>
<feBlend mode="normal" in="SourceGraphic" in2="effect1_dropShadow" result="shape"/>
</filter>
<filter id="filter2_dd" x="52.2318" y="11.2094" width="115.011" height="133.109" filterUnits="userSpaceOnUse" color-interpolation-filters="sRGB">
<feFlood flood-opacity="0" result="BackgroundImageFix"/>
<feColorMatrix in="SourceAlpha" type="matrix" values="0 0 0 0 0 0 0 0 0 0 0 0 0 0 0 0 0 0 127 0"/>
<feOffset dy="8.70708"/>
<feGaussianBlur stdDeviation="7.46321"/>
<feColorMatrix type="matrix" values="0 0 0 0 0.109219 0 0 0 0 0.491032 0 0 0 0 0.970833 0 0 0 0.12 0"/>
<feBlend mode="normal" in2="BackgroundImageFix" result="effect1_dropShadow"/>
<feColorMatrix in="SourceAlpha" type="matrix" values="0 0 0 0 0 0 0 0 0 0 0 0 0 0 0 0 0 0 127 0"/>
<feOffset dy="1.8658"/>
<feGaussianBlur stdDeviation="3.10967"/>
<feColorMatrix type="matrix" values="0 0 0 0 0.0976562 0 0 0 0 0.192861 0 0 0 0 0.3125 0 0 0 0.08 0"/>
<feBlend mode="normal" in2="effect1_dropShadow" result="effect2_dropShadow"/>
<feBlend mode="normal" in="SourceGraphic" in2="effect2_dropShadow" result="shape"/>
</filter>
<filter id="filter3_d" x="81.4511" y="1.25613" width="57.196" height="57.2236" filterUnits="userSpaceOnUse" color-interpolation-filters="sRGB">
<feFlood flood-opacity="0" result="BackgroundImageFix"/>
<feColorMatrix in="SourceAlpha" type="matrix" values="0 0 0 0 0 0 0 0 0 0 0 0 0 0 0 0 0 0 127 0"/>
<feOffset dy="7.46321"/>
<feGaussianBlur stdDeviation="4.35354"/>
<feColorMatrix type="matrix" values="0 0 0 0 0.109219 0 0 0 0 0.491032 0 0 0 0 0.970833 0 0 0 0.1 0"/>
<feBlend mode="normal" in2="BackgroundImageFix" result="effect1_dropShadow"/>
<feBlend mode="normal" in="SourceGraphic" in2="effect1_dropShadow" result="shape"/>
</filter>
<filter id="filter4_d" x="70.8428" y="48.5493" width="19.0035" height="19.0091" filterUnits="userSpaceOnUse" color-interpolation-filters="sRGB">
<feFlood flood-opacity="0" result="BackgroundImageFix"/>
<feColorMatrix in="SourceAlpha" type="matrix" values="0 0 0 0 0 0 0 0 0 0 0 0 0 0 0 0 0 0 127 0"/>
<feOffset dy="2.06016"/>
<feGaussianBlur stdDeviation="2.5752"/>
<feColorMatrix type="matrix" values="0 0 0 0 1 0 0 0 0 0.80475 0 0 0 0 0.1125 0 0 0 0.1 0"/>
<feBlend mode="normal" in2="BackgroundImageFix" result="effect1_dropShadow"/>
<feBlend mode="normal" in="SourceGraphic" in2="effect1_dropShadow" result="shape"/>
</filter>
<filter id="filter5_d" x="72.9029" y="65.5383" width="14.8832" height="14.8888" filterUnits="userSpaceOnUse" color-interpolation-filters="sRGB">
<feFlood flood-opacity="0" result="BackgroundImageFix"/>
<feColorMatrix in="SourceAlpha" type="matrix" values="0 0 0 0 0 0 0 0 0 0 0 0 0 0 0 0 0 0 127 0"/>
<feOffset dy="2.06016"/>
<feGaussianBlur stdDeviation="1.54512"/>
<feColorMatrix type="matrix" values="0 0 0 0 0.44795 0 0 0 0 0.85 0 0 0 0 0.3825 0 0 0 0.21 0"/>
<feBlend mode="normal" in2="BackgroundImageFix" result="effect1_dropShadow"/>
<feBlend mode="normal" in="SourceGraphic" in2="effect1_dropShadow" result="shape"/>
</filter>
<filter id="filter6_d" x="72.9029" y="95.3957" width="14.8832" height="14.8888" filterUnits="userSpaceOnUse" color-interpolation-filters="sRGB">
<feFlood flood-opacity="0" result="BackgroundImageFix"/>
<feColorMatrix in="SourceAlpha" type="matrix" values="0 0 0 0 0 0 0 0 0 0 0 0 0 0 0 0 0 0 127 0"/>
<feOffset dy="2.06016"/>
<feGaussianBlur stdDeviation="1.54512"/>
<feColorMatrix type="matrix" values="0 0 0 0 0.44795 0 0 0 0 0.85 0 0 0 0 0.3825 0 0 0 0.21 0"/>
<feBlend mode="normal" in2="BackgroundImageFix" result="effect1_dropShadow"/>
<feBlend mode="normal" in="SourceGraphic" in2="effect1_dropShadow" result="shape"/>
</filter>
<filter id="filter7_d" x="70.8428" y="78.4068" width="19.0035" height="19.0091" filterUnits="userSpaceOnUse" color-interpolation-filters="sRGB">
<feFlood flood-opacity="0" result="BackgroundImageFix"/>
<feColorMatrix in="SourceAlpha" type="matrix" values="0 0 0 0 0 0 0 0 0 0 0 0 0 0 0 0 0 0 127 0"/>
<feOffset dy="2.06016"/>
<feGaussianBlur stdDeviation="2.5752"/>
<feColorMatrix type="matrix" values="0 0 0 0 1 0 0 0 0 0.80475 0 0 0 0 0.1125 0 0 0 0.1 0"/>
<feBlend mode="normal" in2="BackgroundImageFix" result="effect1_dropShadow"/>
<feBlend mode="normal" in="SourceGraphic" in2="effect1_dropShadow" result="shape"/>
</filter>
<clipPath id="clip0">
<rect width="219" height="149" fill="white" transform="translate(0 0.5)"/>
</clipPath>
</defs>
</svg>
