<svg width="1630" height="419" viewBox="0 0 1630 419" fill="none" xmlns="http://www.w3.org/2000/svg">
<g filter="url(#filter0_d)">
<path d="M18 287.396C40.0872 239.435 115.284 103.755 336.059 103.755C556.834 103.755 805.207 365.45 1028.73 365.45C1252.25 365.45 1299 63.3234 1445.89 8" stroke="#1C7DF8" stroke-opacity="0.01" stroke-width="8" stroke-linecap="round"/>
</g>
<path d="M18 287.396C40.0872 239.435 115.284 103.755 336.059 103.755C556.834 103.755 805.207 365.45 1028.73 365.45C1252.25 365.45 1299 63.3234 1445.89 8" stroke="#1C7DF8" stroke-width="8" stroke-linecap="round"/>
<path opacity="0.4" d="M18 337.725C40.0872 289.764 115.284 154.084 336.059 154.084C556.834 154.084 805.207 415.779 1028.73 415.779C1252.25 415.779 1343.22 135.645 1418.77 104.386C1494.31 73.1258 1581.79 104.386 1626.86 148.374" stroke="#DCE3ED" stroke-width="5" stroke-linecap="round" stroke-dasharray="18 18"/>
<defs>
<filter id="filter0_d" x="-0.000976562" y="-0.000976562" width="1463.89" height="393.451" filterUnits="userSpaceOnUse" color-interpolation-filters="sRGB">
<feFlood flood-opacity="0" result="BackgroundImageFix"/>
<feColorMatrix in="SourceAlpha" type="matrix" values="0 0 0 0 0 0 0 0 0 0 0 0 0 0 0 0 0 0 127 0"/>
<feOffset dy="10"/>
<feGaussianBlur stdDeviation="7"/>
<feColorMatrix type="matrix" values="0 0 0 0 0.109219 0 0 0 0 0.491032 0 0 0 0 0.970833 0 0 0 0.13 0"/>
<feBlend mode="normal" in2="BackgroundImageFix" result="effect1_dropShadow"/>
<feBlend mode="normal" in="SourceGraphic" in2="effect1_dropShadow" result="shape"/>
</filter>
</defs>
</svg>
