<svg width="94" height="90" viewBox="0 0 94 90" fill="none" xmlns="http://www.w3.org/2000/svg">
<g filter="url(#filter0_dd)">
<path d="M75.0361 14.0173L49.3012 9.37306C45.5501 8.69611 41.9731 11.2596 41.3117 15.0987L34.6934 53.5143C34.0319 57.3535 36.5366 61.0145 40.2877 61.6914L66.0226 66.3357C69.7736 67.0126 73.3507 64.4492 74.0121 60.61L80.6304 22.1944C81.2918 18.3553 78.7872 14.6943 75.0361 14.0173Z" fill="white" fill-opacity="0.01"/>
</g>
<path d="M75.0361 14.0173L49.3012 9.37306C45.5501 8.69611 41.9731 11.2596 41.3117 15.0987L34.6934 53.5143C34.0319 57.3535 36.5366 61.0145 40.2877 61.6914L66.0226 66.3357C69.7736 67.0126 73.3507 64.4492 74.0121 60.61L80.6304 22.1944C81.2918 18.3553 78.7872 14.6943 75.0361 14.0173Z" fill="white"/>
<g filter="url(#filter1_d)">
<path d="M73.4905 19.6566L48.8696 15.2133C46.9941 14.8749 45.2055 16.1566 44.8748 18.0762L42.4796 31.979C42.1489 33.8985 43.4013 35.7291 45.2768 36.0675L69.8977 40.5108C71.7732 40.8492 73.5617 39.5675 73.8924 37.6479L76.2876 23.7451C76.6183 21.8256 75.366 19.995 73.4905 19.6566Z" fill="#72D962" fill-opacity="0.01"/>
</g>
<path d="M73.4905 19.6566L48.8696 15.2133C46.9941 14.8749 45.2055 16.1566 44.8748 18.0762L42.4796 31.979C42.1489 33.8985 43.4013 35.7291 45.2768 36.0675L69.8977 40.5108C71.7732 40.8492 73.5617 39.5675 73.8924 37.6479L76.2876 23.7451C76.6183 21.8256 75.366 19.995 73.4905 19.6566Z" fill="#72D962"/>
<path d="M58.7365 43.8002L42.8704 40.9369C41.9326 40.7677 41.0383 41.4085 40.873 42.3683C40.7076 43.3281 41.3338 44.2434 42.2716 44.4126L58.1377 47.2759C59.0755 47.4452 59.9697 46.8043 60.1351 45.8445C60.3004 44.8847 59.6743 43.9694 58.7365 43.8002Z" fill="#778BA5"/>
<path d="M68.0952 51.7604L41.399 46.9427C40.6957 46.8157 40.025 47.2964 39.9009 48.0162C39.7769 48.7361 40.2466 49.4225 40.9499 49.5494L67.6461 54.3672C68.3494 54.4941 69.0201 54.0135 69.1441 53.2936C69.2681 52.5738 68.7985 51.8874 68.0952 51.7604Z" fill="#DCE3ED"/>
<path d="M62.6969 55.2662L40.65 51.2875C39.9466 51.1605 39.2759 51.6412 39.1519 52.361C39.0279 53.0809 39.4975 53.7673 40.2009 53.8942L62.2478 57.873C62.9512 57.9999 63.6219 57.5193 63.7459 56.7994C63.8699 56.0796 63.4003 55.3931 62.6969 55.2662Z" fill="#DCE3ED"/>
<g filter="url(#filter2_dd)">
<path d="M44.6557 13.5022L18.9208 18.1465C15.1698 18.8235 12.6651 22.4845 13.3265 26.3236L19.9448 64.7392C20.6062 68.5784 24.1833 71.1418 27.9344 70.4649L53.6692 65.8206C57.4203 65.1437 59.925 61.4826 59.2636 57.6435L52.6452 19.2279C51.9838 15.3888 48.4068 12.8253 44.6557 13.5022Z" fill="white" fill-opacity="0.01"/>
</g>
<path d="M44.6557 13.5022L18.9208 18.1465C15.1698 18.8235 12.6651 22.4845 13.3265 26.3236L19.9448 64.7392C20.6062 68.5784 24.1833 71.1418 27.9344 70.4649L53.6692 65.8206C57.4203 65.1436 59.925 61.4826 59.2636 57.6435L52.6452 19.2279C51.9838 15.3888 48.4068 12.8253 44.6557 13.5022Z" fill="white"/>
<g filter="url(#filter3_d)">
<path d="M45.0881 19.3422L20.4673 23.7855C18.5917 24.124 17.3394 25.9545 17.6701 27.874L20.0653 41.7769C20.396 43.6964 22.1845 44.9782 24.0601 44.6397L48.6809 40.1965C50.5565 39.858 51.8088 38.0275 51.4781 36.1079L49.0829 22.2051C48.7522 20.2855 46.9636 19.0038 45.0881 19.3422Z" fill="#1C7DF8" fill-opacity="0.01"/>
</g>
<path d="M45.0881 19.3422L20.4673 23.7855C18.5917 24.124 17.3394 25.9545 17.6701 27.874L20.0653 41.7769C20.396 43.6964 22.1845 44.9782 24.0601 44.6397L48.6809 40.1965C50.5565 39.858 51.8088 38.0275 51.4781 36.1079L49.0829 22.2051C48.7522 20.2855 46.9636 19.0038 45.0881 19.3422Z" fill="#1C7DF8"/>
<g filter="url(#filter4_d)">
<path d="M30.9967 27.4208C30.3719 27.1816 29.7298 27.7281 29.8457 28.4005L31.3307 37.0206C31.4466 37.6929 32.2325 37.9817 32.7398 37.5382L39.1435 31.9385C39.6429 31.5019 39.5007 30.6768 38.8856 30.4413L30.9967 27.4208Z" fill="white" fill-opacity="0.01"/>
</g>
<path d="M30.9967 27.4207C30.3719 27.1815 29.7298 27.728 29.8457 28.4003L31.3307 37.0205C31.4466 37.6928 32.2325 37.9816 32.7398 37.5381L39.1435 31.9384C39.6429 31.5018 39.5007 30.6767 38.8856 30.4412L30.9967 27.4207Z" fill="white"/>
<path d="M39.2919 47.1946L23.4258 50.0579C22.488 50.2271 21.8618 51.1424 22.0272 52.1021C22.1925 53.0619 23.0868 53.7028 24.0246 53.5336L39.8907 50.6703C40.8285 50.501 41.4547 49.5858 41.2893 48.626C41.124 47.6662 40.2297 47.0253 39.2919 47.1946Z" fill="#778BA5"/>
<path d="M50.7458 51.399L24.0496 56.2167C23.3463 56.3437 22.8767 57.0301 23.0007 57.75C23.1247 58.4698 23.7954 58.9504 24.4987 58.8235L51.1949 54.0057C51.8982 53.8788 52.3679 53.1924 52.2439 52.4725C52.1198 51.7527 51.4491 51.272 50.7458 51.399Z" fill="#DCE3ED"/>
<path d="M46.8442 56.5833L24.7972 60.5621C24.0938 60.689 23.6242 61.3754 23.7482 62.0953C23.8722 62.8151 24.5429 63.2958 25.2463 63.1689L47.2933 59.1901C47.9966 59.0632 48.4662 58.3767 48.3422 57.6569C48.2182 56.9371 47.5475 56.4564 46.8442 56.5833Z" fill="#DCE3ED"/>
<defs>
<filter id="filter0_dd" x="26.6268" y="4.71576" width="62.07" height="73.1006" filterUnits="userSpaceOnUse" color-interpolation-filters="sRGB">
<feFlood flood-opacity="0" result="BackgroundImageFix"/>
<feColorMatrix in="SourceAlpha" type="matrix" values="0 0 0 0 0 0 0 0 0 0 0 0 0 0 0 0 0 0 127 0"/>
<feOffset dy="3.41167"/>
<feGaussianBlur stdDeviation="3.98028"/>
<feColorMatrix type="matrix" values="0 0 0 0 0.109219 0 0 0 0 0.491032 0 0 0 0 0.970833 0 0 0 0.1 0"/>
<feBlend mode="normal" in2="BackgroundImageFix" result="effect1_dropShadow"/>
<feColorMatrix in="SourceAlpha" type="matrix" values="0 0 0 0 0 0 0 0 0 0 0 0 0 0 0 0 0 0 127 0"/>
<feOffset/>
<feGaussianBlur stdDeviation="1.13722"/>
<feColorMatrix type="matrix" values="0 0 0 0 0.0976562 0 0 0 0 0.192861 0 0 0 0 0.3125 0 0 0 0.06 0"/>
<feBlend mode="normal" in2="effect1_dropShadow" result="effect2_dropShadow"/>
<feBlend mode="normal" in="SourceGraphic" in2="effect2_dropShadow" result="shape"/>
</filter>
<filter id="filter1_d" x="39.0151" y="12.8847" width="40.7373" height="32.2292" filterUnits="userSpaceOnUse" color-interpolation-filters="sRGB">
<feFlood flood-opacity="0" result="BackgroundImageFix"/>
<feColorMatrix in="SourceAlpha" type="matrix" values="0 0 0 0 0 0 0 0 0 0 0 0 0 0 0 0 0 0 127 0"/>
<feOffset dy="1.13722"/>
<feGaussianBlur stdDeviation="1.70584"/>
<feColorMatrix type="matrix" values="0 0 0 0 0.44795 0 0 0 0 0.85 0 0 0 0 0.3825 0 0 0 0.31 0"/>
<feBlend mode="normal" in2="BackgroundImageFix" result="effect1_dropShadow"/>
<feBlend mode="normal" in="SourceGraphic" in2="effect1_dropShadow" result="shape"/>
</filter>
<filter id="filter2_dd" x="5.2599" y="8.84494" width="62.07" height="73.1006" filterUnits="userSpaceOnUse" color-interpolation-filters="sRGB">
<feFlood flood-opacity="0" result="BackgroundImageFix"/>
<feColorMatrix in="SourceAlpha" type="matrix" values="0 0 0 0 0 0 0 0 0 0 0 0 0 0 0 0 0 0 127 0"/>
<feOffset dy="3.41167"/>
<feGaussianBlur stdDeviation="3.98028"/>
<feColorMatrix type="matrix" values="0 0 0 0 0.109219 0 0 0 0 0.491032 0 0 0 0 0.970833 0 0 0 0.1 0"/>
<feBlend mode="normal" in2="BackgroundImageFix" result="effect1_dropShadow"/>
<feColorMatrix in="SourceAlpha" type="matrix" values="0 0 0 0 0 0 0 0 0 0 0 0 0 0 0 0 0 0 127 0"/>
<feOffset/>
<feGaussianBlur stdDeviation="1.13722"/>
<feColorMatrix type="matrix" values="0 0 0 0 0.0976562 0 0 0 0 0.192861 0 0 0 0 0.3125 0 0 0 0.06 0"/>
<feBlend mode="normal" in2="effect1_dropShadow" result="effect2_dropShadow"/>
<feBlend mode="normal" in="SourceGraphic" in2="effect2_dropShadow" result="shape"/>
</filter>
<filter id="filter3_d" x="14.2055" y="17.0136" width="40.7373" height="32.2292" filterUnits="userSpaceOnUse" color-interpolation-filters="sRGB">
<feFlood flood-opacity="0" result="BackgroundImageFix"/>
<feColorMatrix in="SourceAlpha" type="matrix" values="0 0 0 0 0 0 0 0 0 0 0 0 0 0 0 0 0 0 127 0"/>
<feOffset dy="1.13722"/>
<feGaussianBlur stdDeviation="1.70584"/>
<feColorMatrix type="matrix" values="0 0 0 0 0.109219 0 0 0 0 0.491032 0 0 0 0 0.970833 0 0 0 0.15 0"/>
<feBlend mode="normal" in2="BackgroundImageFix" result="effect1_dropShadow"/>
<feBlend mode="normal" in="SourceGraphic" in2="effect1_dropShadow" result="shape"/>
</filter>
<filter id="filter4_d" x="26.4204" y="25.6578" width="16.4372" height="17.2103" filterUnits="userSpaceOnUse" color-interpolation-filters="sRGB">
<feFlood flood-opacity="0" result="BackgroundImageFix"/>
<feColorMatrix in="SourceAlpha" type="matrix" values="0 0 0 0 0 0 0 0 0 0 0 0 0 0 0 0 0 0 127 0"/>
<feOffset dy="1.70584"/>
<feGaussianBlur stdDeviation="1.70584"/>
<feColorMatrix type="matrix" values="0 0 0 0 0.0923611 0 0 0 0 0.400691 0 0 0 0 0.791667 0 0 0 0.54 0"/>
<feBlend mode="normal" in2="BackgroundImageFix" result="effect1_dropShadow"/>
<feBlend mode="normal" in="SourceGraphic" in2="effect1_dropShadow" result="shape"/>
</filter>
</defs>
</svg>
