<svg width="183" height="162" viewBox="0 0 183 162" fill="none" xmlns="http://www.w3.org/2000/svg">
<g filter="url(#filter0_d)">
<path d="M129.59 19H62.4095C54.4514 19 48 25.4514 48 33.4095V122.59C48 130.549 54.4514 137 62.4095 137H129.59C137.549 137 144 130.549 144 122.59V33.4095C144 25.4514 137.549 19 129.59 19Z" fill="white" fill-opacity="0.01"/>
</g>
<path d="M129.59 19H62.4095C54.4514 19 48 25.4514 48 33.4095V122.59C48 130.549 54.4514 137 62.4095 137H129.59C137.549 137 144 130.549 144 122.59V33.4095C144 25.4514 137.549 19 129.59 19Z" fill="white"/>
<g filter="url(#filter1_d)">
<path d="M112.401 73.5907C109.225 76.767 105.195 78.9526 100.8 79.8822C96.4055 80.8118 91.8354 80.4453 87.6451 78.8273C83.4547 77.2093 79.8243 74.4094 77.1948 70.7675C74.5653 67.1257 73.0498 62.7987 72.8324 58.3121C72.615 53.8255 73.705 49.3722 75.9701 45.4932C78.2352 41.6142 81.5778 38.4764 85.5921 36.4608C89.6064 34.4452 94.1196 33.6386 98.5836 34.139C103.048 34.6393 107.27 36.425 110.739 39.2793" stroke="#1C7DF8" stroke-opacity="0.01" stroke-width="12" stroke-linecap="round"/>
</g>
<path d="M112.401 73.5907C109.225 76.767 105.195 78.9526 100.8 79.8822C96.4055 80.8118 91.8354 80.4453 87.6451 78.8273C83.4547 77.2093 79.8243 74.4094 77.1948 70.7675C74.5653 67.1257 73.0498 62.7987 72.8324 58.3121C72.615 53.8255 73.705 49.3722 75.9701 45.4932C78.2352 41.6142 81.5778 38.4764 85.5921 36.4608C89.6064 34.4452 94.1196 33.6386 98.5836 34.139C103.048 34.6393 107.27 36.425 110.739 39.2793" stroke="#1C7DF8" stroke-width="12" stroke-linecap="round"/>
<g filter="url(#filter2_d)">
<path d="M111.323 39.7762C113.803 41.9593 115.789 44.6473 117.147 47.6602C118.505 50.6731 119.203 53.9413 119.195 57.246" stroke="#FFCD1D" stroke-opacity="0.01" stroke-width="12" stroke-linecap="round"/>
</g>
<path d="M111.323 39.7761C113.803 41.9592 115.789 44.6472 117.147 47.6601C118.505 50.673 119.203 53.9412 119.195 57.2459" stroke="#FFCD1D" stroke-width="12" stroke-linecap="round"/>
<g filter="url(#filter3_d)">
<path d="M119.195 57.1895C119.195 60.2355 118.595 63.2516 117.429 66.0658C116.264 68.8799 114.555 71.4369 112.401 73.5907" stroke="#72D962" stroke-opacity="0.01" stroke-width="12" stroke-linecap="round"/>
</g>
<path d="M119.195 57.1895C119.195 60.2355 118.595 63.2516 117.429 66.0658C116.264 68.8799 114.555 71.4369 112.401 73.5907" stroke="#72D962" stroke-width="12" stroke-linecap="round"/>
<g filter="url(#filter4_d)">
<path d="M60.0204 101.757C62.7931 101.757 65.0408 99.5089 65.0408 96.7362C65.0408 93.9635 62.7931 91.7158 60.0204 91.7158C57.2477 91.7158 55 93.9635 55 96.7362C55 99.5089 57.2477 101.757 60.0204 101.757Z" fill="#1C7DF8" fill-opacity="0.01"/>
</g>
<path d="M60.0204 101.757C62.7931 101.757 65.0408 99.5089 65.0408 96.7362C65.0408 93.9635 62.7931 91.7158 60.0204 91.7158C57.2477 91.7158 55 93.9635 55 96.7362C55 99.5089 57.2477 101.757 60.0204 101.757Z" fill="#1C7DF8"/>
<g filter="url(#filter5_d)">
<path d="M60.0204 114.307C62.7931 114.307 65.0408 112.06 65.0408 109.287C65.0408 106.514 62.7931 104.267 60.0204 104.267C57.2477 104.267 55 106.514 55 109.287C55 112.06 57.2477 114.307 60.0204 114.307Z" fill="#72D962" fill-opacity="0.01"/>
</g>
<path d="M60.0204 114.307C62.7931 114.307 65.0408 112.06 65.0408 109.287C65.0408 106.514 62.7931 104.267 60.0204 104.267C57.2477 104.267 55 106.514 55 109.287C55 112.06 57.2477 114.307 60.0204 114.307Z" fill="#72D962"/>
<g filter="url(#filter6_d)">
<path d="M60.0204 126.858C62.7931 126.858 65.0408 124.611 65.0408 121.838C65.0408 119.065 62.7931 116.818 60.0204 116.818C57.2477 116.818 55 119.065 55 121.838C55 124.611 57.2477 126.858 60.0204 126.858Z" fill="#FFCD1D" fill-opacity="0.01"/>
</g>
<path d="M60.0204 126.858C62.7931 126.858 65.0408 124.611 65.0408 121.838C65.0408 119.065 62.7931 116.818 60.0204 116.818C57.2477 116.818 55 119.065 55 121.838C55 124.611 57.2477 126.858 60.0204 126.858Z" fill="#FFCD1D"/>
<path d="M108.38 95.0625H70.6694C69.4268 95.0625 68.4194 96.0699 68.4194 97.3125C68.4194 98.5551 69.4268 99.5625 70.6694 99.5625H108.38C109.623 99.5625 110.63 98.5551 110.63 97.3125C110.63 96.0699 109.623 95.0625 108.38 95.0625Z" fill="#DCE3ED"/>
<path d="M117.039 107.037H70.6694C69.4268 107.037 68.4194 108.044 68.4194 109.287C68.4194 110.53 69.4268 111.537 70.6694 111.537H117.039C118.281 111.537 119.289 110.53 119.289 109.287C119.289 108.044 118.281 107.037 117.039 107.037Z" fill="#DCE3ED"/>
<path d="M93.2275 119.588H70.6694C69.4268 119.588 68.4194 120.595 68.4194 121.838C68.4194 123.081 69.4268 124.088 70.6694 124.088H93.2275C94.4702 124.088 95.4775 123.081 95.4775 121.838C95.4775 120.595 94.4702 119.588 93.2275 119.588Z" fill="#DCE3ED"/>
<g filter="url(#filter7_d)">
<path d="M161.534 93H125.466C119.134 93 114 98.1336 114 104.466V138.319C114 144.652 119.134 149.786 125.466 149.786H161.534C167.866 149.786 173 144.652 173 138.319V104.466C173 98.1336 167.866 93 161.534 93Z" fill="white" fill-opacity="0.01"/>
</g>
<path d="M161.534 93H125.466C119.134 93 114 98.1336 114 104.466V138.319C114 144.652 119.134 149.786 125.466 149.786H161.534C167.866 149.786 173 144.652 173 138.319V104.466C173 98.1336 167.866 93 161.534 93Z" fill="white"/>
<g filter="url(#filter8_d)">
<path d="M143.5 100.941C146.186 100.941 148.845 101.47 151.326 102.498C153.808 103.526 156.062 105.032 157.961 106.932C159.86 108.831 161.367 111.085 162.395 113.566C163.422 116.048 163.951 118.707 163.951 121.393H143.5V100.941Z" fill="#FFCD1D" fill-opacity="0.01"/>
</g>
<path d="M143.5 100.941C146.186 100.941 148.845 101.47 151.326 102.498C153.808 103.526 156.062 105.032 157.961 106.932C159.86 108.831 161.367 111.085 162.395 113.566C163.422 116.048 163.951 118.707 163.951 121.393H143.5V100.941Z" fill="#FFCD1D"/>
<g filter="url(#filter9_d)">
<path d="M163.951 121.393C163.951 125.438 162.752 129.392 160.505 132.755C158.257 136.118 155.063 138.74 151.326 140.288C147.589 141.836 143.477 142.241 139.51 141.451C135.543 140.662 131.899 138.715 129.038 135.854C126.178 132.994 124.23 129.35 123.441 125.383C122.652 121.416 123.057 117.303 124.605 113.566C126.153 109.829 128.774 106.635 132.138 104.388C135.501 102.141 139.455 100.941 143.5 100.941V121.393H163.951Z" fill="#1C7DF8" fill-opacity="0.01"/>
</g>
<path d="M163.951 121.393C163.951 125.438 162.752 129.392 160.505 132.755C158.257 136.118 155.063 138.74 151.326 140.288C147.589 141.836 143.477 142.241 139.51 141.451C135.543 140.662 131.899 138.715 129.038 135.854C126.178 132.994 124.23 129.35 123.441 125.383C122.652 121.416 123.057 117.303 124.605 113.566C126.153 109.829 128.774 106.635 132.138 104.388C135.501 102.141 139.455 100.941 143.5 100.941V121.393H163.951Z" fill="#1C7DF8"/>
<g filter="url(#filter10_d)">
<path d="M63.0374 8.57275H23.3867C16.4249 8.57275 10.7812 14.2164 10.7812 21.1783V58.3945C10.7812 65.3563 16.4249 71 23.3867 71H63.0374C69.9993 71 75.6429 65.3563 75.6429 58.3945V21.1783C75.6429 14.2164 69.9993 8.57275 63.0374 8.57275Z" fill="white" fill-opacity="0.01"/>
</g>
<path d="M63.0374 8.57275H23.3867C16.4249 8.57275 10.7812 14.2164 10.7812 21.1783V58.3945C10.7812 65.3563 16.4249 71 23.3867 71H63.0374C69.9993 71 75.6429 65.3563 75.6429 58.3945V21.1783C75.6429 14.2164 69.9993 8.57275 63.0374 8.57275Z" fill="white"/>
<g filter="url(#filter11_d)">
<path d="M26.8975 27.8215C26.8975 26.407 25.7507 25.2603 24.3362 25.2603C22.9216 25.2603 21.7749 26.407 21.7749 27.8215V59.5764C21.7749 60.9909 22.9216 62.1377 24.3362 62.1377C25.7507 62.1377 26.8975 60.9909 26.8975 59.5764V27.8215Z" fill="#1C7DF8" fill-opacity="0.01"/>
</g>
<path d="M26.8975 27.8215C26.8975 26.407 25.7507 25.2603 24.3362 25.2603C22.9216 25.2603 21.7749 26.407 21.7749 27.8215V59.5764C21.7749 60.9909 22.9216 62.1377 24.3362 62.1377C25.7507 62.1377 26.8975 60.9909 26.8975 59.5764V27.8215Z" fill="#1C7DF8"/>
<g filter="url(#filter12_d)">
<path d="M36.3355 43.3484C36.3355 41.9338 35.1887 40.7871 33.7742 40.7871C32.3596 40.7871 31.2129 41.9338 31.2129 43.3484V59.5759C31.2129 60.9905 32.3596 62.1372 33.7742 62.1372C35.1887 62.1372 36.3355 60.9905 36.3355 59.5759V43.3484Z" fill="#FFCD1D" fill-opacity="0.01"/>
</g>
<path d="M36.3355 43.3484C36.3355 41.9338 35.1887 40.7871 33.7742 40.7871C32.3596 40.7871 31.2129 41.9338 31.2129 43.3484V59.5759C31.2129 60.9905 32.3596 62.1372 33.7742 62.1372C35.1887 62.1372 36.3355 60.9905 36.3355 59.5759V43.3484Z" fill="#FFCD1D"/>
<g filter="url(#filter13_d)">
<path d="M45.7734 32.6736C45.7734 31.259 44.6267 30.1123 43.2122 30.1123C41.7976 30.1123 40.6509 31.259 40.6509 32.6736V59.5761C40.6509 60.9907 41.7976 62.1374 43.2122 62.1374C44.6267 62.1374 45.7734 60.9907 45.7734 59.5761V32.6736Z" fill="#1C7DF8" fill-opacity="0.01"/>
</g>
<path d="M45.7734 32.6736C45.7734 31.259 44.6267 30.1123 43.2122 30.1123C41.7976 30.1123 40.6509 31.259 40.6509 32.6736V59.5761C40.6509 60.9907 41.7976 62.1374 43.2122 62.1374C44.6267 62.1374 45.7734 60.9907 45.7734 59.5761V32.6736Z" fill="#1C7DF8"/>
<g filter="url(#filter14_d)">
<path d="M55.2114 21.0281C55.2114 19.6135 54.0647 18.4668 52.6502 18.4668C51.2356 18.4668 50.0889 19.6135 50.0889 21.0281V59.5762C50.0889 60.9908 51.2356 62.1375 52.6502 62.1375C54.0647 62.1375 55.2114 60.9908 55.2114 59.5762V21.0281Z" fill="#FFCD1D" fill-opacity="0.01"/>
</g>
<path d="M55.2114 21.0281C55.2114 19.6135 54.0647 18.4668 52.6502 18.4668C51.2356 18.4668 50.0889 19.6135 50.0889 21.0281V59.5762C50.0889 60.9908 51.2356 62.1375 52.6502 62.1375C54.0647 62.1375 55.2114 60.9908 55.2114 59.5762V21.0281Z" fill="#FFCD1D"/>
<g filter="url(#filter15_d)">
<path d="M64.6494 36.5554C64.6494 35.1409 63.5027 33.9941 62.0881 33.9941C60.6736 33.9941 59.5269 35.1409 59.5269 36.5554V59.5762C59.5269 60.9907 60.6736 62.1374 62.0881 62.1374C63.5027 62.1374 64.6494 60.9907 64.6494 59.5762V36.5554Z" fill="#1C7DF8" fill-opacity="0.01"/>
</g>
<path d="M64.6494 36.5554C64.6494 35.1409 63.5027 33.9941 62.0881 33.9941C60.6736 33.9941 59.5269 35.1409 59.5269 36.5554V59.5762C59.5269 60.9907 60.6736 62.1374 62.0881 62.1374C63.5027 62.1374 64.6494 60.9907 64.6494 59.5762V36.5554Z" fill="#1C7DF8"/>
<defs>
<filter id="filter0_d" x="31.532" y="6.64901" width="128.936" height="150.936" filterUnits="userSpaceOnUse" color-interpolation-filters="sRGB">
<feFlood flood-opacity="0" result="BackgroundImageFix"/>
<feColorMatrix in="SourceAlpha" type="matrix" values="0 0 0 0 0 0 0 0 0 0 0 0 0 0 0 0 0 0 127 0"/>
<feOffset dy="4.11699"/>
<feGaussianBlur stdDeviation="8.23399"/>
<feColorMatrix type="matrix" values="0 0 0 0 0.109219 0 0 0 0 0.491032 0 0 0 0 0.970833 0 0 0 0.19 0"/>
<feBlend mode="normal" in2="BackgroundImageFix" result="effect1_dropShadow"/>
<feBlend mode="normal" in="SourceGraphic" in2="effect1_dropShadow" result="shape"/>
</filter>
<filter id="filter1_d" x="65.439" y="27.9946" width="54.3281" height="61.122" filterUnits="userSpaceOnUse" color-interpolation-filters="sRGB">
<feFlood flood-opacity="0" result="BackgroundImageFix"/>
<feColorMatrix in="SourceAlpha" type="matrix" values="0 0 0 0 0 0 0 0 0 0 0 0 0 0 0 0 0 0 127 0"/>
<feOffset dy="1.36615"/>
<feGaussianBlur stdDeviation="0.683074"/>
<feColorMatrix type="matrix" values="0 0 0 0 0.109219 0 0 0 0 0.491032 0 0 0 0 0.970833 0 0 0 0.13 0"/>
<feBlend mode="normal" in2="BackgroundImageFix" result="effect1_dropShadow"/>
<feBlend mode="normal" in="SourceGraphic" in2="effect1_dropShadow" result="shape"/>
</filter>
<filter id="filter2_d" x="102.932" y="32.0684" width="24.6537" height="34.2514" filterUnits="userSpaceOnUse" color-interpolation-filters="sRGB">
<feFlood flood-opacity="0" result="BackgroundImageFix"/>
<feColorMatrix in="SourceAlpha" type="matrix" values="0 0 0 0 0 0 0 0 0 0 0 0 0 0 0 0 0 0 127 0"/>
<feOffset dy="0.683074"/>
<feGaussianBlur stdDeviation="1.19538"/>
<feColorMatrix type="matrix" values="0 0 0 0 1 0 0 0 0 0.80475 0 0 0 0 0.1125 0 0 0 0.12 0"/>
<feBlend mode="normal" in2="BackgroundImageFix" result="effect1_dropShadow"/>
<feBlend mode="normal" in="SourceGraphic" in2="effect1_dropShadow" result="shape"/>
</filter>
<filter id="filter3_d" x="105.035" y="50.8479" width="21.5263" height="31.1335" filterUnits="userSpaceOnUse" color-interpolation-filters="sRGB">
<feFlood flood-opacity="0" result="BackgroundImageFix"/>
<feColorMatrix in="SourceAlpha" type="matrix" values="0 0 0 0 0 0 0 0 0 0 0 0 0 0 0 0 0 0 127 0"/>
<feOffset dy="1.02461"/>
<feGaussianBlur stdDeviation="0.683074"/>
<feColorMatrix type="matrix" values="0 0 0 0 0.44795 0 0 0 0 0.85 0 0 0 0 0.3825 0 0 0 0.17 0"/>
<feBlend mode="normal" in2="BackgroundImageFix" result="effect1_dropShadow"/>
<feBlend mode="normal" in="SourceGraphic" in2="effect1_dropShadow" result="shape"/>
</filter>
<filter id="filter4_d" x="50" y="88.7158" width="20.0408" height="20.0408" filterUnits="userSpaceOnUse" color-interpolation-filters="sRGB">
<feFlood flood-opacity="0" result="BackgroundImageFix"/>
<feColorMatrix in="SourceAlpha" type="matrix" values="0 0 0 0 0 0 0 0 0 0 0 0 0 0 0 0 0 0 127 0"/>
<feOffset dy="2"/>
<feGaussianBlur stdDeviation="2.5"/>
<feColorMatrix type="matrix" values="0 0 0 0 0.109219 0 0 0 0 0.491032 0 0 0 0 0.970833 0 0 0 0.26 0"/>
<feBlend mode="normal" in2="BackgroundImageFix" result="effect1_dropShadow"/>
<feBlend mode="normal" in="SourceGraphic" in2="effect1_dropShadow" result="shape"/>
</filter>
<filter id="filter5_d" x="50" y="102.267" width="20.0408" height="20.0408" filterUnits="userSpaceOnUse" color-interpolation-filters="sRGB">
<feFlood flood-opacity="0" result="BackgroundImageFix"/>
<feColorMatrix in="SourceAlpha" type="matrix" values="0 0 0 0 0 0 0 0 0 0 0 0 0 0 0 0 0 0 127 0"/>
<feOffset dy="3"/>
<feGaussianBlur stdDeviation="2.5"/>
<feColorMatrix type="matrix" values="0 0 0 0 0.44795 0 0 0 0 0.85 0 0 0 0 0.3825 0 0 0 0.3 0"/>
<feBlend mode="normal" in2="BackgroundImageFix" result="effect1_dropShadow"/>
<feBlend mode="normal" in="SourceGraphic" in2="effect1_dropShadow" result="shape"/>
</filter>
<filter id="filter6_d" x="51" y="115.818" width="18.0408" height="18.0408" filterUnits="userSpaceOnUse" color-interpolation-filters="sRGB">
<feFlood flood-opacity="0" result="BackgroundImageFix"/>
<feColorMatrix in="SourceAlpha" type="matrix" values="0 0 0 0 0 0 0 0 0 0 0 0 0 0 0 0 0 0 127 0"/>
<feOffset dy="3"/>
<feGaussianBlur stdDeviation="2"/>
<feColorMatrix type="matrix" values="0 0 0 0 1 0 0 0 0 0.80475 0 0 0 0 0.1125 0 0 0 0.15 0"/>
<feBlend mode="normal" in2="BackgroundImageFix" result="effect1_dropShadow"/>
<feBlend mode="normal" in="SourceGraphic" in2="effect1_dropShadow" result="shape"/>
</filter>
<filter id="filter7_d" x="104.36" y="85.5441" width="78.28" height="76.0655" filterUnits="userSpaceOnUse" color-interpolation-filters="sRGB">
<feFlood flood-opacity="0" result="BackgroundImageFix"/>
<feColorMatrix in="SourceAlpha" type="matrix" values="0 0 0 0 0 0 0 0 0 0 0 0 0 0 0 0 0 0 127 0"/>
<feOffset dy="2.18406"/>
<feGaussianBlur stdDeviation="4.82"/>
<feColorMatrix type="matrix" values="0 0 0 0 0.109219 0 0 0 0 0.491032 0 0 0 0 0.970833 0 0 0 0.1 0"/>
<feBlend mode="normal" in2="BackgroundImageFix" result="effect1_dropShadow"/>
<feBlend mode="normal" in="SourceGraphic" in2="effect1_dropShadow" result="shape"/>
</filter>
<filter id="filter8_d" x="129.522" y="95.3498" width="48.4072" height="48.4082" filterUnits="userSpaceOnUse" color-interpolation-filters="sRGB">
<feFlood flood-opacity="0" result="BackgroundImageFix"/>
<feColorMatrix in="SourceAlpha" type="matrix" values="0 0 0 0 0 0 0 0 0 0 0 0 0 0 0 0 0 0 127 0"/>
<feOffset dy="8.38687"/>
<feGaussianBlur stdDeviation="6.98906"/>
<feColorMatrix type="matrix" values="0 0 0 0 1 0 0 0 0 0.80475 0 0 0 0 0.1125 0 0 0 0.22 0"/>
<feBlend mode="normal" in2="BackgroundImageFix" result="effect1_dropShadow"/>
<feBlend mode="normal" in="SourceGraphic" in2="effect1_dropShadow" result="shape"/>
</filter>
<filter id="filter9_d" x="110.564" y="93.8517" width="65.8712" height="65.8719" filterUnits="userSpaceOnUse" color-interpolation-filters="sRGB">
<feFlood flood-opacity="0" result="BackgroundImageFix"/>
<feColorMatrix in="SourceAlpha" type="matrix" values="0 0 0 0 0 0 0 0 0 0 0 0 0 0 0 0 0 0 127 0"/>
<feOffset dy="5.39479"/>
<feGaussianBlur stdDeviation="6.24208"/>
<feColorMatrix type="matrix" values="0 0 0 0 0.109219 0 0 0 0 0.491032 0 0 0 0 0.970833 0 0 0 0.25 0"/>
<feBlend mode="normal" in2="BackgroundImageFix" result="effect1_dropShadow"/>
<feBlend mode="normal" in="SourceGraphic" in2="effect1_dropShadow" result="shape"/>
</filter>
<filter id="filter10_d" x="0.18351" y="0.376064" width="86.0572" height="83.6227" filterUnits="userSpaceOnUse" color-interpolation-filters="sRGB">
<feFlood flood-opacity="0" result="BackgroundImageFix"/>
<feColorMatrix in="SourceAlpha" type="matrix" values="0 0 0 0 0 0 0 0 0 0 0 0 0 0 0 0 0 0 127 0"/>
<feOffset dy="2.40105"/>
<feGaussianBlur stdDeviation="5.29887"/>
<feColorMatrix type="matrix" values="0 0 0 0 0.109219 0 0 0 0 0.491032 0 0 0 0 0.970833 0 0 0 0.1 0"/>
<feBlend mode="normal" in2="BackgroundImageFix" result="effect1_dropShadow"/>
<feBlend mode="normal" in="SourceGraphic" in2="effect1_dropShadow" result="shape"/>
</filter>
<filter id="filter11_d" x="17.86" y="25.2602" width="12.9524" height="44.7072" filterUnits="userSpaceOnUse" color-interpolation-filters="sRGB">
<feFlood flood-opacity="0" result="BackgroundImageFix"/>
<feColorMatrix in="SourceAlpha" type="matrix" values="0 0 0 0 0 0 0 0 0 0 0 0 0 0 0 0 0 0 127 0"/>
<feOffset dy="3.91489"/>
<feGaussianBlur stdDeviation="1.95745"/>
<feColorMatrix type="matrix" values="0 0 0 0 0.109219 0 0 0 0 0.491032 0 0 0 0 0.970833 0 0 0 0.15 0"/>
<feBlend mode="normal" in2="BackgroundImageFix" result="effect1_dropShadow"/>
<feBlend mode="normal" in="SourceGraphic" in2="effect1_dropShadow" result="shape"/>
</filter>
<filter id="filter12_d" x="27.298" y="39.8084" width="12.9524" height="29.1799" filterUnits="userSpaceOnUse" color-interpolation-filters="sRGB">
<feFlood flood-opacity="0" result="BackgroundImageFix"/>
<feColorMatrix in="SourceAlpha" type="matrix" values="0 0 0 0 0 0 0 0 0 0 0 0 0 0 0 0 0 0 127 0"/>
<feOffset dy="2.93617"/>
<feGaussianBlur stdDeviation="1.95745"/>
<feColorMatrix type="matrix" values="0 0 0 0 1 0 0 0 0 0.80475 0 0 0 0 0.1125 0 0 0 0.25 0"/>
<feBlend mode="normal" in2="BackgroundImageFix" result="effect1_dropShadow"/>
<feBlend mode="normal" in="SourceGraphic" in2="effect1_dropShadow" result="shape"/>
</filter>
<filter id="filter13_d" x="36.736" y="30.1123" width="12.9524" height="39.8549" filterUnits="userSpaceOnUse" color-interpolation-filters="sRGB">
<feFlood flood-opacity="0" result="BackgroundImageFix"/>
<feColorMatrix in="SourceAlpha" type="matrix" values="0 0 0 0 0 0 0 0 0 0 0 0 0 0 0 0 0 0 127 0"/>
<feOffset dy="3.91489"/>
<feGaussianBlur stdDeviation="1.95745"/>
<feColorMatrix type="matrix" values="0 0 0 0 0.109219 0 0 0 0 0.491032 0 0 0 0 0.970833 0 0 0 0.15 0"/>
<feBlend mode="normal" in2="BackgroundImageFix" result="effect1_dropShadow"/>
<feBlend mode="normal" in="SourceGraphic" in2="effect1_dropShadow" result="shape"/>
</filter>
<filter id="filter14_d" x="46.174" y="17.4881" width="12.9524" height="51.5005" filterUnits="userSpaceOnUse" color-interpolation-filters="sRGB">
<feFlood flood-opacity="0" result="BackgroundImageFix"/>
<feColorMatrix in="SourceAlpha" type="matrix" values="0 0 0 0 0 0 0 0 0 0 0 0 0 0 0 0 0 0 127 0"/>
<feOffset dy="2.93617"/>
<feGaussianBlur stdDeviation="1.95745"/>
<feColorMatrix type="matrix" values="0 0 0 0 1 0 0 0 0 0.80475 0 0 0 0 0.1125 0 0 0 0.25 0"/>
<feBlend mode="normal" in2="BackgroundImageFix" result="effect1_dropShadow"/>
<feBlend mode="normal" in="SourceGraphic" in2="effect1_dropShadow" result="shape"/>
</filter>
<filter id="filter15_d" x="55.612" y="33.9941" width="12.9524" height="35.9731" filterUnits="userSpaceOnUse" color-interpolation-filters="sRGB">
<feFlood flood-opacity="0" result="BackgroundImageFix"/>
<feColorMatrix in="SourceAlpha" type="matrix" values="0 0 0 0 0 0 0 0 0 0 0 0 0 0 0 0 0 0 127 0"/>
<feOffset dy="3.91489"/>
<feGaussianBlur stdDeviation="1.95745"/>
<feColorMatrix type="matrix" values="0 0 0 0 0.109219 0 0 0 0 0.491032 0 0 0 0 0.970833 0 0 0 0.15 0"/>
<feBlend mode="normal" in2="BackgroundImageFix" result="effect1_dropShadow"/>
<feBlend mode="normal" in="SourceGraphic" in2="effect1_dropShadow" result="shape"/>
</filter>
</defs>
</svg>
