<svg width="1583" height="851" viewBox="0 0 1583 851" fill="none" xmlns="http://www.w3.org/2000/svg">
<g filter="url(#filter0_d)">
<path d="M18 797.543C41.9311 749.581 174.733 606.829 413.939 606.829C653.145 606.829 661.759 381.301 975.716 499.034C1289.67 616.767 1198.94 -5.14137 1564.82 8.21215" stroke="#1C7DF8" stroke-opacity="0.01" stroke-width="8" stroke-linecap="round"/>
</g>
<path d="M18 797.543C41.9311 749.581 174.733 606.829 413.939 606.829C653.145 606.829 661.759 381.301 975.716 499.034C1289.67 616.767 1198.94 -5.14137 1564.82 8.21215" stroke="#1C7DF8" stroke-width="8" stroke-linecap="round"/>
<path opacity="0.4" d="M18 847.13C41.9311 799.168 174.733 656.415 413.939 656.415C653.145 656.415 699.479 428.987 1013.44 546.721C1327.39 664.454 1206.93 50.1425 1572.81 63.496" stroke="#DCE3ED" stroke-width="6" stroke-linecap="round" stroke-dasharray="20 20"/>
<defs>
<filter id="filter0_d" x="-0.00088501" y="0" width="1582.82" height="825.544" filterUnits="userSpaceOnUse" color-interpolation-filters="sRGB">
<feFlood flood-opacity="0" result="BackgroundImageFix"/>
<feColorMatrix in="SourceAlpha" type="matrix" values="0 0 0 0 0 0 0 0 0 0 0 0 0 0 0 0 0 0 127 0"/>
<feOffset dy="10"/>
<feGaussianBlur stdDeviation="7"/>
<feColorMatrix type="matrix" values="0 0 0 0 0.109219 0 0 0 0 0.491032 0 0 0 0 0.970833 0 0 0 0.13 0"/>
<feBlend mode="normal" in2="BackgroundImageFix" result="effect1_dropShadow"/>
<feBlend mode="normal" in="SourceGraphic" in2="effect1_dropShadow" result="shape"/>
</filter>
</defs>
</svg>
