<svg width="32" height="32" viewBox="0 0 32 32" fill="none" xmlns="http://www.w3.org/2000/svg">
<rect width="32" height="32" fill="#0A66C2"/>
<path d="M9 10.5964C9 10.1337 9.16251 9.75193 9.48751 9.45116C9.81251 9.15038 10.235 9 10.755 9C11.2658 9 11.679 9.14806 11.9947 9.44422C12.3197 9.74962 12.4822 10.1476 12.4822 10.6381C12.4822 11.0823 12.3243 11.4525 12.0086 11.7486C11.6836 12.054 11.2565 12.2067 10.7272 12.2067H10.7132C10.2025 12.2067 9.7893 12.054 9.47358 11.7486C9.15785 11.4432 9 11.0591 9 10.5964ZM9.18107 22.743V13.47H12.2733V22.743H9.18107ZM13.9865 22.743H17.0787V17.5651C17.0787 17.2412 17.1158 16.9913 17.1901 16.8155C17.3201 16.5008 17.5174 16.2348 17.7821 16.0173C18.0467 15.7998 18.3787 15.6911 18.778 15.6911C19.818 15.6911 20.338 16.3898 20.338 17.7872V22.743H23.4302V17.4263C23.4302 16.0566 23.1052 15.0178 22.4552 14.3098C21.8052 13.6018 20.9462 13.2479 19.8784 13.2479C18.6805 13.2479 17.7473 13.7615 17.0787 14.7887V14.8165H17.0648L17.0787 14.7887V13.47H13.9865C14.0051 13.7661 14.0144 14.6869 14.0144 16.2325C14.0144 17.778 14.0051 19.9482 13.9865 22.743Z" fill="white"/>
</svg>
