<svg width="415" height="302" viewBox="0 0 415 302" fill="none" xmlns="http://www.w3.org/2000/svg">
<g clip-path="url(#clip0)">
<path d="M415 0H0V302H415V0Z" fill="white"/>
<path d="M415.106 0H0V301.776H415.106V0Z" fill="#FFCD1D"/>
<g filter="url(#filter0_d)">
<path d="M215.538 29.3853H64.527C45.8363 29.3853 30.6846 44.537 30.6846 63.2277V238.549C30.6846 257.24 45.8363 272.391 64.527 272.391H215.538C234.229 272.391 249.381 257.24 249.381 238.549V63.2277C249.381 44.537 234.229 29.3853 215.538 29.3853Z" fill="white" fill-opacity="0.01"/>
</g>
<path d="M215.538 29.3853H64.527C45.8363 29.3853 30.6846 44.537 30.6846 63.2277V238.549C30.6846 257.24 45.8363 272.391 64.527 272.391H215.538C234.229 272.391 249.381 257.24 249.381 238.549V63.2277C249.381 44.537 234.229 29.3853 215.538 29.3853Z" fill="white"/>
<g filter="url(#filter1_d)">
<path d="M155.403 69.7434H61.4801C54.6835 69.7434 49.1738 75.2531 49.1738 82.0497V131.41C49.1738 138.206 54.6835 143.716 61.4801 143.716H155.403C162.199 143.716 167.709 138.206 167.709 131.41V82.0497C167.709 75.2531 162.199 69.7434 155.403 69.7434Z" fill="#1C7DF8" fill-opacity="0.01"/>
</g>
<path d="M155.403 69.7434H61.4801C54.6835 69.7434 49.1738 75.2531 49.1738 82.0497V131.41C49.1738 138.206 54.6835 143.716 61.4801 143.716H155.403C162.199 143.716 167.709 138.206 167.709 131.41V82.0497C167.709 75.2531 162.199 69.7434 155.403 69.7434Z" fill="#1C7DF8"/>
<g filter="url(#filter2_d)">
<path d="M56.7043 59.7773C60.8633 59.7773 64.2348 56.4058 64.2348 52.2468C64.2348 48.0878 60.8633 44.7163 56.7043 44.7163C52.5453 44.7163 49.1738 48.0878 49.1738 52.2468C49.1738 56.4058 52.5453 59.7773 56.7043 59.7773Z" fill="#F4263E" fill-opacity="0.01"/>
</g>
<path d="M56.7043 59.7773C60.8633 59.7773 64.2348 56.4058 64.2348 52.2468C64.2348 48.0878 60.8633 44.7163 56.7043 44.7163C52.5453 44.7163 49.1738 48.0878 49.1738 52.2468C49.1738 56.4058 52.5453 59.7773 56.7043 59.7773Z" fill="#F4263E"/>
<g filter="url(#filter3_d)">
<path d="M78.302 59.7773C82.461 59.7773 85.8325 56.4058 85.8325 52.2468C85.8325 48.0878 82.461 44.7163 78.302 44.7163C74.143 44.7163 70.7715 48.0878 70.7715 52.2468C70.7715 56.4058 74.143 59.7773 78.302 59.7773Z" fill="#FFCD1D" fill-opacity="0.01"/>
</g>
<path d="M78.302 59.7773C82.461 59.7773 85.8325 56.4058 85.8325 52.2468C85.8325 48.0878 82.461 44.7163 78.302 44.7163C74.143 44.7163 70.7715 48.0878 70.7715 52.2468C70.7715 56.4058 74.143 59.7773 78.302 59.7773Z" fill="#FFCD1D"/>
<g filter="url(#filter4_d)">
<path d="M99.8957 59.7773C104.055 59.7773 107.426 56.4058 107.426 52.2468C107.426 48.0878 104.055 44.7163 99.8957 44.7163C95.7367 44.7163 92.3652 48.0878 92.3652 52.2468C92.3652 56.4058 95.7367 59.7773 99.8957 59.7773Z" fill="#83E436" fill-opacity="0.01"/>
</g>
<path d="M99.8957 59.7773C104.055 59.7773 107.426 56.4058 107.426 52.2468C107.426 48.0878 104.055 44.7163 99.8957 44.7163C95.7367 44.7163 92.3652 48.0878 92.3652 52.2468C92.3652 56.4058 95.7367 59.7773 99.8957 59.7773Z" fill="#83E436"/>
<path opacity="0.7" d="M228.185 94.1467H178.299C176.789 94.1467 175.564 95.3714 175.564 96.8821C175.564 98.3929 176.789 99.6176 178.299 99.6176H228.185C229.695 99.6176 230.92 98.3929 230.92 96.8821C230.92 95.3714 229.695 94.1467 228.185 94.1467Z" fill="#778BA5"/>
<path opacity="0.6" d="M213.386 102.9H178.299C176.789 102.9 175.564 104.125 175.564 105.635C175.564 107.146 176.789 108.371 178.299 108.371H213.386C214.897 108.371 216.121 107.146 216.121 105.635C216.121 104.125 214.897 102.9 213.386 102.9Z" fill="#DCE3ED"/>
<path opacity="0.6" d="M228.185 111.653H178.299C176.789 111.653 175.564 112.878 175.564 114.388C175.564 115.899 176.789 117.124 178.299 117.124H228.185C229.695 117.124 230.92 115.899 230.92 114.388C230.92 112.878 229.695 111.653 228.185 111.653Z" fill="#DCE3ED"/>
<path opacity="0.9" d="M149.303 160.567H55.8278C53.4107 160.567 51.4512 162.526 51.4512 164.944C51.4512 167.361 53.4107 169.32 55.8278 169.32H149.303C151.72 169.32 153.679 167.361 153.679 164.944C153.679 162.526 151.72 160.567 149.303 160.567Z" fill="#778BA5"/>
<path opacity="0.6" d="M123.068 175.714H54.7337C52.9208 175.714 51.4512 177.184 51.4512 178.997C51.4512 180.809 52.9208 182.279 54.7337 182.279H123.068C124.881 182.279 126.35 180.809 126.35 178.997C126.35 177.184 124.881 175.714 123.068 175.714Z" fill="#DCE3ED"/>
<path opacity="0.6" d="M163.263 186.656H54.7337C52.9208 186.656 51.4512 188.126 51.4512 189.938C51.4512 191.751 52.9208 193.221 54.7337 193.221H163.263C165.076 193.221 166.545 191.751 166.545 189.938C166.545 188.126 165.076 186.656 163.263 186.656Z" fill="#DCE3ED"/>
<path opacity="0.6" d="M130.145 197.598H54.7337C52.9208 197.598 51.4512 199.068 51.4512 200.88C51.4512 202.693 52.9208 204.163 54.7337 204.163H130.145C131.958 204.163 133.427 202.693 133.427 200.88C133.427 199.068 131.958 197.598 130.145 197.598Z" fill="#DCE3ED"/>
<path opacity="0.6" d="M153.038 214.714H70.5442C68.7313 214.714 67.2617 216.184 67.2617 217.997C67.2617 219.809 68.7313 221.279 70.5442 221.279H153.038C154.851 221.279 156.321 219.809 156.321 217.997C156.321 216.184 154.851 214.714 153.038 214.714Z" fill="#DCE3ED"/>
<path opacity="0.6" d="M120.342 227.844H70.5442C68.7313 227.844 67.2617 229.314 67.2617 231.126C67.2617 232.939 68.7313 234.409 70.5442 234.409H120.342C122.155 234.409 123.624 232.939 123.624 231.126C123.624 229.314 122.155 227.844 120.342 227.844Z" fill="#DCE3ED"/>
<path opacity="0.6" d="M141.828 240.974H70.5442C68.7313 240.974 67.2617 242.444 67.2617 244.257C67.2617 246.069 68.7313 247.539 70.5442 247.539H141.828C143.641 247.539 145.11 246.069 145.11 244.257C145.11 242.444 143.641 240.974 141.828 240.974Z" fill="#DCE3ED"/>
<g filter="url(#filter5_d)">
<path d="M203.347 125.335H180.391C177.725 125.335 175.564 127.496 175.564 130.162C175.564 132.828 177.725 134.989 180.391 134.989H203.347C206.013 134.989 208.174 132.828 208.174 130.162C208.174 127.496 206.013 125.335 203.347 125.335Z" fill="#FFCD1D" fill-opacity="0.01"/>
</g>
<path d="M203.347 125.335H180.391C177.725 125.335 175.564 127.496 175.564 130.162C175.564 132.828 177.725 134.989 180.391 134.989H203.347C206.013 134.989 208.174 132.828 208.174 130.162C208.174 127.496 206.013 125.335 203.347 125.335Z" fill="#FFCD1D"/>
<g filter="url(#filter6_d)">
<path d="M185.232 89.0781C190.571 89.0781 194.899 84.7499 194.899 79.4108C194.899 74.0716 190.571 69.7434 185.232 69.7434C179.893 69.7434 175.565 74.0716 175.565 79.4108C175.565 84.7499 179.893 89.0781 185.232 89.0781Z" fill="#72D962" fill-opacity="0.01"/>
</g>
<path d="M185.232 89.0781C190.571 89.0781 194.899 84.7499 194.899 79.4108C194.899 74.0716 190.571 69.7434 185.232 69.7434C179.893 69.7434 175.565 74.0716 175.565 79.4108C175.565 84.7499 179.893 89.0781 185.232 89.0781Z" fill="#72D962"/>
<g filter="url(#filter7_d)">
<path d="M56.922 223.467C59.9434 223.467 62.3928 221.017 62.3928 217.996C62.3928 214.975 59.9434 212.525 56.922 212.525C53.9005 212.525 51.4512 214.975 51.4512 217.996C51.4512 221.017 53.9005 223.467 56.922 223.467Z" fill="#FFCD1D" fill-opacity="0.01"/>
</g>
<path d="M56.922 223.467C59.9434 223.467 62.3928 221.017 62.3928 217.996C62.3928 214.975 59.9434 212.525 56.922 212.525C53.9005 212.525 51.4512 214.975 51.4512 217.996C51.4512 221.017 53.9005 223.467 56.922 223.467Z" fill="#FFCD1D"/>
<g filter="url(#filter8_d)">
<path d="M56.922 236.597C59.9434 236.597 62.3928 234.148 62.3928 231.126C62.3928 228.105 59.9434 225.655 56.922 225.655C53.9005 225.655 51.4512 228.105 51.4512 231.126C51.4512 234.148 53.9005 236.597 56.922 236.597Z" fill="#FFCD1D" fill-opacity="0.01"/>
</g>
<path d="M56.922 236.597C59.9434 236.597 62.3928 234.148 62.3928 231.126C62.3928 228.105 59.9434 225.655 56.922 225.655C53.9005 225.655 51.4512 228.105 51.4512 231.126C51.4512 234.148 53.9005 236.597 56.922 236.597Z" fill="#FFCD1D"/>
<g filter="url(#filter9_d)">
<path d="M56.922 249.727C59.9434 249.727 62.3928 247.277 62.3928 244.256C62.3928 241.235 59.9434 238.785 56.922 238.785C53.9005 238.785 51.4512 241.235 51.4512 244.256C51.4512 247.277 53.9005 249.727 56.922 249.727Z" fill="#FFCD1D" fill-opacity="0.01"/>
</g>
<path d="M56.922 249.727C59.9434 249.727 62.3928 247.277 62.3928 244.256C62.3928 241.235 59.9434 238.785 56.922 238.785C53.9005 238.785 51.4512 241.235 51.4512 244.256C51.4512 247.277 53.9005 249.727 56.922 249.727Z" fill="#FFCD1D"/>
<path d="M223.261 147.875H183.223C178.993 147.875 175.564 151.304 175.564 155.534V239.88C175.564 244.11 178.993 247.539 183.223 247.539H223.261C227.491 247.539 230.92 244.11 230.92 239.88V155.534C230.92 151.304 227.491 147.875 223.261 147.875Z" fill="#DCE3ED"/>
<g filter="url(#filter10_d)">
<path d="M350.58 79.9446H237.084C218.394 79.9446 203.242 95.0963 203.242 113.787V216.099C203.242 234.79 218.394 249.942 237.084 249.942H350.58C369.27 249.942 384.422 234.79 384.422 216.099V113.787C384.422 95.0963 369.27 79.9446 350.58 79.9446Z" fill="white" fill-opacity="0.01"/>
</g>
<path d="M350.58 79.9446H237.084C218.394 79.9446 203.242 95.0963 203.242 113.787V216.099C203.242 234.79 218.394 249.942 237.084 249.942H350.58C369.27 249.942 384.422 234.79 384.422 216.099V113.787C384.422 95.0963 369.27 79.9446 350.58 79.9446Z" fill="white"/>
<g filter="url(#filter11_d)">
<path d="M236.268 203.094C236.268 198.545 232.581 194.858 228.032 194.858C223.483 194.858 219.796 198.545 219.796 203.094V211.219C219.796 215.768 223.483 219.455 228.032 219.455C232.581 219.455 236.268 215.768 236.268 211.219V203.094Z" fill="#1C7DF8" fill-opacity="0.01"/>
<path d="M262.587 181.34C262.587 176.792 258.9 173.104 254.351 173.104C249.802 173.104 246.115 176.792 246.115 181.34V211.219C246.115 215.767 249.802 219.455 254.351 219.455C258.9 219.455 262.587 215.767 262.587 211.219V181.34Z" fill="#1C7DF8" fill-opacity="0.01"/>
<path d="M288.908 158.138C288.908 153.589 285.221 149.902 280.672 149.902C276.123 149.902 272.436 153.589 272.436 158.138V211.219C272.436 215.767 276.123 219.455 280.672 219.455C285.221 219.455 288.908 215.767 288.908 211.219V158.138Z" fill="#1C7DF8" fill-opacity="0.01"/>
<path d="M315.227 144.054C315.227 139.505 311.54 135.818 306.991 135.818C302.442 135.818 298.755 139.505 298.755 144.054V211.219C298.755 215.767 302.442 219.455 306.991 219.455C311.54 219.455 315.227 215.767 315.227 211.219V144.054Z" fill="#1C7DF8" fill-opacity="0.01"/>
<path d="M341.547 133.461C341.547 128.912 337.86 125.225 333.311 125.225C328.762 125.225 325.075 128.912 325.075 133.461V211.219C325.075 215.767 328.762 219.455 333.311 219.455C337.86 219.455 341.547 215.767 341.547 211.219V133.461Z" fill="#1C7DF8" fill-opacity="0.01"/>
<path d="M367.867 118.668C367.867 114.119 364.18 110.432 359.631 110.432C355.082 110.432 351.395 114.119 351.395 118.668V211.22C351.395 215.768 355.082 219.456 359.631 219.456C364.18 219.456 367.867 215.768 367.867 211.22V118.668Z" fill="#1C7DF8" fill-opacity="0.01"/>
</g>
<path d="M236.268 203.094C236.268 198.545 232.581 194.858 228.032 194.858C223.483 194.858 219.796 198.545 219.796 203.094V211.219C219.796 215.768 223.483 219.455 228.032 219.455C232.581 219.455 236.268 215.768 236.268 211.219V203.094Z" fill="#1C7DF8"/>
<path d="M262.587 181.34C262.587 176.792 258.9 173.104 254.351 173.104C249.802 173.104 246.115 176.792 246.115 181.34V211.219C246.115 215.767 249.802 219.455 254.351 219.455C258.9 219.455 262.587 215.767 262.587 211.219V181.34Z" fill="#1C7DF8"/>
<path d="M288.908 158.138C288.908 153.589 285.221 149.902 280.672 149.902C276.123 149.902 272.436 153.589 272.436 158.138V211.219C272.436 215.767 276.123 219.455 280.672 219.455C285.221 219.455 288.908 215.767 288.908 211.219V158.138Z" fill="#1C7DF8"/>
<path d="M315.227 144.054C315.227 139.505 311.54 135.818 306.991 135.818C302.442 135.818 298.755 139.505 298.755 144.054V211.219C298.755 215.767 302.442 219.455 306.991 219.455C311.54 219.455 315.227 215.767 315.227 211.219V144.054Z" fill="#1C7DF8"/>
<path d="M341.547 133.461C341.547 128.912 337.86 125.225 333.311 125.225C328.762 125.225 325.075 128.912 325.075 133.461V211.219C325.075 215.767 328.762 219.455 333.311 219.455C337.86 219.455 341.547 215.767 341.547 211.219V133.461Z" fill="#1C7DF8"/>
<path d="M367.867 118.668C367.867 114.119 364.18 110.432 359.631 110.432C355.082 110.432 351.395 114.119 351.395 118.668V211.22C351.395 215.768 355.082 219.456 359.631 219.456C364.18 219.456 367.867 215.768 367.867 211.22V118.668Z" fill="#1C7DF8"/>
</g>
<defs>
<filter id="filter0_d" x="-9.81043" y="-5.03145" width="299.686" height="323.996" filterUnits="userSpaceOnUse" color-interpolation-filters="sRGB">
<feFlood flood-opacity="0" result="BackgroundImageFix"/>
<feColorMatrix in="SourceAlpha" type="matrix" values="0 0 0 0 0 0 0 0 0 0 0 0 0 0 0 0 0 0 127 0"/>
<feOffset dy="6.0783"/>
<feGaussianBlur stdDeviation="20.2475"/>
<feColorMatrix type="matrix" values="0 0 0 0 0.629167 0 0 0 0 0.314426 0 0 0 0 0.0865104 0 0 0 0.21 0"/>
<feBlend mode="normal" in2="BackgroundImageFix" result="effect1_dropShadow"/>
<feBlend mode="normal" in="SourceGraphic" in2="effect1_dropShadow" result="shape"/>
</filter>
<filter id="filter1_d" x="38.4058" y="63.5902" width="140.071" height="95.5085" filterUnits="userSpaceOnUse" color-interpolation-filters="sRGB">
<feFlood flood-opacity="0" result="BackgroundImageFix"/>
<feColorMatrix in="SourceAlpha" type="matrix" values="0 0 0 0 0 0 0 0 0 0 0 0 0 0 0 0 0 0 127 0"/>
<feOffset dy="4.61488"/>
<feGaussianBlur stdDeviation="5.38402"/>
<feColorMatrix type="matrix" values="0 0 0 0 0.109219 0 0 0 0 0.491032 0 0 0 0 0.970833 0 0 0 0.16 0"/>
<feBlend mode="normal" in2="BackgroundImageFix" result="effect1_dropShadow"/>
<feBlend mode="normal" in="SourceGraphic" in2="effect1_dropShadow" result="shape"/>
</filter>
<filter id="filter2_d" x="45.5726" y="44.7163" width="22.2634" height="22.2634" filterUnits="userSpaceOnUse" color-interpolation-filters="sRGB">
<feFlood flood-opacity="0" result="BackgroundImageFix"/>
<feColorMatrix in="SourceAlpha" type="matrix" values="0 0 0 0 0 0 0 0 0 0 0 0 0 0 0 0 0 0 127 0"/>
<feOffset dy="3.60121"/>
<feGaussianBlur stdDeviation="1.8006"/>
<feColorMatrix type="matrix" values="0 0 0 0 0.956863 0 0 0 0 0.14902 0 0 0 0 0.243137 0 0 0 0.12 0"/>
<feBlend mode="normal" in2="BackgroundImageFix" result="effect1_dropShadow"/>
<feBlend mode="normal" in="SourceGraphic" in2="effect1_dropShadow" result="shape"/>
</filter>
<filter id="filter3_d" x="67.1703" y="44.7163" width="22.2634" height="22.2634" filterUnits="userSpaceOnUse" color-interpolation-filters="sRGB">
<feFlood flood-opacity="0" result="BackgroundImageFix"/>
<feColorMatrix in="SourceAlpha" type="matrix" values="0 0 0 0 0 0 0 0 0 0 0 0 0 0 0 0 0 0 127 0"/>
<feOffset dy="3.60121"/>
<feGaussianBlur stdDeviation="1.8006"/>
<feColorMatrix type="matrix" values="0 0 0 0 1 0 0 0 0 0.80475 0 0 0 0 0.1125 0 0 0 0.25 0"/>
<feBlend mode="normal" in2="BackgroundImageFix" result="effect1_dropShadow"/>
<feBlend mode="normal" in="SourceGraphic" in2="effect1_dropShadow" result="shape"/>
</filter>
<filter id="filter4_d" x="88.764" y="44.7163" width="22.2634" height="22.2634" filterUnits="userSpaceOnUse" color-interpolation-filters="sRGB">
<feFlood flood-opacity="0" result="BackgroundImageFix"/>
<feColorMatrix in="SourceAlpha" type="matrix" values="0 0 0 0 0 0 0 0 0 0 0 0 0 0 0 0 0 0 127 0"/>
<feOffset dy="3.60121"/>
<feGaussianBlur stdDeviation="1.8006"/>
<feColorMatrix type="matrix" values="0 0 0 0 0.513726 0 0 0 0 0.894118 0 0 0 0 0.211765 0 0 0 0.25 0"/>
<feBlend mode="normal" in2="BackgroundImageFix" result="effect1_dropShadow"/>
<feBlend mode="normal" in="SourceGraphic" in2="effect1_dropShadow" result="shape"/>
</filter>
<filter id="filter5_d" x="166.334" y="120.72" width="51.0695" height="28.1131" filterUnits="userSpaceOnUse" color-interpolation-filters="sRGB">
<feFlood flood-opacity="0" result="BackgroundImageFix"/>
<feColorMatrix in="SourceAlpha" type="matrix" values="0 0 0 0 0 0 0 0 0 0 0 0 0 0 0 0 0 0 127 0"/>
<feOffset dy="4.61488"/>
<feGaussianBlur stdDeviation="4.61488"/>
<feColorMatrix type="matrix" values="0 0 0 0 1 0 0 0 0 0.80475 0 0 0 0 0.1125 0 0 0 0.37 0"/>
<feBlend mode="normal" in2="BackgroundImageFix" result="effect1_dropShadow"/>
<feBlend mode="normal" in="SourceGraphic" in2="effect1_dropShadow" result="shape"/>
</filter>
<filter id="filter6_d" x="170.094" y="66.4609" width="30.2764" height="30.2764" filterUnits="userSpaceOnUse" color-interpolation-filters="sRGB">
<feFlood flood-opacity="0" result="BackgroundImageFix"/>
<feColorMatrix in="SourceAlpha" type="matrix" values="0 0 0 0 0 0 0 0 0 0 0 0 0 0 0 0 0 0 127 0"/>
<feOffset dy="2.18833"/>
<feGaussianBlur stdDeviation="2.73541"/>
<feColorMatrix type="matrix" values="0 0 0 0 0.44795 0 0 0 0 0.85 0 0 0 0 0.3825 0 0 0 0.25 0"/>
<feBlend mode="normal" in2="BackgroundImageFix" result="effect1_dropShadow"/>
<feBlend mode="normal" in="SourceGraphic" in2="effect1_dropShadow" result="shape"/>
</filter>
<filter id="filter7_d" x="45.9804" y="209.243" width="21.8833" height="21.8833" filterUnits="userSpaceOnUse" color-interpolation-filters="sRGB">
<feFlood flood-opacity="0" result="BackgroundImageFix"/>
<feColorMatrix in="SourceAlpha" type="matrix" values="0 0 0 0 0 0 0 0 0 0 0 0 0 0 0 0 0 0 127 0"/>
<feOffset dy="2.18833"/>
<feGaussianBlur stdDeviation="2.73541"/>
<feColorMatrix type="matrix" values="0 0 0 0 1 0 0 0 0 0.80475 0 0 0 0 0.1125 0 0 0 0.24 0"/>
<feBlend mode="normal" in2="BackgroundImageFix" result="effect1_dropShadow"/>
<feBlend mode="normal" in="SourceGraphic" in2="effect1_dropShadow" result="shape"/>
</filter>
<filter id="filter8_d" x="45.9804" y="222.373" width="21.8833" height="21.8833" filterUnits="userSpaceOnUse" color-interpolation-filters="sRGB">
<feFlood flood-opacity="0" result="BackgroundImageFix"/>
<feColorMatrix in="SourceAlpha" type="matrix" values="0 0 0 0 0 0 0 0 0 0 0 0 0 0 0 0 0 0 127 0"/>
<feOffset dy="2.18833"/>
<feGaussianBlur stdDeviation="2.73541"/>
<feColorMatrix type="matrix" values="0 0 0 0 1 0 0 0 0 0.80475 0 0 0 0 0.1125 0 0 0 0.24 0"/>
<feBlend mode="normal" in2="BackgroundImageFix" result="effect1_dropShadow"/>
<feBlend mode="normal" in="SourceGraphic" in2="effect1_dropShadow" result="shape"/>
</filter>
<filter id="filter9_d" x="45.9804" y="235.503" width="21.8833" height="21.8833" filterUnits="userSpaceOnUse" color-interpolation-filters="sRGB">
<feFlood flood-opacity="0" result="BackgroundImageFix"/>
<feColorMatrix in="SourceAlpha" type="matrix" values="0 0 0 0 0 0 0 0 0 0 0 0 0 0 0 0 0 0 127 0"/>
<feOffset dy="2.18833"/>
<feGaussianBlur stdDeviation="2.73541"/>
<feColorMatrix type="matrix" values="0 0 0 0 1 0 0 0 0 0.80475 0 0 0 0 0.1125 0 0 0 0.24 0"/>
<feBlend mode="normal" in2="BackgroundImageFix" result="effect1_dropShadow"/>
<feBlend mode="normal" in="SourceGraphic" in2="effect1_dropShadow" result="shape"/>
</filter>
<filter id="filter10_d" x="162.747" y="45.5279" width="262.17" height="250.987" filterUnits="userSpaceOnUse" color-interpolation-filters="sRGB">
<feFlood flood-opacity="0" result="BackgroundImageFix"/>
<feColorMatrix in="SourceAlpha" type="matrix" values="0 0 0 0 0 0 0 0 0 0 0 0 0 0 0 0 0 0 127 0"/>
<feOffset dy="6.0783"/>
<feGaussianBlur stdDeviation="20.2475"/>
<feColorMatrix type="matrix" values="0 0 0 0 0.629167 0 0 0 0 0.314426 0 0 0 0 0.0865104 0 0 0 0.21 0"/>
<feBlend mode="normal" in2="BackgroundImageFix" result="effect1_dropShadow"/>
<feBlend mode="normal" in="SourceGraphic" in2="effect1_dropShadow" result="shape"/>
</filter>
<filter id="filter11_d" x="214.325" y="110.432" width="159.013" height="119.966" filterUnits="userSpaceOnUse" color-interpolation-filters="sRGB">
<feFlood flood-opacity="0" result="BackgroundImageFix"/>
<feColorMatrix in="SourceAlpha" type="matrix" values="0 0 0 0 0 0 0 0 0 0 0 0 0 0 0 0 0 0 127 0"/>
<feOffset dy="5.47082"/>
<feGaussianBlur stdDeviation="2.73541"/>
<feColorMatrix type="matrix" values="0 0 0 0 0.109219 0 0 0 0 0.491032 0 0 0 0 0.970833 0 0 0 0.14 0"/>
<feBlend mode="normal" in2="BackgroundImageFix" result="effect1_dropShadow"/>
<feBlend mode="normal" in="SourceGraphic" in2="effect1_dropShadow" result="shape"/>
</filter>
<clipPath id="clip0">
<rect width="415" height="302" fill="white"/>
</clipPath>
</defs>
</svg>
