<svg width="1710" height="787" viewBox="0 0 1710 787" fill="none" xmlns="http://www.w3.org/2000/svg">
<g filter="url(#filter0_d)">
<path d="M18 758.389C41.9311 710.428 123.406 574.748 362.612 574.748C601.817 574.748 847 628.505 1097 560.5C1347 492.495 1215.59 -4.11403 1581.48 9.23949" stroke="#1C7DF8" stroke-opacity="0.01" stroke-width="8" stroke-linecap="round"/>
</g>
<path d="M18 758.389C41.9311 710.428 123.406 574.748 362.612 574.748C601.817 574.748 847 628.505 1097 560.5C1347 492.495 1215.59 -4.11403 1581.48 9.23949" stroke="#1C7DF8" stroke-width="8" stroke-linecap="round"/>
<path opacity="0.4" d="M56.6465 783.349C92.0984 709.632 170.85 636.659 410.056 636.659C649.262 636.659 884.5 691.159 1115.5 636.659C1346.5 582.159 1375.83 202.865 1429.25 134.762C1482.66 66.6597 1569.46 25.2636 1707 89.3601" stroke="#DCE3ED" stroke-width="6" stroke-linecap="round" stroke-dasharray="20 20"/>
<defs>
<filter id="filter0_d" x="-0.000976562" y="0.975342" width="1599.48" height="785.415" filterUnits="userSpaceOnUse" color-interpolation-filters="sRGB">
<feFlood flood-opacity="0" result="BackgroundImageFix"/>
<feColorMatrix in="SourceAlpha" type="matrix" values="0 0 0 0 0 0 0 0 0 0 0 0 0 0 0 0 0 0 127 0"/>
<feOffset dy="10"/>
<feGaussianBlur stdDeviation="7"/>
<feColorMatrix type="matrix" values="0 0 0 0 0.109219 0 0 0 0 0.491032 0 0 0 0 0.970833 0 0 0 0.13 0"/>
<feBlend mode="normal" in2="BackgroundImageFix" result="effect1_dropShadow"/>
<feBlend mode="normal" in="SourceGraphic" in2="effect1_dropShadow" result="shape"/>
</filter>
</defs>
</svg>
