<svg width="52" height="58" viewBox="0 0 52 58" fill="none" xmlns="http://www.w3.org/2000/svg">
<g filter="url(#filter0_dd)">
<path d="M36.2848 6H15.8208C12.838 6 10.4199 8.41806 10.4199 11.4009V38.5991C10.4199 41.5819 12.838 44 15.8208 44H36.2848C39.2677 44 41.6857 41.5819 41.6857 38.5991V11.4009C41.6857 8.41806 39.2677 6 36.2848 6Z" fill="white" fill-opacity="0.01"/>
</g>
<path d="M36.2848 6H15.8208C12.838 6 10.4199 8.41806 10.4199 11.4009V38.5991C10.4199 41.5819 12.838 44 15.8208 44H36.2848C39.2677 44 41.6857 41.5819 41.6857 38.5991V11.4009C41.6857 8.41806 39.2677 6 36.2848 6Z" fill="white"/>
<path d="M36.0492 9.8501H16.0553C15.3096 9.8501 14.7051 10.4546 14.7051 11.2003V18.247C14.7051 18.9927 15.3096 19.5972 16.0553 19.5972H36.0492C36.7949 19.5972 37.3994 18.9927 37.3994 18.247V11.2003C37.3994 10.4546 36.7949 9.8501 36.0492 9.8501Z" fill="#EFF2F7"/>
<path d="M23.6352 21.3696H16.0553C15.3096 21.3696 14.7051 21.9741 14.7051 22.7198V33.6063C14.7051 34.352 15.3096 34.9565 16.0553 34.9565H23.6352C24.3809 34.9565 24.9854 34.352 24.9854 33.6063V22.7198C24.9854 21.9741 24.3809 21.3696 23.6352 21.3696Z" fill="#EFF2F7"/>
<path d="M29.8422 37.4072H22.2623C21.5166 37.4072 20.9121 38.0117 20.9121 38.7574V38.799C20.9121 39.5447 21.5166 40.1492 22.2623 40.1492H29.8422C30.5879 40.1492 31.1924 39.5447 31.1924 38.799V38.7574C31.1924 38.0117 30.5879 37.4072 29.8422 37.4072Z" fill="#EFF2F7"/>
<path d="M36.0492 21.3696H28.4693C27.7236 21.3696 27.1191 21.9741 27.1191 22.7198V33.6063C27.1191 34.352 27.7236 34.9565 28.4693 34.9565H36.0492C36.7949 34.9565 37.3994 34.352 37.3994 33.6063V22.7198C37.3994 21.9741 36.7949 21.3696 36.0492 21.3696Z" fill="#EFF2F7"/>
<g filter="url(#filter1_d)">
<path d="M8.0042 36.7506C8.64397 36.7519 9.25998 36.5084 9.72591 36.07L20.7856 25.6962C20.9439 25.5464 21.1544 25.4644 21.3723 25.4677C21.5902 25.4709 21.7982 25.5592 21.952 25.7136L25.6722 29.4356C26.7914 30.5041 28.2793 31.1003 29.8267 31.1003C31.3742 31.1003 32.8621 30.5041 33.9813 29.4356L40.2084 23.2085C40.2472 23.1695 40.2933 23.1386 40.3441 23.1176C40.3949 23.0965 40.4493 23.0856 40.5043 23.0856C40.5593 23.0856 40.6138 23.0965 40.6645 23.1176C40.7153 23.1386 40.7614 23.1695 40.8003 23.2085L43.7493 26.1471C44.0642 26.4605 44.4905 26.6364 44.9348 26.6362C45.3799 26.6358 45.8067 26.4589 46.1216 26.1443C46.4365 25.8297 46.6138 25.4032 46.6147 24.9581V14.9272C46.6143 14.482 46.4371 14.0551 46.1221 13.7405C45.8071 13.4258 45.38 13.249 44.9348 13.249H34.8639C34.5305 13.2477 34.2043 13.3458 33.9269 13.5306C33.6495 13.7155 33.4334 13.9788 33.3062 14.287C33.179 14.5951 33.1465 14.9342 33.2128 15.2609C33.279 15.5877 33.4412 15.8872 33.6784 16.1215L36.6379 19.0809C36.7167 19.1599 36.7612 19.267 36.7615 19.3786C36.7617 19.4337 36.7508 19.4883 36.7296 19.5391C36.7084 19.5899 36.6772 19.636 36.6379 19.6746L30.4195 25.8946C30.2615 26.0509 30.0481 26.1386 29.8259 26.1386C29.6036 26.1386 29.3903 26.0509 29.2322 25.8946L25.5103 22.1727C24.4369 21.0885 22.9824 20.4668 21.457 20.4401C19.9316 20.4134 18.4562 20.984 17.3457 22.0299L6.28249 32.395C5.91568 32.7407 5.66103 33.1885 5.55145 33.6805C5.44188 34.1725 5.48242 34.6861 5.66784 35.1548C5.85326 35.6235 6.17503 36.0258 6.59154 36.3097C7.00805 36.5936 7.50015 36.746 8.0042 36.7472V36.7506Z" fill="#72D962" fill-opacity="0.01"/>
</g>
<path d="M8.0042 36.7506C8.64397 36.7519 9.25998 36.5084 9.72591 36.07L20.7856 25.6962C20.9439 25.5464 21.1544 25.4644 21.3723 25.4677C21.5902 25.4709 21.7982 25.5592 21.952 25.7136L25.6722 29.4356C26.7914 30.5041 28.2793 31.1003 29.8267 31.1003C31.3742 31.1003 32.8621 30.5041 33.9813 29.4356L40.2084 23.2085C40.2472 23.1695 40.2933 23.1386 40.3441 23.1176C40.3949 23.0965 40.4493 23.0856 40.5043 23.0856C40.5593 23.0856 40.6138 23.0965 40.6645 23.1176C40.7153 23.1386 40.7614 23.1695 40.8003 23.2085L43.7493 26.1471C44.0642 26.4605 44.4905 26.6364 44.9348 26.6362C45.3799 26.6358 45.8067 26.4589 46.1216 26.1443C46.4365 25.8297 46.6138 25.4032 46.6147 24.9581V14.9272C46.6143 14.482 46.4371 14.0551 46.1221 13.7405C45.8071 13.4258 45.38 13.249 44.9348 13.249H34.8639C34.5305 13.2477 34.2043 13.3458 33.9269 13.5306C33.6495 13.7155 33.4334 13.9788 33.3062 14.287C33.179 14.5951 33.1465 14.9342 33.2128 15.2609C33.279 15.5877 33.4412 15.8872 33.6784 16.1215L36.6379 19.0809C36.7167 19.1599 36.7612 19.267 36.7615 19.3786C36.7617 19.4337 36.7508 19.4883 36.7296 19.5391C36.7084 19.5899 36.6772 19.636 36.6379 19.6746L30.4195 25.8946C30.2615 26.0509 30.0481 26.1386 29.8259 26.1386C29.6036 26.1386 29.3903 26.0509 29.2322 25.8946L25.5103 22.1727C24.4369 21.0885 22.9824 20.4668 21.457 20.4401C19.9316 20.4134 18.4562 20.984 17.3457 22.0299L6.28249 32.395C5.91568 32.7407 5.66103 33.1885 5.55145 33.6805C5.44188 34.1725 5.48242 34.6861 5.66784 35.1548C5.85326 35.6235 6.17503 36.0258 6.59154 36.3097C7.00805 36.5936 7.50015 36.746 8.0042 36.7472V36.7506Z" fill="#72D962"/>
<defs>
<filter id="filter0_dd" x="0.968362" y="0.5991" width="50.1689" height="56.9031" filterUnits="userSpaceOnUse" color-interpolation-filters="sRGB">
<feFlood flood-opacity="0" result="BackgroundImageFix"/>
<feColorMatrix in="SourceAlpha" type="matrix" values="0 0 0 0 0 0 0 0 0 0 0 0 0 0 0 0 0 0 127 0"/>
<feOffset dy="4.05066"/>
<feGaussianBlur stdDeviation="4.72578"/>
<feColorMatrix type="matrix" values="0 0 0 0 0.44795 0 0 0 0 0.85 0 0 0 0 0.3825 0 0 0 0.22 0"/>
<feBlend mode="normal" in2="BackgroundImageFix" result="effect1_dropShadow"/>
<feColorMatrix in="SourceAlpha" type="matrix" values="0 0 0 0 0 0 0 0 0 0 0 0 0 0 0 0 0 0 127 0"/>
<feOffset/>
<feGaussianBlur stdDeviation="1.35022"/>
<feColorMatrix type="matrix" values="0 0 0 0 0.0976562 0 0 0 0 0.192861 0 0 0 0 0.3125 0 0 0 0.07 0"/>
<feBlend mode="normal" in2="effect1_dropShadow" result="effect2_dropShadow"/>
<feBlend mode="normal" in="SourceGraphic" in2="effect2_dropShadow" result="shape"/>
</filter>
<filter id="filter1_d" x="1.44055" y="11.8988" width="49.2248" height="31.6029" filterUnits="userSpaceOnUse" color-interpolation-filters="sRGB">
<feFlood flood-opacity="0" result="BackgroundImageFix"/>
<feColorMatrix in="SourceAlpha" type="matrix" values="0 0 0 0 0 0 0 0 0 0 0 0 0 0 0 0 0 0 127 0"/>
<feOffset dy="2.70044"/>
<feGaussianBlur stdDeviation="2.02533"/>
<feColorMatrix type="matrix" values="0 0 0 0 0.44795 0 0 0 0 0.85 0 0 0 0 0.3825 0 0 0 0.38 0"/>
<feBlend mode="normal" in2="BackgroundImageFix" result="effect1_dropShadow"/>
<feBlend mode="normal" in="SourceGraphic" in2="effect1_dropShadow" result="shape"/>
</filter>
</defs>
</svg>
