<svg width="100" height="124" viewBox="0 0 100 124" fill="none" xmlns="http://www.w3.org/2000/svg">
<g clip-path="url(#clip0)">
<g filter="url(#filter0_d)">
<path d="M72.59 13.5H27.41C21.6607 13.5 17 18.1607 17 23.91V92.09C17 97.8393 21.6607 102.5 27.41 102.5H72.59C78.3393 102.5 83 97.8393 83 92.09V23.91C83 18.1607 78.3393 13.5 72.59 13.5Z" fill="white" fill-opacity="0.01"/>
</g>
<path d="M72.59 13.5H27.41C21.6607 13.5 17 18.1607 17 23.91V92.09C17 97.8393 21.6607 102.5 27.41 102.5H72.59C78.3393 102.5 83 97.8393 83 92.09V23.91C83 18.1607 78.3393 13.5 72.59 13.5Z" fill="white"/>
<path d="M73.5 47.5H24.5C23.6716 47.5 23 48.1716 23 49C23 49.8284 23.6716 50.5 24.5 50.5H73.5C74.3284 50.5 75 49.8284 75 49C75 48.1716 74.3284 47.5 73.5 47.5Z" fill="#DCE3ED"/>
<path d="M65.5 54.5H24.5C23.6716 54.5 23 55.1716 23 56C23 56.8284 23.6716 57.5 24.5 57.5H65.5C66.3284 57.5 67 56.8284 67 56C67 55.1716 66.3284 54.5 65.5 54.5Z" fill="#DCE3ED"/>
<path d="M73.5 61.5H24.5C23.6716 61.5 23 62.1716 23 63C23 63.8284 23.6716 64.5 24.5 64.5H73.5C74.3284 64.5 75 63.8284 75 63C75 62.1716 74.3284 61.5 73.5 61.5Z" fill="#DCE3ED"/>
<path d="M62.2163 69.3994H34.0254C33.197 69.3994 32.5254 70.071 32.5254 70.8994C32.5254 71.7278 33.197 72.3994 34.0254 72.3994H62.2163C63.0447 72.3994 63.7163 71.7278 63.7163 70.8994C63.7163 70.071 63.0447 69.3994 62.2163 69.3994Z" fill="#DCE3ED"/>
<path d="M68.1427 78.9502H34.0254C33.197 78.9502 32.5254 79.6218 32.5254 80.4502C32.5254 81.2786 33.197 81.9502 34.0254 81.9502H68.1427C68.9711 81.9502 69.6427 81.2786 69.6427 80.4502C69.6427 79.6218 68.9711 78.9502 68.1427 78.9502Z" fill="#DCE3ED"/>
<path d="M53.165 88.5H34.0254C33.197 88.5 32.5254 89.1716 32.5254 90C32.5254 90.8284 33.197 91.5 34.0254 91.5H53.165C53.9934 91.5 54.665 90.8284 54.665 90C54.665 89.1716 53.9934 88.5 53.165 88.5Z" fill="#DCE3ED"/>
<g filter="url(#filter1_d)">
<path d="M34 41.5C40.0751 41.5 45 36.5751 45 30.5C45 24.4249 40.0751 19.5 34 19.5C27.9249 19.5 23 24.4249 23 30.5C23 36.5751 27.9249 41.5 34 41.5Z" fill="#1C7DF8" fill-opacity="0.01"/>
</g>
<path d="M34 41.5C40.0751 41.5 45 36.5751 45 30.5C45 24.4249 40.0751 19.5 34 19.5C27.9249 19.5 23 24.4249 23 30.5C23 36.5751 27.9249 41.5 34 41.5Z" fill="#1C7DF8"/>
<path d="M37.1099 27.51C37.1099 25.8319 35.7498 24.4717 34.0716 24.4717C32.3934 24.4717 31.0332 25.8319 31.0332 27.51C31.0332 27.5956 31.0332 27.9309 31.0332 28.0164C31.0332 29.6946 32.3934 31.0548 34.0716 31.0548C35.7498 31.0548 37.1099 29.6946 37.1099 28.0164C37.1099 27.9309 37.1099 27.5956 37.1099 27.51Z" fill="white"/>
<path d="M40.0731 34.8792C39.2279 33.7891 36.2894 32.5596 34.0001 32.5596C31.7108 32.5596 28.7734 33.7886 27.9282 34.8792C27.4059 35.5535 27.9036 36.5296 28.7603 36.5296H39.2411C40.0977 36.5296 40.5955 35.5535 40.0731 34.8792Z" fill="white"/>
<path d="M72.5 23.5H52.5C51.1193 23.5 50 24.6193 50 26C50 27.3807 51.1193 28.5 52.5 28.5H72.5C73.8807 28.5 75 27.3807 75 26C75 24.6193 73.8807 23.5 72.5 23.5Z" fill="#B4C2D6"/>
<path d="M62.5 31.5H52.5C51.1193 31.5 50 32.6193 50 34C50 35.3807 51.1193 36.5 52.5 36.5H62.5C63.8807 36.5 65 35.3807 65 34C65 32.6193 63.8807 31.5 62.5 31.5Z" fill="#DCE3ED"/>
<g filter="url(#filter2_d)">
<path d="M26.5808 74.4805C28.5584 74.4805 30.1616 72.8773 30.1616 70.8997C30.1616 68.9221 28.5584 67.3189 26.5808 67.3189C24.6032 67.3189 23 68.9221 23 70.8997C23 72.8773 24.6032 74.4805 26.5808 74.4805Z" fill="#1C7DF8" fill-opacity="0.01"/>
</g>
<path d="M26.5808 74.4804C28.5584 74.4804 30.1616 72.8773 30.1616 70.8996C30.1616 68.922 28.5584 67.3188 26.5808 67.3188C24.6032 67.3188 23 68.922 23 70.8996C23 72.8773 24.6032 74.4804 26.5808 74.4804Z" fill="#1C7DF8"/>
<g filter="url(#filter3_d)">
<path d="M26.5808 84.0307C28.5584 84.0307 30.1616 82.4275 30.1616 80.4499C30.1616 78.4723 28.5584 76.8691 26.5808 76.8691C24.6032 76.8691 23 78.4723 23 80.4499C23 82.4275 24.6032 84.0307 26.5808 84.0307Z" fill="#FFCD1D" fill-opacity="0.01"/>
</g>
<path d="M26.5808 84.0307C28.5584 84.0307 30.1616 82.4276 30.1616 80.4499C30.1616 78.4723 28.5584 76.8691 26.5808 76.8691C24.6032 76.8691 23 78.4723 23 80.4499C23 82.4276 24.6032 84.0307 26.5808 84.0307Z" fill="#FFCD1D"/>
<g filter="url(#filter4_d)">
<path d="M26.5808 93.581C28.5584 93.581 30.1616 91.9778 30.1616 90.0002C30.1616 88.0226 28.5584 86.4194 26.5808 86.4194C24.6032 86.4194 23 88.0226 23 90.0002C23 91.9778 24.6032 93.581 26.5808 93.581Z" fill="#72D962" fill-opacity="0.01"/>
</g>
<path d="M26.5808 93.581C28.5584 93.581 30.1616 91.9778 30.1616 90.0002C30.1616 88.0226 28.5584 86.4194 26.5808 86.4194C24.6032 86.4194 23 88.0226 23 90.0002C23 91.9778 24.6032 93.581 26.5808 93.581Z" fill="#72D962"/>
</g>
<defs>
<filter id="filter0_d" x="0.532021" y="1.14901" width="98.936" height="121.936" filterUnits="userSpaceOnUse" color-interpolation-filters="sRGB">
<feFlood flood-opacity="0" result="BackgroundImageFix"/>
<feColorMatrix in="SourceAlpha" type="matrix" values="0 0 0 0 0 0 0 0 0 0 0 0 0 0 0 0 0 0 127 0"/>
<feOffset dy="4.11699"/>
<feGaussianBlur stdDeviation="8.23399"/>
<feColorMatrix type="matrix" values="0 0 0 0 0.109219 0 0 0 0 0.491032 0 0 0 0 0.970833 0 0 0 0.19 0"/>
<feBlend mode="normal" in2="BackgroundImageFix" result="effect1_dropShadow"/>
<feBlend mode="normal" in="SourceGraphic" in2="effect1_dropShadow" result="shape"/>
</filter>
<filter id="filter1_d" x="14.2929" y="18.2561" width="39.4142" height="39.4142" filterUnits="userSpaceOnUse" color-interpolation-filters="sRGB">
<feFlood flood-opacity="0" result="BackgroundImageFix"/>
<feColorMatrix in="SourceAlpha" type="matrix" values="0 0 0 0 0 0 0 0 0 0 0 0 0 0 0 0 0 0 127 0"/>
<feOffset dy="7.4632"/>
<feGaussianBlur stdDeviation="4.35354"/>
<feColorMatrix type="matrix" values="0 0 0 0 0.109219 0 0 0 0 0.491032 0 0 0 0 0.970833 0 0 0 0.1 0"/>
<feBlend mode="normal" in2="BackgroundImageFix" result="effect1_dropShadow"/>
<feBlend mode="normal" in="SourceGraphic" in2="effect1_dropShadow" result="shape"/>
</filter>
<filter id="filter2_d" x="20" y="65.3189" width="13.1616" height="13.1616" filterUnits="userSpaceOnUse" color-interpolation-filters="sRGB">
<feFlood flood-opacity="0" result="BackgroundImageFix"/>
<feColorMatrix in="SourceAlpha" type="matrix" values="0 0 0 0 0 0 0 0 0 0 0 0 0 0 0 0 0 0 127 0"/>
<feOffset dy="1"/>
<feGaussianBlur stdDeviation="1.5"/>
<feColorMatrix type="matrix" values="0 0 0 0 0.109219 0 0 0 0 0.491032 0 0 0 0 0.970833 0 0 0 0.23 0"/>
<feBlend mode="normal" in2="BackgroundImageFix" result="effect1_dropShadow"/>
<feBlend mode="normal" in="SourceGraphic" in2="effect1_dropShadow" result="shape"/>
</filter>
<filter id="filter3_d" x="20" y="75.8691" width="13.1616" height="13.1616" filterUnits="userSpaceOnUse" color-interpolation-filters="sRGB">
<feFlood flood-opacity="0" result="BackgroundImageFix"/>
<feColorMatrix in="SourceAlpha" type="matrix" values="0 0 0 0 0 0 0 0 0 0 0 0 0 0 0 0 0 0 127 0"/>
<feOffset dy="2"/>
<feGaussianBlur stdDeviation="1.5"/>
<feColorMatrix type="matrix" values="0 0 0 0 1 0 0 0 0 0.80475 0 0 0 0 0.1125 0 0 0 0.21 0"/>
<feBlend mode="normal" in2="BackgroundImageFix" result="effect1_dropShadow"/>
<feBlend mode="normal" in="SourceGraphic" in2="effect1_dropShadow" result="shape"/>
</filter>
<filter id="filter4_d" x="20" y="85.4194" width="13.1616" height="13.1616" filterUnits="userSpaceOnUse" color-interpolation-filters="sRGB">
<feFlood flood-opacity="0" result="BackgroundImageFix"/>
<feColorMatrix in="SourceAlpha" type="matrix" values="0 0 0 0 0 0 0 0 0 0 0 0 0 0 0 0 0 0 127 0"/>
<feOffset dy="2"/>
<feGaussianBlur stdDeviation="1.5"/>
<feColorMatrix type="matrix" values="0 0 0 0 0.44795 0 0 0 0 0.85 0 0 0 0 0.3825 0 0 0 0.26 0"/>
<feBlend mode="normal" in2="BackgroundImageFix" result="effect1_dropShadow"/>
<feBlend mode="normal" in="SourceGraphic" in2="effect1_dropShadow" result="shape"/>
</filter>
<clipPath id="clip0">
<rect width="100" height="123" fill="white" transform="translate(0 0.5)"/>
</clipPath>
</defs>
</svg>
