<svg width="40" height="38" viewBox="0 0 40 38" fill="none" xmlns="http://www.w3.org/2000/svg">
<g clip-path="url(#clip0)">
<g filter="url(#filter0_d)">
<path d="M9.43 28.51H30.01C30.9197 28.51 31.7921 28.1486 32.4354 27.5054C33.0786 26.8621 33.44 25.9897 33.44 25.08V12.5033C33.44 11.5936 33.0786 10.7212 32.4354 10.078C31.7921 9.43471 30.9197 9.07334 30.01 9.07334H25.551C25.4814 9.07332 25.4141 9.04786 25.3619 9.00175C25.3097 8.95565 25.2761 8.89206 25.2675 8.82295L25.1028 7.50468C24.9992 6.67566 24.5966 5.91295 23.9705 5.35972C23.3445 4.80649 22.538 4.50079 21.7025 4.5H17.7375C16.9014 4.49996 16.0941 4.80528 15.4673 5.35859C14.8405 5.91189 14.4374 6.67507 14.3338 7.50468L14.1691 8.82295C14.1606 8.89148 14.1275 8.9546 14.076 9.00063C14.0245 9.04666 13.9581 9.07249 13.889 9.07334H9.43C8.52031 9.07334 7.64787 9.43471 7.00462 10.078C6.36137 10.7212 6 11.5936 6 12.5033V25.08C6 25.9897 6.36137 26.8621 7.00462 27.5054C7.64787 28.1486 8.52031 28.51 9.43 28.51ZM16.6021 7.78823C16.6367 7.51156 16.7712 7.25706 16.9803 7.07261C17.1894 6.88816 17.4586 6.78647 17.7375 6.78667H21.7025C21.9814 6.78647 22.2506 6.88816 22.4597 7.07261C22.6688 7.25706 22.8033 7.51156 22.8379 7.78823L22.9579 8.7532C22.9628 8.79332 22.9591 8.83402 22.947 8.8726C22.935 8.91118 22.9149 8.94677 22.8881 8.97702C22.8613 9.00727 22.8284 9.0315 22.7916 9.0481C22.7547 9.0647 22.7148 9.0733 22.6744 9.07334H16.7656C16.7252 9.0733 16.6853 9.0647 16.6484 9.0481C16.6116 9.0315 16.5787 9.00727 16.5519 8.97702C16.5251 8.94677 16.505 8.91118 16.493 8.8726C16.4809 8.83402 16.4772 8.79332 16.4821 8.7532L16.6021 7.78823ZM12.0025 15.3617C12.0025 15.1342 12.0928 14.9161 12.2537 14.7553C12.4145 14.5945 12.6326 14.5042 12.86 14.5042H26.58C26.8074 14.5042 27.0255 14.5945 27.1864 14.7553C27.3472 14.9161 27.4375 15.1342 27.4375 15.3617V15.9333C27.4375 16.1608 27.3472 16.3789 27.1864 16.5397C27.0255 16.7005 26.8074 16.7908 26.58 16.7908H12.86C12.6326 16.7908 12.4145 16.7005 12.2537 16.5397C12.0928 16.3789 12.0025 16.1608 12.0025 15.9333V15.3617ZM12.0025 21.65C12.0025 21.4226 12.0928 21.2045 12.2537 21.0437C12.4145 20.8829 12.6326 20.7925 12.86 20.7925H26.58C26.8074 20.7925 27.0255 20.8829 27.1864 21.0437C27.3472 21.2045 27.4375 21.4226 27.4375 21.65V22.2217C27.4375 22.4491 27.3472 22.6672 27.1864 22.828C27.0255 22.9888 26.8074 23.0792 26.58 23.0792H12.86C12.6326 23.0792 12.4145 22.9888 12.2537 22.828C12.0928 22.6672 12.0025 22.4491 12.0025 22.2217V21.65Z" fill="#1C7DF8" fill-opacity="0.01"/>
<path d="M28.3429 13.1838H10.1934V24.7187H28.3429V13.1838Z" fill="#1C7DF8" fill-opacity="0.01"/>
</g>
<path d="M30.0759 12.4536H9.93262V24.719H30.0759V12.4536Z" fill="white"/>
<path d="M9.43 28.51H30.01C30.9197 28.51 31.7921 28.1486 32.4354 27.5054C33.0786 26.8621 33.44 25.9897 33.44 25.08V12.5033C33.44 11.5936 33.0786 10.7212 32.4354 10.078C31.7921 9.43471 30.9197 9.07334 30.01 9.07334H25.551C25.4814 9.07332 25.4141 9.04786 25.3619 9.00175C25.3097 8.95565 25.2761 8.89206 25.2675 8.82295L25.1028 7.50468C24.9992 6.67566 24.5966 5.91295 23.9705 5.35972C23.3445 4.80649 22.538 4.50079 21.7025 4.5H17.7375C16.9014 4.49996 16.0941 4.80528 15.4673 5.35859C14.8405 5.91189 14.4374 6.67507 14.3338 7.50468L14.1691 8.82295C14.1606 8.89148 14.1275 8.9546 14.076 9.00063C14.0245 9.04666 13.9581 9.07249 13.889 9.07334H9.43C8.52031 9.07334 7.64787 9.43471 7.00462 10.078C6.36137 10.7212 6 11.5936 6 12.5033V25.08C6 25.9897 6.36137 26.8621 7.00462 27.5054C7.64787 28.1486 8.52031 28.51 9.43 28.51ZM16.6021 7.78823C16.6367 7.51156 16.7712 7.25706 16.9803 7.07261C17.1894 6.88816 17.4586 6.78647 17.7375 6.78667H21.7025C21.9814 6.78647 22.2506 6.88816 22.4597 7.07261C22.6688 7.25706 22.8033 7.51156 22.8379 7.78823L22.9579 8.7532C22.9628 8.79332 22.9591 8.83402 22.947 8.8726C22.935 8.91118 22.9149 8.94677 22.8881 8.97702C22.8613 9.00727 22.8284 9.0315 22.7916 9.0481C22.7547 9.0647 22.7148 9.0733 22.6744 9.07334H16.7656C16.7252 9.0733 16.6853 9.0647 16.6484 9.0481C16.6116 9.0315 16.5787 9.00727 16.5519 8.97702C16.5251 8.94677 16.505 8.91118 16.493 8.8726C16.4809 8.83402 16.4772 8.79332 16.4821 8.7532L16.6021 7.78823ZM12.0025 15.3617C12.0025 15.1342 12.0928 14.9161 12.2537 14.7553C12.4145 14.5945 12.6326 14.5042 12.86 14.5042H26.58C26.8074 14.5042 27.0255 14.5945 27.1864 14.7553C27.3472 14.9161 27.4375 15.1342 27.4375 15.3617V15.9333C27.4375 16.1608 27.3472 16.3789 27.1864 16.5397C27.0255 16.7005 26.8074 16.7908 26.58 16.7908H12.86C12.6326 16.7908 12.4145 16.7005 12.2537 16.5397C12.0928 16.3789 12.0025 16.1608 12.0025 15.9333V15.3617ZM12.0025 21.65C12.0025 21.4226 12.0928 21.2045 12.2537 21.0437C12.4145 20.8829 12.6326 20.7925 12.86 20.7925H26.58C26.8074 20.7925 27.0255 20.8829 27.1864 21.0437C27.3472 21.2045 27.4375 21.4226 27.4375 21.65V22.2217C27.4375 22.4491 27.3472 22.6672 27.1864 22.828C27.0255 22.9888 26.8074 23.0792 26.58 23.0792H12.86C12.6326 23.0792 12.4145 22.9888 12.2537 22.828C12.0928 22.6672 12.0025 22.4491 12.0025 22.2217V21.65Z" fill="#1C7DF8"/>
<path d="M28.3429 13.1838H10.1934V24.7187H28.3429V13.1838Z" fill="#1C7DF8"/>
</g>
<defs>
<filter id="filter0_d" x="0" y="0.5" width="39.44" height="36.01" filterUnits="userSpaceOnUse" color-interpolation-filters="sRGB">
<feFlood flood-opacity="0" result="BackgroundImageFix"/>
<feColorMatrix in="SourceAlpha" type="matrix" values="0 0 0 0 0 0 0 0 0 0 0 0 0 0 0 0 0 0 127 0"/>
<feOffset dy="2"/>
<feGaussianBlur stdDeviation="3"/>
<feColorMatrix type="matrix" values="0 0 0 0 0.109219 0 0 0 0 0.491032 0 0 0 0 0.970833 0 0 0 0.18 0"/>
<feBlend mode="normal" in2="BackgroundImageFix" result="effect1_dropShadow"/>
<feBlend mode="normal" in="SourceGraphic" in2="effect1_dropShadow" result="shape"/>
</filter>
<clipPath id="clip0">
<rect width="40" height="37" fill="white" transform="translate(0 0.5)"/>
</clipPath>
</defs>
</svg>
