<svg width="196" height="244" viewBox="0 0 196 244" fill="none" xmlns="http://www.w3.org/2000/svg">
<g clip-path="url(#clip0)">
<path d="M195.489 0.5H0V243.225H195.489V0.5Z" fill="white"/>
<path d="M123.868 165.572H71.6212C66.7145 165.572 62.7368 169.55 62.7368 174.456C62.7368 179.363 66.7145 183.341 71.6212 183.341H123.868C128.775 183.341 132.753 179.363 132.753 174.456C132.753 169.55 128.775 165.572 123.868 165.572Z" fill="#778BA5"/>
<path d="M154.547 190.819H40.9403C37.0768 190.819 33.9448 193.951 33.9448 197.814C33.9448 201.678 37.0768 204.81 40.9403 204.81H154.547C158.411 204.81 161.543 201.678 161.543 197.814C161.543 193.951 158.411 190.819 154.547 190.819Z" fill="#DCE3ED"/>
<path opacity="0.5" d="M132.513 117.902C123.292 127.124 110.785 132.304 97.7445 132.304C84.7039 132.304 72.1973 127.124 62.9762 117.902C53.7551 108.681 48.5747 96.1748 48.5747 83.1342C48.5747 70.0935 53.7551 57.587 62.9762 48.3659C72.1973 39.1447 84.7039 33.9644 97.7445 33.9644C110.785 33.9644 123.292 39.1447 132.513 48.3659C141.734 57.587 146.914 70.0935 146.914 83.1342C146.914 96.1748 141.734 108.681 132.513 117.902Z" stroke="#DCE3ED" stroke-width="24" stroke-linecap="round"/>
<g filter="url(#filter0_d)">
<path d="M97.7445 132.304C88.8002 132.304 80.0253 129.864 72.3646 125.247C64.7039 120.631 58.4476 114.012 54.2693 106.103C50.0911 98.1948 48.1492 89.2965 48.6527 80.3663C49.1562 71.4362 52.086 62.8125 57.1267 55.4238C62.1674 48.0352 69.128 42.1614 77.2591 38.435C85.3902 34.7085 94.3838 33.2706 103.271 34.276C112.159 35.2814 120.604 38.692 127.697 44.1406C134.791 49.5892 140.263 56.8695 143.526 65.1974" stroke="#72D962" stroke-opacity="0.01" stroke-width="24" stroke-linecap="round"/>
</g>
<path d="M97.7445 132.304C88.8002 132.304 80.0253 129.864 72.3646 125.247C64.7039 120.631 58.4476 114.012 54.2693 106.103C50.0911 98.1948 48.1492 89.2965 48.6527 80.3663C49.1562 71.4362 52.086 62.8125 57.1267 55.4238C62.1674 48.0352 69.128 42.1614 77.2591 38.435C85.3902 34.7085 94.3838 33.2706 103.271 34.276C112.159 35.2814 120.604 38.692 127.697 44.1406C134.791 49.5892 140.263 56.8695 143.526 65.1974" stroke="#72D962" stroke-width="24" stroke-linecap="round"/>
</g>
<defs>
<filter id="filter0_d" x="31.2153" y="20.6245" width="129.673" height="133.058" filterUnits="userSpaceOnUse" color-interpolation-filters="sRGB">
<feFlood flood-opacity="0" result="BackgroundImageFix"/>
<feColorMatrix in="SourceAlpha" type="matrix" values="0 0 0 0 0 0 0 0 0 0 0 0 0 0 0 0 0 0 127 0"/>
<feOffset dy="4.01956"/>
<feGaussianBlur stdDeviation="2.67971"/>
<feColorMatrix type="matrix" values="0 0 0 0 0.44795 0 0 0 0 0.85 0 0 0 0 0.3825 0 0 0 0.25 0"/>
<feBlend mode="normal" in2="BackgroundImageFix" result="effect1_dropShadow"/>
<feBlend mode="normal" in="SourceGraphic" in2="effect1_dropShadow" result="shape"/>
</filter>
<clipPath id="clip0">
<rect width="196" height="243" fill="white" transform="translate(0 0.5)"/>
</clipPath>
</defs>
</svg>
