<svg width="142" height="148" viewBox="0 0 142 148" fill="none" xmlns="http://www.w3.org/2000/svg">
<g clip-path="url(#clip0)">
<g filter="url(#filter0_d)">
<path d="M109.663 14.5H32.3875C24.5391 14.5 18.1768 20.8623 18.1768 28.7107V111.177C18.1768 119.026 24.5391 125.388 32.3875 125.388H109.663C117.511 125.388 123.874 119.026 123.874 111.177V28.7107C123.874 20.8623 117.511 14.5 109.663 14.5Z" fill="white" fill-opacity="0.01"/>
</g>
<path d="M109.663 14.5H32.3875C24.5391 14.5 18.1768 20.8623 18.1768 28.7107V111.177C18.1768 119.026 24.5391 125.388 32.3875 125.388H109.663C117.511 125.388 123.874 119.026 123.874 111.177V28.7107C123.874 20.8623 117.511 14.5 109.663 14.5Z" fill="white"/>
<g filter="url(#filter1_d)">
<path d="M69.8971 83.4844C70.3983 82.6162 71.6514 82.6162 72.1527 83.4844L74.4217 87.4145C74.9229 88.2826 74.2964 89.3679 73.2939 89.3679H68.7558C67.7534 89.3679 67.1268 88.2826 67.628 87.4145L69.8971 83.4844Z" fill="#72D962" fill-opacity="0.01"/>
</g>
<path d="M69.8971 83.4844C70.3983 82.6162 71.6514 82.6162 72.1527 83.4844L74.4217 87.4145C74.9229 88.2826 74.2964 89.3679 73.2939 89.3679H68.7558C67.7534 89.3679 67.1268 88.2826 67.628 87.4145L69.8971 83.4844Z" fill="#72D962"/>
<g filter="url(#filter2_d)">
<path d="M67.5865 48.7576C68.0878 47.8894 69.3409 47.8894 69.8421 48.7576L72.1111 52.6877C72.6124 53.5558 71.9858 54.6411 70.9833 54.6411H66.4453C65.4428 54.6411 64.8163 53.5558 65.3175 52.6877L67.5865 48.7576Z" fill="#72D962" fill-opacity="0.01"/>
</g>
<path d="M67.5865 48.7576C68.0878 47.8894 69.3409 47.8894 69.8421 48.7576L72.1111 52.6877C72.6124 53.5558 71.9858 54.6411 70.9833 54.6411H66.4453C65.4428 54.6411 64.8163 53.5558 65.3175 52.6877L67.5865 48.7576Z" fill="#72D962"/>
<path d="M69.9396 32.1002H44.7193C43.5206 32.1002 42.5488 33.072 42.5488 34.2707C42.5488 35.4694 43.5206 36.4411 44.7193 36.4411H69.9396C71.1383 36.4411 72.11 35.4694 72.11 34.2707C72.11 33.072 71.1383 32.1002 69.9396 32.1002Z" fill="#DCE3ED"/>
<path d="M59.716 49.4637H44.7193C43.5206 49.4637 42.5488 50.4354 42.5488 51.6341C42.5488 52.8328 43.5206 53.8046 44.7193 53.8046H59.716C60.9147 53.8046 61.8864 52.8328 61.8864 51.6341C61.8864 50.4354 60.9147 49.4637 59.716 49.4637Z" fill="#DCE3ED"/>
<path d="M69.9396 66.8273H44.7193C43.5206 66.8273 42.5488 67.799 42.5488 68.9977C42.5488 70.1964 43.5206 71.1682 44.7193 71.1682H69.9396C71.1383 71.1682 72.11 70.1964 72.11 68.9977C72.11 67.799 71.1383 66.8273 69.9396 66.8273Z" fill="#DCE3ED"/>
<path d="M61.2936 84.1908H44.7193C43.5206 84.1908 42.5488 85.1625 42.5488 86.3612C42.5488 87.5599 43.5206 88.5317 44.7193 88.5317H61.2936C62.4923 88.5317 63.464 87.5599 63.464 86.3612C63.464 85.1625 62.4923 84.1908 61.2936 84.1908Z" fill="#DCE3ED"/>
<path d="M69.9396 101.554H44.7193C43.5206 101.554 42.5488 102.526 42.5488 103.724C42.5488 104.923 43.5206 105.895 44.7193 105.895H69.9396C71.1383 105.895 72.11 104.923 72.11 103.724C72.11 102.526 71.1383 101.554 69.9396 101.554Z" fill="#DCE3ED"/>
<path d="M32.6388 75.5091C36.2349 75.5091 39.1501 72.5939 39.1501 68.9978C39.1501 65.4017 36.2349 62.4865 32.6388 62.4865C29.0427 62.4865 26.1274 65.4017 26.1274 68.9978C26.1274 72.5939 29.0427 75.5091 32.6388 75.5091Z" fill="#B4C2D6"/>
<path d="M32.6388 40.7819C36.2349 40.7819 39.1501 37.8667 39.1501 34.2706C39.1501 30.6745 36.2349 27.7593 32.6388 27.7593C29.0427 27.7593 26.1274 30.6745 26.1274 34.2706C26.1274 37.8667 29.0427 40.7819 32.6388 40.7819Z" fill="#B4C2D6"/>
<g filter="url(#filter3_d)">
<path d="M32.6388 58.1454C36.2349 58.1454 39.1501 55.2302 39.1501 51.6341C39.1501 48.038 36.2349 45.1228 32.6388 45.1228C29.0427 45.1228 26.1274 48.038 26.1274 51.6341C26.1274 55.2302 29.0427 58.1454 32.6388 58.1454Z" fill="#72D962" fill-opacity="0.01"/>
</g>
<path d="M32.6388 58.1455C36.2349 58.1455 39.1501 55.2302 39.1501 51.6341C39.1501 48.038 36.2349 45.1228 32.6388 45.1228C29.0427 45.1228 26.1274 48.038 26.1274 51.6341C26.1274 55.2302 29.0427 58.1455 32.6388 58.1455Z" fill="#72D962"/>
<g filter="url(#filter4_d)">
<path d="M32.6388 92.8726C36.2349 92.8726 39.1501 89.9574 39.1501 86.3613C39.1501 82.7652 36.2349 79.85 32.6388 79.85C29.0427 79.85 26.1274 82.7652 26.1274 86.3613C26.1274 89.9574 29.0427 92.8726 32.6388 92.8726Z" fill="#72D962" fill-opacity="0.01"/>
</g>
<path d="M32.6388 92.8725C36.2349 92.8725 39.1501 89.9573 39.1501 86.3612C39.1501 82.7651 36.2349 79.8499 32.6388 79.8499C29.0427 79.8499 26.1274 82.7651 26.1274 86.3612C26.1274 89.9573 29.0427 92.8725 32.6388 92.8725Z" fill="#72D962"/>
<path d="M32.6388 110.236C36.2349 110.236 39.1501 107.321 39.1501 103.725C39.1501 100.129 36.2349 97.2137 32.6388 97.2137C29.0427 97.2137 26.1274 100.129 26.1274 103.725C26.1274 107.321 29.0427 110.236 32.6388 110.236Z" fill="#B4C2D6"/>
<g filter="url(#filter5_d)">
<path d="M84.6382 37.6319C85.9328 35.9886 87.9931 33.2272 91.3845 33.2272C94.7758 33.2272 98.3519 35.4667 102.084 35.4667C105.817 35.4667 107.843 30.9091 110.383 30.9091" stroke="#72D962" stroke-opacity="0.01" stroke-width="3.2" stroke-linecap="round"/>
</g>
<path d="M84.6382 37.632C85.9328 35.9887 87.9931 33.2273 91.3845 33.2273C94.7758 33.2273 98.3519 35.4668 102.084 35.4668C105.817 35.4668 107.843 30.9092 110.383 30.9092" stroke="#72D962" stroke-width="3.2" stroke-linecap="round"/>
<g filter="url(#filter6_d)">
<path d="M84.6382 51.6343C87.2977 51.1566 89.8734 49.1792 93.2648 49.1792C96.6561 49.1792 98.3832 52.1885 101.586 50.9075C104.789 49.6264 108.675 47.7411 110.654 46.4216" stroke="#72D962" stroke-opacity="0.01" stroke-width="3.2" stroke-linecap="round"/>
</g>
<path d="M84.6382 51.6343C87.2977 51.1566 89.8734 49.1792 93.2648 49.1792C96.6561 49.1792 98.3832 52.1885 101.586 50.9075C104.789 49.6264 108.675 47.7411 110.654 46.4216" stroke="#72D962" stroke-width="3.2" stroke-linecap="round"/>
<g filter="url(#filter7_d)">
<path d="M84.6382 69.9444C87.4387 69.9444 99.7416 69.9444 111.373 64.2302" stroke="#72D962" stroke-opacity="0.01" stroke-width="3.2" stroke-linecap="round"/>
</g>
<path d="M84.6382 69.9444C87.4387 69.9444 99.7416 69.9444 111.373 64.2302" stroke="#72D962" stroke-width="3.2" stroke-linecap="round"/>
<g filter="url(#filter8_d)">
<path d="M84.6382 88.2534C86.7341 88.2534 94.8533 88.2535 98.2446 88.2535C101.636 88.2535 107.848 85.9328 111.23 80.7928" stroke="#72D962" stroke-opacity="0.01" stroke-width="3.2" stroke-linecap="round"/>
</g>
<path d="M84.6382 88.2533C86.7341 88.2533 94.8533 88.2534 98.2446 88.2534C101.636 88.2534 107.848 85.9327 111.23 80.7927" stroke="#72D962" stroke-width="3.2" stroke-linecap="round"/>
<g filter="url(#filter9_d)">
<path d="M84.6382 106.438C85.9328 104.795 87.9931 102.033 91.3845 102.033C94.7758 102.033 98.3519 104.273 102.084 104.273C105.817 104.273 107.843 99.7151 110.383 99.7151" stroke="#72D962" stroke-opacity="0.01" stroke-width="3.2" stroke-linecap="round"/>
</g>
<path d="M84.6382 106.438C85.9328 104.795 87.9931 102.033 91.3845 102.033C94.7758 102.033 98.3519 104.273 102.084 104.273C105.817 104.273 107.843 99.7151 110.383 99.7151" stroke="#72D962" stroke-width="3.2" stroke-linecap="round"/>
</g>
<defs>
<filter id="filter0_d" x="0.686598" y="1.38238" width="140.677" height="145.868" filterUnits="userSpaceOnUse" color-interpolation-filters="sRGB">
<feFlood flood-opacity="0" result="BackgroundImageFix"/>
<feColorMatrix in="SourceAlpha" type="matrix" values="0 0 0 0 0 0 0 0 0 0 0 0 0 0 0 0 0 0 127 0"/>
<feOffset dy="4.37254"/>
<feGaussianBlur stdDeviation="8.74508"/>
<feColorMatrix type="matrix" values="0 0 0 0 0.0196078 0 0 0 0 0.45098 0 0 0 0 0.294118 0 0 0 0.11 0"/>
<feBlend mode="normal" in2="BackgroundImageFix" result="effect1_dropShadow"/>
<feBlend mode="normal" in="SourceGraphic" in2="effect1_dropShadow" result="shape"/>
</filter>
<filter id="filter1_d" x="62.0256" y="80.6628" width="17.9987" height="17.3868" filterUnits="userSpaceOnUse" color-interpolation-filters="sRGB">
<feFlood flood-opacity="0" result="BackgroundImageFix"/>
<feColorMatrix in="SourceAlpha" type="matrix" values="0 0 0 0 0 0 0 0 0 0 0 0 0 0 0 0 0 0 127 0"/>
<feOffset dy="3.25566"/>
<feGaussianBlur stdDeviation="2.71305"/>
<feColorMatrix type="matrix" values="0 0 0 0 0.44795 0 0 0 0 0.85 0 0 0 0 0.3825 0 0 0 0.03 0"/>
<feBlend mode="normal" in2="BackgroundImageFix" result="effect1_dropShadow"/>
<feBlend mode="normal" in="SourceGraphic" in2="effect1_dropShadow" result="shape"/>
</filter>
<filter id="filter2_d" x="59.715" y="45.936" width="17.9986" height="17.3869" filterUnits="userSpaceOnUse" color-interpolation-filters="sRGB">
<feFlood flood-opacity="0" result="BackgroundImageFix"/>
<feColorMatrix in="SourceAlpha" type="matrix" values="0 0 0 0 0 0 0 0 0 0 0 0 0 0 0 0 0 0 127 0"/>
<feOffset dy="3.25566"/>
<feGaussianBlur stdDeviation="2.71305"/>
<feColorMatrix type="matrix" values="0 0 0 0 0.44795 0 0 0 0 0.85 0 0 0 0 0.3825 0 0 0 0.03 0"/>
<feBlend mode="normal" in2="BackgroundImageFix" result="effect1_dropShadow"/>
<feBlend mode="normal" in="SourceGraphic" in2="effect1_dropShadow" result="shape"/>
</filter>
<filter id="filter3_d" x="20.1274" y="42.1228" width="25.0227" height="25.0227" filterUnits="userSpaceOnUse" color-interpolation-filters="sRGB">
<feFlood flood-opacity="0" result="BackgroundImageFix"/>
<feColorMatrix in="SourceAlpha" type="matrix" values="0 0 0 0 0 0 0 0 0 0 0 0 0 0 0 0 0 0 127 0"/>
<feOffset dy="3"/>
<feGaussianBlur stdDeviation="3"/>
<feColorMatrix type="matrix" values="0 0 0 0 0.44795 0 0 0 0 0.85 0 0 0 0 0.3825 0 0 0 0.37 0"/>
<feBlend mode="normal" in2="BackgroundImageFix" result="effect1_dropShadow"/>
<feBlend mode="normal" in="SourceGraphic" in2="effect1_dropShadow" result="shape"/>
</filter>
<filter id="filter4_d" x="20.1274" y="76.85" width="25.0227" height="25.0227" filterUnits="userSpaceOnUse" color-interpolation-filters="sRGB">
<feFlood flood-opacity="0" result="BackgroundImageFix"/>
<feColorMatrix in="SourceAlpha" type="matrix" values="0 0 0 0 0 0 0 0 0 0 0 0 0 0 0 0 0 0 127 0"/>
<feOffset dy="3"/>
<feGaussianBlur stdDeviation="3"/>
<feColorMatrix type="matrix" values="0 0 0 0 0.44795 0 0 0 0 0.85 0 0 0 0 0.3825 0 0 0 0.37 0"/>
<feBlend mode="normal" in2="BackgroundImageFix" result="effect1_dropShadow"/>
<feBlend mode="normal" in="SourceGraphic" in2="effect1_dropShadow" result="shape"/>
</filter>
<filter id="filter5_d" x="79.7824" y="28.2239" width="35.4562" height="16.4342" filterUnits="userSpaceOnUse" color-interpolation-filters="sRGB">
<feFlood flood-opacity="0" result="BackgroundImageFix"/>
<feColorMatrix in="SourceAlpha" type="matrix" values="0 0 0 0 0 0 0 0 0 0 0 0 0 0 0 0 0 0 127 0"/>
<feOffset dy="2.17044"/>
<feGaussianBlur stdDeviation="1.62783"/>
<feColorMatrix type="matrix" values="0 0 0 0 0.44795 0 0 0 0 0.85 0 0 0 0 0.3825 0 0 0 0.39 0"/>
<feBlend mode="normal" in2="BackgroundImageFix" result="effect1_dropShadow"/>
<feBlend mode="normal" in="SourceGraphic" in2="effect1_dropShadow" result="shape"/>
</filter>
<filter id="filter6_d" x="79.7822" y="43.7362" width="35.7276" height="14.9245" filterUnits="userSpaceOnUse" color-interpolation-filters="sRGB">
<feFlood flood-opacity="0" result="BackgroundImageFix"/>
<feColorMatrix in="SourceAlpha" type="matrix" values="0 0 0 0 0 0 0 0 0 0 0 0 0 0 0 0 0 0 127 0"/>
<feOffset dy="2.17044"/>
<feGaussianBlur stdDeviation="1.62783"/>
<feColorMatrix type="matrix" values="0 0 0 0 0.44795 0 0 0 0 0.85 0 0 0 0 0.3825 0 0 0 0.39 0"/>
<feBlend mode="normal" in2="BackgroundImageFix" result="effect1_dropShadow"/>
<feBlend mode="normal" in="SourceGraphic" in2="effect1_dropShadow" result="shape"/>
</filter>
<filter id="filter7_d" x="79.7824" y="61.5446" width="36.4465" height="15.4259" filterUnits="userSpaceOnUse" color-interpolation-filters="sRGB">
<feFlood flood-opacity="0" result="BackgroundImageFix"/>
<feColorMatrix in="SourceAlpha" type="matrix" values="0 0 0 0 0 0 0 0 0 0 0 0 0 0 0 0 0 0 127 0"/>
<feOffset dy="2.17044"/>
<feGaussianBlur stdDeviation="1.62783"/>
<feColorMatrix type="matrix" values="0 0 0 0 0.44795 0 0 0 0 0.85 0 0 0 0 0.3825 0 0 0 0.39 0"/>
<feBlend mode="normal" in2="BackgroundImageFix" result="effect1_dropShadow"/>
<feBlend mode="normal" in="SourceGraphic" in2="effect1_dropShadow" result="shape"/>
</filter>
<filter id="filter8_d" x="79.7824" y="78.1074" width="36.3033" height="17.1722" filterUnits="userSpaceOnUse" color-interpolation-filters="sRGB">
<feFlood flood-opacity="0" result="BackgroundImageFix"/>
<feColorMatrix in="SourceAlpha" type="matrix" values="0 0 0 0 0 0 0 0 0 0 0 0 0 0 0 0 0 0 127 0"/>
<feOffset dy="2.17044"/>
<feGaussianBlur stdDeviation="1.62783"/>
<feColorMatrix type="matrix" values="0 0 0 0 0.44795 0 0 0 0 0.85 0 0 0 0 0.3825 0 0 0 0.39 0"/>
<feBlend mode="normal" in2="BackgroundImageFix" result="effect1_dropShadow"/>
<feBlend mode="normal" in="SourceGraphic" in2="effect1_dropShadow" result="shape"/>
</filter>
<filter id="filter9_d" x="79.7824" y="97.0299" width="35.4562" height="16.4343" filterUnits="userSpaceOnUse" color-interpolation-filters="sRGB">
<feFlood flood-opacity="0" result="BackgroundImageFix"/>
<feColorMatrix in="SourceAlpha" type="matrix" values="0 0 0 0 0 0 0 0 0 0 0 0 0 0 0 0 0 0 127 0"/>
<feOffset dy="2.17044"/>
<feGaussianBlur stdDeviation="1.62783"/>
<feColorMatrix type="matrix" values="0 0 0 0 0.44795 0 0 0 0 0.85 0 0 0 0 0.3825 0 0 0 0.39 0"/>
<feBlend mode="normal" in2="BackgroundImageFix" result="effect1_dropShadow"/>
<feBlend mode="normal" in="SourceGraphic" in2="effect1_dropShadow" result="shape"/>
</filter>
<clipPath id="clip0">
<rect width="142" height="147" fill="white" transform="translate(0 0.5)"/>
</clipPath>
</defs>
</svg>
