<svg width="75" height="86" viewBox="0 0 75 86" fill="none" xmlns="http://www.w3.org/2000/svg">
<g clip-path="url(#clip0)">
<g filter="url(#filter0_dd)">
<path d="M52.6128 8.5H22.3008C17.8825 8.5 14.3008 12.0817 14.3008 16.5V56.7871C14.3008 61.2054 17.8825 64.7871 22.3008 64.7871H52.6128C57.0311 64.7871 60.6128 61.2054 60.6128 56.7871V16.5C60.6128 12.0817 57.0311 8.5 52.6128 8.5Z" fill="white" fill-opacity="0.01"/>
</g>
<path d="M52.6128 8.5H22.3008C17.8825 8.5 14.3008 12.0817 14.3008 16.5V56.7871C14.3008 61.2054 17.8825 64.7871 22.3008 64.7871H52.6128C57.0311 64.7871 60.6128 61.2054 60.6128 56.7871V16.5C60.6128 12.0817 57.0311 8.5 52.6128 8.5Z" fill="white"/>
<path d="M52.2641 14.2034H22.6484C21.5439 14.2034 20.6484 15.0988 20.6484 16.2034V26.6412C20.6484 27.7458 21.5439 28.6412 22.6484 28.6412H52.2641C53.3687 28.6412 54.2641 27.7458 54.2641 26.6412V16.2034C54.2641 15.0988 53.3687 14.2034 52.2641 14.2034Z" fill="#EFF2F7"/>
<path d="M33.8759 31.2664H22.6484C21.5439 31.2664 20.6484 32.1618 20.6484 33.2664V49.3918C20.6484 50.4964 21.5439 51.3918 22.6484 51.3918H33.8759C34.9805 51.3918 35.8759 50.4964 35.8759 49.3918V33.2664C35.8759 32.1618 34.9805 31.2664 33.8759 31.2664Z" fill="#EFF2F7"/>
<path d="M43.0693 55.0222H31.8418C30.7372 55.0222 29.8418 55.9176 29.8418 57.0222V57.0837C29.8418 58.1883 30.7372 59.0837 31.8418 59.0837H43.0693C44.1739 59.0837 45.0693 58.1883 45.0693 57.0837V57.0222C45.0693 55.9176 44.1739 55.0222 43.0693 55.0222Z" fill="#EFF2F7"/>
<path d="M52.2636 31.2664H41.0361C39.9316 31.2664 39.0361 32.1618 39.0361 33.2664V49.3918C39.0361 50.4964 39.9316 51.3918 41.0361 51.3918H52.2636C53.3682 51.3918 54.2636 50.4964 54.2636 49.3918V33.2664C54.2636 32.1618 53.3682 31.2664 52.2636 31.2664Z" fill="#EFF2F7"/>
<g filter="url(#filter1_d)">
<path d="M10.7223 54.0493C11.67 54.0512 12.5824 53.6905 13.2726 53.0411L29.6546 37.675C29.8891 37.4532 30.201 37.3317 30.5237 37.3365C30.8465 37.3414 31.1546 37.4721 31.3823 37.7008L36.8928 43.2139C38.5507 44.7967 40.7546 45.6798 43.0467 45.6798C45.3388 45.6798 47.5428 44.7967 49.2006 43.2139L58.4244 33.9901C58.4819 33.9325 58.5502 33.8867 58.6254 33.8554C58.7007 33.8242 58.7813 33.8081 58.8628 33.8081C58.9442 33.8081 59.0249 33.8242 59.1001 33.8554C59.1753 33.8867 59.2436 33.9325 59.3011 33.9901L63.6693 38.3429C64.1358 38.8071 64.7672 39.0677 65.4254 39.0675C66.0847 39.0668 66.7168 38.8048 67.1832 38.3388C67.6497 37.8728 67.9124 37.241 67.9137 36.5817V21.7236C67.9131 21.0641 67.6506 20.4318 67.184 19.9657C66.7174 19.4996 66.0849 19.2378 65.4254 19.2378H50.508C50.0142 19.2359 49.531 19.3811 49.12 19.6549C48.7091 19.9287 48.389 20.3188 48.2006 20.7752C48.0122 21.2317 47.964 21.7339 48.0622 22.2179C48.1604 22.7019 48.4005 23.1456 48.752 23.4925L53.1356 27.8762C53.2524 27.9933 53.3183 28.1518 53.3187 28.3172C53.319 28.3988 53.3029 28.4796 53.2715 28.5549C53.2401 28.6302 53.1939 28.6984 53.1356 28.7555L43.9248 37.969C43.6906 38.2005 43.3747 38.3303 43.0454 38.3303C42.7162 38.3303 42.4003 38.2005 42.1661 37.969L36.653 32.4559C35.0631 30.85 32.9086 29.929 30.6492 29.8895C28.3897 29.85 26.2043 30.6951 24.5593 32.2444L8.17207 47.5976C7.62875 48.1097 7.25154 48.773 7.08923 49.5017C6.92693 50.2305 6.98698 50.9912 7.26164 51.6855C7.53629 52.3797 8.0129 52.9756 8.62986 53.3961C9.24681 53.8166 9.97572 54.0424 10.7223 54.0441V54.0493Z" fill="#72D962" fill-opacity="0.01"/>
</g>
<path d="M10.7223 54.0493C11.67 54.0512 12.5824 53.6905 13.2726 53.0411L29.6546 37.675C29.8891 37.4532 30.201 37.3317 30.5237 37.3365C30.8465 37.3414 31.1546 37.4721 31.3823 37.7008L36.8928 43.2139C38.5507 44.7967 40.7546 45.6798 43.0467 45.6798C45.3388 45.6798 47.5428 44.7967 49.2006 43.2139L58.4244 33.9901C58.4819 33.9325 58.5502 33.8867 58.6254 33.8554C58.7007 33.8242 58.7813 33.8081 58.8628 33.8081C58.9442 33.8081 59.0249 33.8242 59.1001 33.8554C59.1753 33.8867 59.2436 33.9325 59.3011 33.9901L63.6693 38.3429C64.1358 38.8071 64.7672 39.0677 65.4254 39.0675C66.0847 39.0668 66.7168 38.8048 67.1832 38.3388C67.6497 37.8728 67.9124 37.241 67.9137 36.5817V21.7236C67.9131 21.0641 67.6506 20.4318 67.184 19.9657C66.7174 19.4996 66.0849 19.2378 65.4254 19.2378H50.508C50.0142 19.2359 49.531 19.3811 49.12 19.6549C48.7091 19.9287 48.389 20.3188 48.2006 20.7752C48.0122 21.2317 47.964 21.7339 48.0622 22.2179C48.1604 22.7019 48.4005 23.1456 48.752 23.4925L53.1356 27.8762C53.2524 27.9933 53.3183 28.1518 53.3187 28.3172C53.319 28.3988 53.3029 28.4796 53.2715 28.5549C53.2401 28.6302 53.1939 28.6984 53.1356 28.7555L43.9248 37.969C43.6906 38.2005 43.3747 38.3303 43.0454 38.3303C42.7162 38.3303 42.4003 38.2005 42.1661 37.969L36.653 32.4559C35.0631 30.85 32.9086 29.929 30.6492 29.8895C28.3897 29.85 26.2043 30.6951 24.5593 32.2444L8.17207 47.5976C7.62875 48.1097 7.25154 48.773 7.08923 49.5017C6.92693 50.2305 6.98698 50.9912 7.26164 51.6855C7.53629 52.3797 8.0129 52.9756 8.62986 53.3961C9.24681 53.8166 9.97572 54.0424 10.7223 54.0441V54.0493Z" fill="#72D962"/>
</g>
<defs>
<filter id="filter0_dd" x="0.300781" y="0.5" width="74.312" height="84.2871" filterUnits="userSpaceOnUse" color-interpolation-filters="sRGB">
<feFlood flood-opacity="0" result="BackgroundImageFix"/>
<feColorMatrix in="SourceAlpha" type="matrix" values="0 0 0 0 0 0 0 0 0 0 0 0 0 0 0 0 0 0 127 0"/>
<feOffset dy="6"/>
<feGaussianBlur stdDeviation="7"/>
<feColorMatrix type="matrix" values="0 0 0 0 0.44795 0 0 0 0 0.85 0 0 0 0 0.3825 0 0 0 0.22 0"/>
<feBlend mode="normal" in2="BackgroundImageFix" result="effect1_dropShadow"/>
<feColorMatrix in="SourceAlpha" type="matrix" values="0 0 0 0 0 0 0 0 0 0 0 0 0 0 0 0 0 0 127 0"/>
<feOffset/>
<feGaussianBlur stdDeviation="2"/>
<feColorMatrix type="matrix" values="0 0 0 0 0.0976562 0 0 0 0 0.192861 0 0 0 0 0.3125 0 0 0 0.07 0"/>
<feBlend mode="normal" in2="effect1_dropShadow" result="effect2_dropShadow"/>
<feBlend mode="normal" in="SourceGraphic" in2="effect2_dropShadow" result="shape"/>
</filter>
<filter id="filter1_d" x="1" y="17.2378" width="72.9137" height="46.8115" filterUnits="userSpaceOnUse" color-interpolation-filters="sRGB">
<feFlood flood-opacity="0" result="BackgroundImageFix"/>
<feColorMatrix in="SourceAlpha" type="matrix" values="0 0 0 0 0 0 0 0 0 0 0 0 0 0 0 0 0 0 127 0"/>
<feOffset dy="4"/>
<feGaussianBlur stdDeviation="3"/>
<feColorMatrix type="matrix" values="0 0 0 0 0.44795 0 0 0 0 0.85 0 0 0 0 0.3825 0 0 0 0.38 0"/>
<feBlend mode="normal" in2="BackgroundImageFix" result="effect1_dropShadow"/>
<feBlend mode="normal" in="SourceGraphic" in2="effect1_dropShadow" result="shape"/>
</filter>
<clipPath id="clip0">
<rect width="75" height="85" fill="white" transform="translate(0 0.5)"/>
</clipPath>
</defs>
</svg>
