<svg width="74" height="70" viewBox="0 0 74 70" fill="none" xmlns="http://www.w3.org/2000/svg">
<g filter="url(#filter0_d)">
<path d="M24.8872 42.6844C25.3248 43.2059 25.9516 43.5322 26.6298 43.5915C27.308 43.6509 27.982 43.4384 28.5035 43.0008L47.1838 27.3261C47.7053 26.8885 48.0317 26.2616 48.091 25.5835C48.1503 24.9053 47.9378 24.2313 47.5002 23.7098C47.0626 23.1883 46.4358 22.8619 45.7576 22.8026C45.0794 22.7433 44.4054 22.9558 43.8839 23.3934L25.2036 39.0681C24.682 39.5057 24.3557 40.1325 24.2964 40.8107C24.2371 41.4889 24.4496 42.1629 24.8872 42.6844Z" fill="#FFCD1D" fill-opacity="0.01"/>
<path d="M33.7043 44.4072C33.3186 46.4276 32.2433 48.2514 30.662 49.5669C28.8367 51.0985 26.4777 51.8423 24.1041 51.6346C21.7304 51.4269 19.5364 50.2848 18.0048 48.4596C16.4733 46.6343 15.7295 44.2753 15.9371 41.9017C16.1448 39.528 17.2869 37.334 19.1122 35.8024C20.6832 34.4743 22.6665 33.7327 24.7235 33.7043C25.4047 33.6917 26.0531 33.4089 26.5258 32.9183C26.9986 32.4276 27.2571 31.7693 27.2445 31.088C27.2318 30.4068 26.9491 29.7584 26.4584 29.2857C25.9678 28.8129 25.3094 28.5544 24.6282 28.567C21.9634 28.6164 19.3671 29.419 17.1394 30.8821C14.9118 32.3452 13.1437 34.409 12.0398 36.8348C10.9358 39.2606 10.5411 41.9493 10.9012 44.5901C11.2613 47.2308 12.3616 49.7157 14.0747 51.7573C15.7879 53.799 18.0439 55.314 20.582 56.1272C23.1201 56.9404 25.8365 57.0185 28.4172 56.3526C30.9978 55.6867 33.3373 54.3039 35.165 52.3641C36.9927 50.4243 38.2339 48.0068 38.7453 45.3912C38.8758 44.7227 38.7353 44.0297 38.3549 43.4648C37.9745 42.8998 37.3852 42.5091 36.7168 42.3786C36.0483 42.2482 35.3553 42.3886 34.7904 42.769C34.2254 43.1494 33.8347 43.7387 33.7043 44.4072Z" fill="#FFCD1D" fill-opacity="0.01"/>
<path d="M39.408 12.0707C36.9361 14.15 35.2489 17.0115 34.6263 20.1811C34.496 20.8494 34.6366 21.542 35.0171 22.1066C35.3975 22.6712 35.9867 23.0616 36.6549 23.1918C37.3232 23.322 38.0158 23.1815 38.5804 22.801C39.145 22.4206 39.5354 21.8314 39.6656 21.1631C40.0517 19.1428 41.127 17.3191 42.7079 16.0034C44.5332 14.4718 46.8922 13.728 49.2658 13.9357C51.6395 14.1434 53.8335 15.2855 55.365 17.1107C56.8966 18.936 57.6404 21.295 57.4327 23.6686C57.2251 26.0423 56.083 28.2363 54.2577 29.7679C52.6883 31.0971 50.7061 31.8401 48.6497 31.8699C48.3125 31.8761 47.9798 31.9486 47.6707 32.0833C47.3615 32.218 47.0819 32.4123 46.8478 32.6551C46.3751 33.1454 46.1165 33.8034 46.1289 34.4844C46.135 34.8216 46.2075 35.1543 46.3423 35.4634C46.477 35.7726 46.6713 36.0522 46.914 36.2863C47.4044 36.759 48.0624 37.0176 48.7434 37.0052C51.0011 36.9627 53.2156 36.3793 55.2012 35.3039C57.1868 34.2286 58.8855 32.6926 60.1547 30.8249C61.4239 28.9572 62.2265 26.8124 62.4953 24.5703C62.7641 22.3283 62.4912 20.0545 61.6994 17.9397C60.9077 15.825 59.6202 13.931 57.9451 12.4167C56.27 10.9025 54.256 9.81211 52.0724 9.23718C49.8887 8.66225 47.5989 8.6195 45.3953 9.11253C43.1917 9.60557 41.1385 10.62 39.408 12.0707Z" fill="#FFCD1D" fill-opacity="0.01"/>
</g>
<path d="M24.8874 42.6844C25.325 43.2059 25.9518 43.5322 26.63 43.5915C27.3082 43.6509 27.9822 43.4384 28.5037 43.0008L47.184 27.3261C47.7055 26.8885 48.0319 26.2616 48.0912 25.5835C48.1505 24.9053 47.938 24.2313 47.5004 23.7098C47.0628 23.1883 46.436 22.8619 45.7578 22.8026C45.0796 22.7433 44.4056 22.9558 43.8841 23.3934L25.2038 39.0681C24.6822 39.5057 24.3559 40.1325 24.2966 40.8107C24.2373 41.4889 24.4498 42.1629 24.8874 42.6844Z" fill="#FFCD1D"/>
<path d="M33.7045 44.4073C33.3188 46.4277 32.2435 48.2515 30.6622 49.567C28.8369 51.0986 26.4779 51.8424 24.1043 51.6347C21.7306 51.427 19.5366 50.2849 18.005 48.4597C16.4735 46.6344 15.7297 44.2754 15.9373 41.9018C16.145 39.5281 17.2871 37.3341 19.1124 35.8025C20.6834 34.4744 22.6667 33.7328 24.7237 33.7044C25.4049 33.6918 26.0533 33.409 26.526 32.9184C26.9988 32.4277 27.2573 31.7694 27.2447 31.0881C27.232 30.4069 26.9493 29.7585 26.4586 29.2858C25.968 28.813 25.3096 28.5545 24.6284 28.5671C21.9636 28.6165 19.3673 29.4191 17.1396 30.8822C14.912 32.3453 13.1439 34.4091 12.04 36.8349C10.936 39.2607 10.5413 41.9494 10.9014 44.5902C11.2615 47.2309 12.3618 49.7158 14.0749 51.7574C15.7881 53.7991 18.0441 55.3141 20.5822 56.1273C23.1203 56.9405 25.8367 57.0186 28.4174 56.3527C30.998 55.6868 33.3375 54.304 35.1652 52.3642C36.9929 50.4244 38.2341 48.0069 38.7455 45.3913C38.876 44.7228 38.7355 44.0298 38.3551 43.4649C37.9747 42.8999 37.3854 42.5092 36.717 42.3787C36.0485 42.2483 35.3555 42.3887 34.7906 42.7691C34.2256 43.1495 33.8349 43.7388 33.7045 44.4073Z" fill="#FFCD1D"/>
<path d="M39.4082 12.0708C36.9363 14.1501 35.2491 17.0116 34.6265 20.1812C34.4962 20.8495 34.6368 21.5421 35.0173 22.1067C35.3977 22.6713 35.9869 23.0617 36.6551 23.1919C37.3234 23.3221 38.016 23.1816 38.5806 22.8011C39.1452 22.4207 39.5356 21.8315 39.6658 21.1632C40.0519 19.1429 41.1272 17.3192 42.7081 16.0035C44.5334 14.4719 46.8924 13.7281 49.266 13.9358C51.6397 14.1435 53.8337 15.2856 55.3652 17.1108C56.8968 18.9361 57.6406 21.2951 57.4329 23.6687C57.2253 26.0424 56.0832 28.2364 54.2579 29.768C52.6885 31.0972 50.7063 31.8402 48.6499 31.87C48.3127 31.8762 47.98 31.9487 47.6709 32.0834C47.3617 32.2181 47.0821 32.4124 46.848 32.6552C46.3753 33.1455 46.1167 33.8035 46.1291 34.4845C46.1352 34.8217 46.2077 35.1544 46.3425 35.4635C46.4772 35.7727 46.6715 36.0523 46.9142 36.2864C47.4046 36.7591 48.0626 37.0177 48.7436 37.0053C51.0013 36.9628 53.2158 36.3794 55.2014 35.304C57.187 34.2287 58.8857 32.6927 60.1549 30.825C61.4241 28.9573 62.2267 26.8125 62.4955 24.5704C62.7643 22.3284 62.4914 20.0546 61.6996 17.9398C60.9079 15.8251 59.6204 13.9311 57.9453 12.4168C56.2702 10.9026 54.2562 9.81217 52.0726 9.23724C49.8889 8.66231 47.5991 8.61956 45.3955 9.11259C43.1919 9.60563 41.1387 10.6201 39.4082 12.0708Z" fill="#FFCD1D"/>
<defs>
<filter id="filter0_d" x="5.77173" y="5.77191" width="61.824" height="58.0285" filterUnits="userSpaceOnUse" color-interpolation-filters="sRGB">
<feFlood flood-opacity="0" result="BackgroundImageFix"/>
<feColorMatrix in="SourceAlpha" type="matrix" values="0 0 0 0 0 0 0 0 0 0 0 0 0 0 0 0 0 0 127 0"/>
<feOffset dy="2"/>
<feGaussianBlur stdDeviation="2.5"/>
<feColorMatrix type="matrix" values="0 0 0 0 1 0 0 0 0 0.80475 0 0 0 0 0.1125 0 0 0 0.47 0"/>
<feBlend mode="normal" in2="BackgroundImageFix" result="effect1_dropShadow"/>
<feBlend mode="normal" in="SourceGraphic" in2="effect1_dropShadow" result="shape"/>
</filter>
</defs>
</svg>
