<svg width="214" height="204" viewBox="0 0 214 204" fill="none" xmlns="http://www.w3.org/2000/svg">
<g filter="url(#filter0_d)">
<path d="M184.717 99C184.717 55.9218 149.795 21 106.717 21C63.6386 21 28.7168 55.9218 28.7168 99C28.7168 142.078 63.6386 177 106.717 177C149.795 177 184.717 142.078 184.717 99Z" fill="#CCE2FF" fill-opacity="0.01"/>
</g>
<path d="M184.717 99C184.717 55.9218 149.795 21 106.717 21C63.6386 21 28.7168 55.9218 28.7168 99C28.7168 142.078 63.6386 177 106.717 177C149.795 177 184.717 142.078 184.717 99Z" fill="#CCE2FF"/>
<path d="M102.029 49.6821C105.371 46.8127 110.324 46.8687 113.601 49.813L151.211 83.605H62.5098L102.029 49.6821Z" fill="#1C7DF8"/>
<g filter="url(#filter1_dd)">
<path d="M68.7168 66.4202C68.7168 60.6654 73.382 56.0002 79.1368 56.0002H134.297C140.052 56.0002 144.717 60.6654 144.717 66.4202V115H68.7168V66.4202Z" fill="white" fill-opacity="0.01"/>
</g>
<path d="M68.7168 66.42C68.7168 60.6652 73.382 56 79.1368 56H134.297C140.052 56 144.717 60.6652 144.717 66.42V115H68.7168V66.42Z" fill="white"/>
<path opacity="0.3" d="M131.205 62.3374H82.2292C78.3245 62.3374 75.1592 65.5028 75.1592 69.4074V99.5592C75.1592 103.464 78.3245 106.629 82.2292 106.629H131.205C135.109 106.629 138.275 103.464 138.275 99.5592V69.4074C138.275 65.5028 135.109 62.3374 131.205 62.3374Z" fill="#DCE3ED"/>
<g filter="url(#filter2_d)">
<path d="M80.7051 100.772C83.6833 93.2177 88.9479 83.0046 104.42 87.7988C119.892 92.593 127.934 78.291 132.729 70.228" stroke="#72D962" stroke-opacity="0.01" stroke-width="4" stroke-linecap="round"/>
</g>
<path d="M80.7051 100.772C83.6833 93.2177 88.9479 83.0046 104.42 87.7988C119.892 92.593 127.934 78.291 132.729 70.228" stroke="#72D962" stroke-width="4" stroke-linecap="round"/>
<g filter="url(#filter3_d)">
<path d="M62.5098 83.606H68.5806L137.72 146H68.5806C65.2278 146 62.5098 143.282 62.5098 139.93V83.606Z" fill="#0F69DB" fill-opacity="0.01"/>
<path d="M151.211 83.606H144.803L76.0002 146H145.815C148.795 146 151.211 143.584 151.211 140.604V83.606Z" fill="#0F69DB" fill-opacity="0.01"/>
<path d="M102.43 108.729C105.558 106.43 109.825 106.462 112.919 108.806L149.206 136.303C153.329 139.427 151.119 146 145.947 146H68.1713C62.9588 146 60.7754 139.343 64.9756 136.256L102.43 108.729Z" fill="#1C7DF8" fill-opacity="0.01"/>
</g>
<path d="M62.5098 83.606H68.5806L137.72 146H68.5806C65.2278 146 62.5098 143.282 62.5098 139.93V83.606Z" fill="#0F69DB"/>
<path d="M151.211 83.606H144.803L76.0002 146H145.815C148.795 146 151.211 143.584 151.211 140.604V83.606Z" fill="#0F69DB"/>
<path d="M102.43 108.729C105.558 106.43 109.825 106.462 112.919 108.806L149.206 136.303C153.329 139.427 151.119 146 145.947 146H68.1713C62.9588 146 60.7754 139.343 64.9756 136.256L102.43 108.729Z" fill="#1C7DF8"/>
<g filter="url(#filter4_d)">
<path d="M62.2971 34.9053H33.7029C26.135 34.9053 20 41.0403 20 48.6082V76.0661C20 83.634 26.135 89.769 33.7029 89.769H62.2971C69.865 89.769 76 83.634 76 76.0661V48.6082C76 41.0403 69.865 34.9053 62.2971 34.9053Z" fill="white" fill-opacity="0.01"/>
</g>
<path d="M62.2971 34.9053H33.7029C26.135 34.9053 20 41.0403 20 48.6082V76.0661C20 83.634 26.135 89.769 33.7029 89.769H62.2971C69.865 89.769 76 83.634 76 76.0661V48.6082C76 41.0403 69.865 34.9053 62.2971 34.9053Z" fill="white"/>
<g filter="url(#filter5_d)">
<path d="M38.7929 66.3581C38.7929 64.1075 36.9684 62.283 34.7177 62.283C32.4671 62.283 30.6426 64.1075 30.6426 66.3581V76.1526C30.6426 78.4032 32.4671 80.2278 34.7177 80.2278C36.9684 80.2278 38.7929 78.4032 38.7929 76.1526V66.3581Z" fill="#1C7DF8" fill-opacity="0.01"/>
</g>
<path d="M38.7929 66.3584C38.7929 64.1077 36.9684 62.2832 34.7177 62.2832C32.4671 62.2832 30.6426 64.1077 30.6426 66.3584V76.1528C30.6426 78.4035 32.4671 80.228 34.7177 80.228C36.9684 80.228 38.7929 78.4035 38.7929 76.1528V66.3584Z" fill="#1C7DF8"/>
<g filter="url(#filter6_d)">
<path d="M52.0741 56.1159C52.0741 53.8653 50.2496 52.0408 47.999 52.0408C45.7483 52.0408 43.9238 53.8653 43.9238 56.1159V76.1528C43.9238 78.4035 45.7483 80.228 47.999 80.228C50.2496 80.228 52.0741 78.4035 52.0741 76.1528V56.1159Z" fill="#FFCD1D" fill-opacity="0.01"/>
</g>
<path d="M52.0741 56.1162C52.0741 53.8655 50.2496 52.041 47.999 52.041C45.7483 52.041 43.9238 53.8655 43.9238 56.1162V76.1531C43.9238 78.4037 45.7483 80.2282 47.999 80.2282C50.2496 80.2282 52.0741 78.4037 52.0741 76.1531V56.1162Z" fill="#FFCD1D"/>
<g filter="url(#filter7_d)">
<path d="M65.3554 48.5222C65.3554 46.2715 63.5309 44.447 61.2802 44.447C59.0296 44.447 57.2051 46.2715 57.2051 48.5222V76.153C57.2051 78.4036 59.0296 80.2281 61.2802 80.2281C63.5309 80.2281 65.3554 78.4036 65.3554 76.153V48.5222Z" fill="#72D962" fill-opacity="0.01"/>
</g>
<path d="M65.3554 48.5219C65.3554 46.2713 63.5309 44.4468 61.2802 44.4468C59.0296 44.4468 57.2051 46.2713 57.2051 48.5219V76.1527C57.2051 78.4034 59.0296 80.2279 61.2802 80.2279C63.5309 80.2279 65.3554 78.4034 65.3554 76.1527V48.5219Z" fill="#72D962"/>
<g filter="url(#filter8_d)">
<path d="M177.576 102.189H146.43C138.186 102.189 131.504 108.872 131.504 117.115V147.023C131.504 155.267 138.186 161.949 146.43 161.949H177.576C185.819 161.949 192.502 155.267 192.502 147.023V117.115C192.502 108.872 185.819 102.189 177.576 102.189Z" fill="white" fill-opacity="0.01"/>
</g>
<path d="M177.576 102.189H146.43C138.186 102.189 131.504 108.872 131.504 117.115V147.023C131.504 155.267 138.186 161.949 146.43 161.949H177.576C185.819 161.949 192.502 155.267 192.502 147.023V117.115C192.502 108.872 185.819 102.189 177.576 102.189Z" fill="white"/>
<g filter="url(#filter9_d)">
<path d="M151.385 117.682C154.505 115.379 158.289 114.154 162.167 114.189C166.044 114.225 169.805 115.52 172.882 117.879C175.96 120.239 178.187 123.535 179.227 127.27C180.268 131.006 180.066 134.978 178.653 138.589" stroke="#1C7DF8" stroke-opacity="0.01" stroke-width="8.69871" stroke-linecap="round"/>
</g>
<path d="M151.385 117.682C154.505 115.379 158.289 114.154 162.167 114.189C166.044 114.225 169.805 115.52 172.882 117.879C175.96 120.239 178.187 123.535 179.227 127.27C180.268 131.006 180.066 134.978 178.653 138.589" stroke="#1C7DF8" stroke-width="8.69871" stroke-linecap="round"/>
<g filter="url(#filter10_d)">
<path d="M178.657 138.578C177.619 141.233 175.961 143.602 173.822 145.487C171.683 147.371 169.124 148.717 166.359 149.412C163.594 150.106 160.703 150.129 157.927 149.48C155.151 148.83 152.57 147.525 150.401 145.676" stroke="#FFCD1D" stroke-opacity="0.01" stroke-width="8.69871" stroke-linecap="round"/>
</g>
<path d="M178.657 138.578C177.619 141.233 175.961 143.602 173.822 145.487C171.683 147.371 169.124 148.717 166.359 149.412C163.594 150.106 160.703 150.129 157.927 149.48C155.151 148.83 152.57 147.525 150.401 145.676" stroke="#FFCD1D" stroke-width="8.69871" stroke-linecap="round"/>
<g filter="url(#filter11_d)">
<path d="M150.575 145.822C147.521 143.285 145.399 139.803 144.543 135.926C143.686 132.05 144.144 127.998 145.845 124.411C147.545 120.823 150.391 117.903 153.934 116.112C157.478 114.321 161.516 113.759 165.413 114.517" stroke="#72D962" stroke-opacity="0.01" stroke-width="8.69871" stroke-linecap="round"/>
</g>
<path d="M150.575 145.822C147.521 143.285 145.399 139.803 144.543 135.926C143.686 132.05 144.144 127.998 145.845 124.411C147.545 120.823 150.391 117.903 153.934 116.112C157.478 114.321 161.516 113.759 165.413 114.517" stroke="#72D962" stroke-width="8.69871" stroke-linecap="round"/>
<defs>
<filter id="filter0_d" x="4.7168" y="0" width="204" height="204" filterUnits="userSpaceOnUse" color-interpolation-filters="sRGB">
<feFlood flood-opacity="0" result="BackgroundImageFix"/>
<feColorMatrix in="SourceAlpha" type="matrix" values="0 0 0 0 0 0 0 0 0 0 0 0 0 0 0 0 0 0 127 0"/>
<feOffset dy="3"/>
<feGaussianBlur stdDeviation="12"/>
<feColorMatrix type="matrix" values="0 0 0 0 0.0976562 0 0 0 0 0.192861 0 0 0 0 0.3125 0 0 0 0.12 0"/>
<feBlend mode="normal" in2="BackgroundImageFix" result="effect1_dropShadow"/>
<feBlend mode="normal" in="SourceGraphic" in2="effect1_dropShadow" result="shape"/>
</filter>
<filter id="filter1_dd" x="57.7168" y="44.0002" width="98.0002" height="80.9998" filterUnits="userSpaceOnUse" color-interpolation-filters="sRGB">
<feFlood flood-opacity="0" result="BackgroundImageFix"/>
<feColorMatrix in="SourceAlpha" type="matrix" values="0 0 0 0 0 0 0 0 0 0 0 0 0 0 0 0 0 0 127 0"/>
<feOffset dy="-1"/>
<feGaussianBlur stdDeviation="3.5"/>
<feColorMatrix type="matrix" values="0 0 0 0 0.0976562 0 0 0 0 0.192861 0 0 0 0 0.3125 0 0 0 0.04 0"/>
<feBlend mode="normal" in2="BackgroundImageFix" result="effect1_dropShadow"/>
<feColorMatrix in="SourceAlpha" type="matrix" values="0 0 0 0 0 0 0 0 0 0 0 0 0 0 0 0 0 0 127 0"/>
<feOffset dy="-1"/>
<feGaussianBlur stdDeviation="5.5"/>
<feColorMatrix type="matrix" values="0 0 0 0 0.109219 0 0 0 0 0.491032 0 0 0 0 0.970833 0 0 0 0.06 0"/>
<feBlend mode="normal" in2="effect1_dropShadow" result="effect2_dropShadow"/>
<feBlend mode="normal" in="SourceGraphic" in2="effect2_dropShadow" result="shape"/>
</filter>
<filter id="filter2_d" x="74.7046" y="67.2277" width="64.0247" height="42.5448" filterUnits="userSpaceOnUse" color-interpolation-filters="sRGB">
<feFlood flood-opacity="0" result="BackgroundImageFix"/>
<feColorMatrix in="SourceAlpha" type="matrix" values="0 0 0 0 0 0 0 0 0 0 0 0 0 0 0 0 0 0 127 0"/>
<feOffset dy="3"/>
<feGaussianBlur stdDeviation="2"/>
<feColorMatrix type="matrix" values="0 0 0 0 0.44795 0 0 0 0 0.85 0 0 0 0 0.3825 0 0 0 0.28 0"/>
<feBlend mode="normal" in2="BackgroundImageFix" result="effect1_dropShadow"/>
<feBlend mode="normal" in="SourceGraphic" in2="effect1_dropShadow" result="shape"/>
</filter>
<filter id="filter3_d" x="49.5098" y="74.606" width="114.844" height="88.394" filterUnits="userSpaceOnUse" color-interpolation-filters="sRGB">
<feFlood flood-opacity="0" result="BackgroundImageFix"/>
<feColorMatrix in="SourceAlpha" type="matrix" values="0 0 0 0 0 0 0 0 0 0 0 0 0 0 0 0 0 0 127 0"/>
<feOffset dy="4"/>
<feGaussianBlur stdDeviation="6.5"/>
<feColorMatrix type="matrix" values="0 0 0 0 0.109219 0 0 0 0 0.491032 0 0 0 0 0.970833 0 0 0 0.47 0"/>
<feBlend mode="normal" in2="BackgroundImageFix" result="effect1_dropShadow"/>
<feBlend mode="normal" in="SourceGraphic" in2="effect1_dropShadow" result="shape"/>
</filter>
<filter id="filter4_d" x="0.83106" y="26.1515" width="94.3379" height="93.2016" filterUnits="userSpaceOnUse" color-interpolation-filters="sRGB">
<feFlood flood-opacity="0" result="BackgroundImageFix"/>
<feColorMatrix in="SourceAlpha" type="matrix" values="0 0 0 0 0 0 0 0 0 0 0 0 0 0 0 0 0 0 127 0"/>
<feOffset dy="10.4152"/>
<feGaussianBlur stdDeviation="9.58447"/>
<feColorMatrix type="matrix" values="0 0 0 0 0.0570834 0 0 0 0 0.284745 0 0 0 0 0.570833 0 0 0 0.15 0"/>
<feBlend mode="normal" in2="BackgroundImageFix" result="effect1_dropShadow"/>
<feBlend mode="normal" in="SourceGraphic" in2="effect1_dropShadow" result="shape"/>
</filter>
<filter id="filter5_d" x="28.0325" y="62.2829" width="13.3705" height="23.165" filterUnits="userSpaceOnUse" color-interpolation-filters="sRGB">
<feFlood flood-opacity="0" result="BackgroundImageFix"/>
<feColorMatrix in="SourceAlpha" type="matrix" values="0 0 0 0 0 0 0 0 0 0 0 0 0 0 0 0 0 0 127 0"/>
<feOffset dy="2.61007"/>
<feGaussianBlur stdDeviation="1.30504"/>
<feColorMatrix type="matrix" values="0 0 0 0 0.109219 0 0 0 0 0.491032 0 0 0 0 0.970833 0 0 0 0.22 0"/>
<feBlend mode="normal" in2="BackgroundImageFix" result="effect1_dropShadow"/>
<feBlend mode="normal" in="SourceGraphic" in2="effect1_dropShadow" result="shape"/>
</filter>
<filter id="filter6_d" x="41.3137" y="51.3882" width="13.3705" height="33.4074" filterUnits="userSpaceOnUse" color-interpolation-filters="sRGB">
<feFlood flood-opacity="0" result="BackgroundImageFix"/>
<feColorMatrix in="SourceAlpha" type="matrix" values="0 0 0 0 0 0 0 0 0 0 0 0 0 0 0 0 0 0 127 0"/>
<feOffset dy="1.95755"/>
<feGaussianBlur stdDeviation="1.30504"/>
<feColorMatrix type="matrix" values="0 0 0 0 1 0 0 0 0 0.80475 0 0 0 0 0.1125 0 0 0 0.18 0"/>
<feBlend mode="normal" in2="BackgroundImageFix" result="effect1_dropShadow"/>
<feBlend mode="normal" in="SourceGraphic" in2="effect1_dropShadow" result="shape"/>
</filter>
<filter id="filter7_d" x="54.595" y="44.447" width="13.3705" height="41.0013" filterUnits="userSpaceOnUse" color-interpolation-filters="sRGB">
<feFlood flood-opacity="0" result="BackgroundImageFix"/>
<feColorMatrix in="SourceAlpha" type="matrix" values="0 0 0 0 0 0 0 0 0 0 0 0 0 0 0 0 0 0 127 0"/>
<feOffset dy="2.61007"/>
<feGaussianBlur stdDeviation="1.30504"/>
<feColorMatrix type="matrix" values="0 0 0 0 0.44795 0 0 0 0 0.85 0 0 0 0 0.3825 0 0 0 0.15 0"/>
<feBlend mode="normal" in2="BackgroundImageFix" result="effect1_dropShadow"/>
<feBlend mode="normal" in="SourceGraphic" in2="effect1_dropShadow" result="shape"/>
</filter>
<filter id="filter8_d" x="110.624" y="92.654" width="102.758" height="101.52" filterUnits="userSpaceOnUse" color-interpolation-filters="sRGB">
<feFlood flood-opacity="0" result="BackgroundImageFix"/>
<feColorMatrix in="SourceAlpha" type="matrix" values="0 0 0 0 0 0 0 0 0 0 0 0 0 0 0 0 0 0 127 0"/>
<feOffset dy="11.3448"/>
<feGaussianBlur stdDeviation="10.4399"/>
<feColorMatrix type="matrix" values="0 0 0 0 0.0570834 0 0 0 0 0.284745 0 0 0 0 0.570833 0 0 0 0.15 0"/>
<feBlend mode="normal" in2="BackgroundImageFix" result="effect1_dropShadow"/>
<feBlend mode="normal" in="SourceGraphic" in2="effect1_dropShadow" result="shape"/>
</filter>
<filter id="filter9_d" x="143.112" y="107.404" width="45.0439" height="40.9472" filterUnits="userSpaceOnUse" color-interpolation-filters="sRGB">
<feFlood flood-opacity="0" result="BackgroundImageFix"/>
<feColorMatrix in="SourceAlpha" type="matrix" values="0 0 0 0 0 0 0 0 0 0 0 0 0 0 0 0 0 0 127 0"/>
<feOffset dy="1.48864"/>
<feGaussianBlur stdDeviation="1.96166"/>
<feColorMatrix type="matrix" values="0 0 0 0 0.109219 0 0 0 0 0.491032 0 0 0 0 0.970833 0 0 0 0.18 0"/>
<feBlend mode="normal" in2="BackgroundImageFix" result="effect1_dropShadow"/>
<feBlend mode="normal" in="SourceGraphic" in2="effect1_dropShadow" result="shape"/>
</filter>
<filter id="filter10_d" x="141.023" y="129.943" width="47.0132" height="30.1294" filterUnits="userSpaceOnUse" color-interpolation-filters="sRGB">
<feFlood flood-opacity="0" result="BackgroundImageFix"/>
<feColorMatrix in="SourceAlpha" type="matrix" values="0 0 0 0 0 0 0 0 0 0 0 0 0 0 0 0 0 0 127 0"/>
<feOffset dy="0.744322"/>
<feGaussianBlur stdDeviation="2.51432"/>
<feColorMatrix type="matrix" values="0 0 0 0 1 0 0 0 0 0.80475 0 0 0 0 0.1125 0 0 0 0.18 0"/>
<feBlend mode="normal" in2="BackgroundImageFix" result="effect1_dropShadow"/>
<feBlend mode="normal" in="SourceGraphic" in2="effect1_dropShadow" result="shape"/>
</filter>
<filter id="filter11_d" x="135.849" y="108.248" width="37.8376" height="48.1791" filterUnits="userSpaceOnUse" color-interpolation-filters="sRGB">
<feFlood flood-opacity="0" result="BackgroundImageFix"/>
<feColorMatrix in="SourceAlpha" type="matrix" values="0 0 0 0 0 0 0 0 0 0 0 0 0 0 0 0 0 0 127 0"/>
<feOffset dy="2.33212"/>
<feGaussianBlur stdDeviation="1.96166"/>
<feColorMatrix type="matrix" values="0 0 0 0 0.44795 0 0 0 0 0.85 0 0 0 0 0.3825 0 0 0 0.31 0"/>
<feBlend mode="normal" in2="BackgroundImageFix" result="effect1_dropShadow"/>
<feBlend mode="normal" in="SourceGraphic" in2="effect1_dropShadow" result="shape"/>
</filter>
</defs>
</svg>
