<svg width="17" height="17" viewBox="0 0 17 17" fill="none" xmlns="http://www.w3.org/2000/svg">
<path d="M13.5942 1.40598C14.3385 0.661655 15.5453 0.661655 16.2896 1.40598C16.9663 2.08265 17.0278 3.14151 16.4742 3.88766L16.2896 4.10143L4.11173 16.2793C3.3674 17.0237 2.16061 17.0237 1.41628 16.2793C0.739615 15.6027 0.678101 14.5438 1.23173 13.7976L1.41628 13.5839L13.5942 1.40598Z" fill="#193150"/>
<path d="M1.40897 1.40088C2.08571 0.724288 3.14458 0.662883 3.89067 1.21659L4.10442 1.40116L16.2925 13.5918C17.0367 14.3362 17.0366 15.543 16.2922 16.2872C15.6155 16.9638 14.5566 17.0252 13.8105 16.4715L13.5967 16.2869L1.40869 4.09633C0.664441 3.35192 0.664567 2.14513 1.40897 1.40088Z" fill="#193150"/>
</svg>
