<svg width="415" height="302" viewBox="0 0 415 302" fill="none" xmlns="http://www.w3.org/2000/svg">
<g clip-path="url(#clip0)">
<path d="M415 0H0V302H415V0Z" fill="white"/>
<path d="M415.106 0H0V301.776H415.106V0Z" fill="#72D962"/>
<path d="M164.883 54.7473H277.794C289.445 54.7473 298.89 64.1921 298.89 75.8428V111.365" stroke="#A2EF95" stroke-width="4.2191" stroke-linecap="round" stroke-dasharray="10.55 10.55"/>
<path d="M251.797 247.029H138.369C126.718 247.029 117.273 237.584 117.273 225.934V190.193" stroke="#A2EF95" stroke-width="4.2191" stroke-linecap="round" stroke-dasharray="10.55 10.55"/>
<g filter="url(#filter0_d)">
<path d="M168.526 31.4839H64.9815C52.1656 31.4839 41.7764 41.8732 41.7764 54.689V173.195C41.7764 186.011 52.1656 196.4 64.9815 196.4H168.526C181.342 196.4 191.731 186.011 191.731 173.195V54.689C191.731 41.8732 181.342 31.4839 168.526 31.4839Z" fill="white" fill-opacity="0.01"/>
</g>
<path d="M168.526 31.4839H64.9815C52.1656 31.4839 41.7764 41.8732 41.7764 54.689V173.195C41.7764 186.011 52.1656 196.4 64.9815 196.4H168.526C181.342 196.4 191.731 186.011 191.731 173.195V54.689C191.731 41.8732 181.342 31.4839 168.526 31.4839Z" fill="white"/>
<g filter="url(#filter1_d)">
<path d="M170.636 59.1565H62.8923C58.232 59.1565 54.4541 62.9344 54.4541 67.5947V101.44C54.4541 106.1 58.232 109.878 62.8923 109.878H170.636C175.296 109.878 179.074 106.1 179.074 101.44V67.5947C179.074 62.9344 175.296 59.1565 170.636 59.1565Z" fill="#72D962" fill-opacity="0.01"/>
</g>
<path d="M170.636 59.1565H62.8923C58.232 59.1565 54.4541 62.9344 54.4541 67.5947V101.44C54.4541 106.1 58.232 109.878 62.8923 109.878H170.636C175.296 109.878 179.074 106.1 179.074 101.44V67.5947C179.074 62.9344 175.296 59.1565 170.636 59.1565Z" fill="#72D962"/>
<g filter="url(#filter2_d)">
<path d="M59.6176 52.3228C62.4693 52.3228 64.7811 50.0111 64.7811 47.1594C64.7811 44.3076 62.4693 41.9958 59.6176 41.9958C56.7659 41.9958 54.4541 44.3076 54.4541 47.1594C54.4541 50.0111 56.7659 52.3228 59.6176 52.3228Z" fill="#F4263E" fill-opacity="0.01"/>
</g>
<path d="M59.6176 52.3228C62.4693 52.3228 64.7811 50.0111 64.7811 47.1594C64.7811 44.3076 62.4693 41.9958 59.6176 41.9958C56.7659 41.9958 54.4541 44.3076 54.4541 47.1594C54.4541 50.0111 56.7659 52.3228 59.6176 52.3228Z" fill="#F4263E"/>
<g filter="url(#filter3_d)">
<path d="M74.4262 52.3228C77.2779 52.3228 79.5897 50.0111 79.5897 47.1594C79.5897 44.3076 77.2779 41.9958 74.4262 41.9958C71.5745 41.9958 69.2627 44.3076 69.2627 47.1594C69.2627 50.0111 71.5745 52.3228 74.4262 52.3228Z" fill="#FFCD1D" fill-opacity="0.01"/>
</g>
<path d="M74.4262 52.3228C77.2779 52.3228 79.5897 50.0111 79.5897 47.1594C79.5897 44.3076 77.2779 41.9958 74.4262 41.9958C71.5745 41.9958 69.2627 44.3076 69.2627 47.1594C69.2627 50.0111 71.5745 52.3228 74.4262 52.3228Z" fill="#FFCD1D"/>
<g filter="url(#filter4_d)">
<path d="M89.2328 52.3228C92.0846 52.3228 94.3963 50.0111 94.3963 47.1594C94.3963 44.3076 92.0846 41.9958 89.2328 41.9958C86.3811 41.9958 84.0693 44.3076 84.0693 47.1594C84.0693 50.0111 86.3811 52.3228 89.2328 52.3228Z" fill="#83E436" fill-opacity="0.01"/>
</g>
<path d="M89.2328 52.3228C92.0846 52.3228 94.3963 50.0111 94.3963 47.1594C94.3963 44.3076 92.0846 41.9958 89.2328 41.9958C86.3811 41.9958 84.0693 44.3076 84.0693 47.1594C84.0693 50.0111 86.3811 52.3228 89.2328 52.3228Z" fill="#83E436"/>
<path opacity="0.7" d="M87.1357 119.336H59.727C56.8143 119.336 54.4531 121.697 54.4531 124.61V145.21C54.4531 148.123 56.8143 150.484 59.727 150.484H87.1357C90.0484 150.484 92.4096 148.123 92.4096 145.21V124.61C92.4096 121.697 90.0484 119.336 87.1357 119.336Z" fill="#DCE3ED"/>
<path opacity="0.7" d="M89.0789 155.504H57.7839C55.9444 155.504 54.4531 156.995 54.4531 158.835C54.4531 160.674 55.9444 162.165 57.7839 162.165H89.0789C90.9184 162.165 92.4096 160.674 92.4096 158.835C92.4096 156.995 90.9184 155.504 89.0789 155.504Z" fill="#B4C2D6"/>
<path opacity="0.7" d="M130.458 119.336H103.049C100.137 119.336 97.7754 121.697 97.7754 124.61V145.21C97.7754 148.123 100.137 150.484 103.049 150.484H130.458C133.371 150.484 135.732 148.123 135.732 145.21V124.61C135.732 121.697 133.371 119.336 130.458 119.336Z" fill="#DCE3ED"/>
<path opacity="0.7" d="M132.401 155.504H101.106C99.2666 155.504 97.7754 156.995 97.7754 158.835C97.7754 160.674 99.2666 162.165 101.106 162.165H132.401C134.241 162.165 135.732 160.674 135.732 158.835C135.732 156.995 134.241 155.504 132.401 155.504Z" fill="#B4C2D6"/>
<path opacity="0.7" d="M173.8 119.336H146.391C143.478 119.336 141.117 121.697 141.117 124.61V145.21C141.117 148.123 143.478 150.484 146.391 150.484H173.8C176.712 150.484 179.073 148.123 179.073 145.21V124.61C179.073 121.697 176.712 119.336 173.8 119.336Z" fill="#DCE3ED"/>
<path opacity="0.7" d="M175.743 155.504H144.448C142.608 155.504 141.117 156.995 141.117 158.835C141.117 160.674 142.608 162.165 144.448 162.165H175.743C177.582 162.165 179.073 160.674 179.073 158.835C179.073 156.995 177.582 155.504 175.743 155.504Z" fill="#B4C2D6"/>
<g filter="url(#filter5_d)">
<path d="M128.787 173.09H104.72C101.807 173.09 99.4463 175.451 99.4463 178.364V178.364C99.4463 181.277 101.807 183.638 104.72 183.638H128.787C131.699 183.638 134.06 181.277 134.06 178.364V178.364C134.06 175.451 131.699 173.09 128.787 173.09Z" fill="#1C7DF8" fill-opacity="0.01"/>
</g>
<path d="M128.787 173.09H104.72C101.807 173.09 99.4463 175.451 99.4463 178.364V178.364C99.4463 181.277 101.807 183.638 104.72 183.638H128.787C131.699 183.638 134.06 181.277 134.06 178.364V178.364C134.06 175.451 131.699 173.09 128.787 173.09Z" fill="#1C7DF8"/>
<g filter="url(#filter6_d)">
<path d="M350.125 105.376H246.58C233.764 105.376 223.375 115.765 223.375 128.581V247.087C223.375 259.903 233.764 270.292 246.58 270.292H350.125C362.941 270.292 373.33 259.903 373.33 247.087V128.581C373.33 115.765 362.941 105.376 350.125 105.376Z" fill="white" fill-opacity="0.01"/>
</g>
<path d="M350.125 105.376H246.58C233.764 105.376 223.375 115.765 223.375 128.581V247.087C223.375 259.903 233.764 270.292 246.58 270.292H350.125C362.941 270.292 373.33 259.903 373.33 247.087V128.581C373.33 115.765 362.941 105.376 350.125 105.376Z" fill="white"/>
<mask id="mask0" mask-type="alpha" maskUnits="userSpaceOnUse" x="223" y="105" width="151" height="166">
<path d="M350.125 105.376H246.58C233.764 105.376 223.375 115.765 223.375 128.581V247.087C223.375 259.903 233.764 270.292 246.58 270.292H350.125C362.941 270.292 373.33 259.903 373.33 247.087V128.581C373.33 115.765 362.941 105.376 350.125 105.376Z" fill="white"/>
</mask>
<g mask="url(#mask0)">
<g filter="url(#filter7_d)">
<path d="M301.453 139.629H242.439C237.779 139.629 234.001 143.407 234.001 148.067V173.981C234.001 178.641 237.779 182.419 242.439 182.419H301.453C306.113 182.419 309.891 178.641 309.891 173.981V148.067C309.891 143.407 306.113 139.629 301.453 139.629Z" fill="#72D962" fill-opacity="0.01"/>
</g>
<path d="M301.453 139.629H242.439C237.779 139.629 234.001 143.407 234.001 148.067V173.981C234.001 178.641 237.779 182.419 242.439 182.419H301.453C306.113 182.419 309.891 178.641 309.891 173.981V148.067C309.891 143.407 306.113 139.629 301.453 139.629Z" fill="#72D962"/>
<path opacity="0.7" d="M359.936 144.483H317.273C315.723 144.483 314.467 145.739 314.467 147.289C314.467 148.838 315.723 150.094 317.273 150.094H359.936C361.485 150.094 362.742 148.838 362.742 147.289C362.742 145.739 361.485 144.483 359.936 144.483Z" fill="#778BA5"/>
<path opacity="0.7" d="M343.154 152.204H317.272C315.722 152.204 314.466 153.46 314.466 155.01C314.466 156.559 315.722 157.815 317.272 157.815H343.154C344.704 157.815 345.96 156.559 345.96 155.01C345.96 153.46 344.704 152.204 343.154 152.204Z" fill="#DCE3ED"/>
<path opacity="0.7" d="M354.328 159.925H317.272C315.722 159.925 314.466 161.181 314.466 162.731C314.466 164.28 315.722 165.536 317.272 165.536H354.328C355.878 165.536 357.134 164.28 357.134 162.731C357.134 161.181 355.878 159.925 354.328 159.925Z" fill="#DCE3ED"/>
<path d="M333.055 170.899H317.799C315.958 170.899 314.466 172.391 314.466 174.232C314.466 176.073 315.958 177.565 317.799 177.565H333.055C334.896 177.565 336.389 176.073 336.389 174.232C336.389 172.391 334.896 170.899 333.055 170.899Z" fill="#1C7DF8"/>
<path opacity="0.7" d="M338.036 193.602H317.273C315.723 193.602 314.467 194.858 314.467 196.408C314.467 197.957 315.723 199.213 317.273 199.213H338.036C339.586 199.213 340.842 197.957 340.842 196.408C340.842 194.858 339.586 193.602 338.036 193.602Z" fill="#778BA5"/>
<path opacity="0.7" d="M358.902 201.323H317.272C315.722 201.323 314.466 202.579 314.466 204.129C314.466 205.678 315.722 206.934 317.272 206.934H358.902C360.451 206.934 361.707 205.678 361.707 204.129C361.707 202.579 360.451 201.323 358.902 201.323Z" fill="#DCE3ED"/>
<path opacity="0.7" d="M338.87 209.044H317.272C315.722 209.044 314.466 210.3 314.466 211.85C314.466 213.399 315.722 214.655 317.272 214.655H338.87C340.42 214.655 341.676 213.399 341.676 211.85C341.676 210.3 340.42 209.044 338.87 209.044Z" fill="#DCE3ED"/>
<path d="M333.055 220.018H317.799C315.958 220.018 314.466 221.51 314.466 223.351C314.466 225.192 315.958 226.684 317.799 226.684H333.055C334.896 226.684 336.389 225.192 336.389 223.351C336.389 221.51 334.896 220.018 333.055 220.018Z" fill="#1C7DF8"/>
<path opacity="0.7" d="M355.147 247.029H317.273C315.723 247.029 314.467 248.285 314.467 249.835C314.467 251.384 315.723 252.64 317.273 252.64H355.147C356.696 252.64 357.952 251.384 357.952 249.835C357.952 248.285 356.696 247.029 355.147 247.029Z" fill="#778BA5"/>
<path opacity="0.7" d="M354.937 254.75H317.272C315.722 254.75 314.466 256.006 314.466 257.556C314.466 259.105 315.722 260.361 317.272 260.361H354.937C356.487 260.361 357.743 259.105 357.743 257.556C357.743 256.006 356.487 254.75 354.937 254.75Z" fill="#DCE3ED"/>
<path opacity="0.7" d="M331.984 262.471H317.272C315.722 262.471 314.466 263.727 314.466 265.277C314.466 266.826 315.722 268.082 317.272 268.082H331.984C333.534 268.082 334.79 266.826 334.79 265.277C334.79 263.727 333.534 262.471 331.984 262.471Z" fill="#DCE3ED"/>
<g filter="url(#filter8_d)">
<path d="M301.453 187.843H242.439C237.779 187.843 234.001 191.621 234.001 196.281V222.195C234.001 226.855 237.779 230.633 242.439 230.633H301.453C306.113 230.633 309.891 226.855 309.891 222.195V196.281C309.891 191.621 306.113 187.843 301.453 187.843Z" fill="#72D962" fill-opacity="0.01"/>
</g>
<path d="M301.453 187.834H242.439C237.779 187.834 234.001 191.612 234.001 196.272V222.186C234.001 226.846 237.779 230.624 242.439 230.624H301.453C306.113 230.624 309.891 226.846 309.891 222.186V196.272C309.891 191.612 306.113 187.834 301.453 187.834Z" fill="#72D962"/>
<g filter="url(#filter9_d)">
<path d="M301.453 237.867H242.439C237.779 237.867 234.001 241.645 234.001 246.305V272.219C234.001 276.879 237.779 280.657 242.439 280.657H301.453C306.113 280.657 309.891 276.879 309.891 272.219V246.305C309.891 241.645 306.113 237.867 301.453 237.867Z" fill="#72D962" fill-opacity="0.01"/>
</g>
<path d="M301.453 237.867H242.439C237.779 237.867 234.001 241.645 234.001 246.305V272.219C234.001 276.879 237.779 280.657 242.439 280.657H301.453C306.113 280.657 309.891 276.879 309.891 272.219V246.305C309.891 241.645 306.113 237.867 301.453 237.867Z" fill="#72D962"/>
<g filter="url(#filter10_d)">
<path d="M241.216 129.662C244.068 129.662 246.379 127.351 246.379 124.499C246.379 121.647 244.068 119.335 241.216 119.335C238.364 119.335 236.052 121.647 236.052 124.499C236.052 127.351 238.364 129.662 241.216 129.662Z" fill="#F4263E" fill-opacity="0.01"/>
</g>
<path d="M241.217 129.663C244.069 129.663 246.38 127.351 246.38 124.499C246.38 121.648 244.069 119.336 241.217 119.336C238.365 119.336 236.053 121.648 236.053 124.499C236.053 127.351 238.365 129.663 241.217 129.663Z" fill="#F4263E"/>
<g filter="url(#filter11_d)">
<path d="M256.024 129.662C258.876 129.662 261.187 127.351 261.187 124.499C261.187 121.647 258.876 119.335 256.024 119.335C253.172 119.335 250.86 121.647 250.86 124.499C250.86 127.351 253.172 129.662 256.024 129.662Z" fill="#FFCD1D" fill-opacity="0.01"/>
</g>
<path d="M256.024 129.662C258.876 129.662 261.187 127.351 261.187 124.499C261.187 121.647 258.876 119.335 256.024 119.335C253.172 119.335 250.86 121.647 250.86 124.499C250.86 127.351 253.172 129.662 256.024 129.662Z" fill="#FFCD1D"/>
<g filter="url(#filter12_d)">
<path d="M270.831 129.662C273.683 129.662 275.994 127.351 275.994 124.499C275.994 121.647 273.683 119.335 270.831 119.335C267.979 119.335 265.667 121.647 265.667 124.499C265.667 127.351 267.979 129.662 270.831 129.662Z" fill="#83E436" fill-opacity="0.01"/>
</g>
<path d="M270.832 129.663C273.684 129.663 275.995 127.351 275.995 124.499C275.995 121.648 273.684 119.336 270.832 119.336C267.98 119.336 265.668 121.648 265.668 124.499C265.668 127.351 267.98 129.663 270.832 129.663Z" fill="#83E436"/>
</g>
</g>
<defs>
<filter id="filter0_d" x="-0.994831" y="-7.11954" width="235.497" height="250.458" filterUnits="userSpaceOnUse" color-interpolation-filters="sRGB">
<feFlood flood-opacity="0" result="BackgroundImageFix"/>
<feColorMatrix in="SourceAlpha" type="matrix" values="0 0 0 0 0 0 0 0 0 0 0 0 0 0 0 0 0 0 127 0"/>
<feOffset dy="4.16777"/>
<feGaussianBlur stdDeviation="21.3856"/>
<feColorMatrix type="matrix" values="0 0 0 0 0.0880209 0 0 0 0 0.541667 0 0 0 0 0.215042 0 0 0 0.58 0"/>
<feBlend mode="normal" in2="BackgroundImageFix" result="effect1_dropShadow"/>
<feBlend mode="normal" in="SourceGraphic" in2="effect1_dropShadow" result="shape"/>
</filter>
<filter id="filter1_d" x="47.0707" y="54.9374" width="139.387" height="65.4881" filterUnits="userSpaceOnUse" color-interpolation-filters="sRGB">
<feFlood flood-opacity="0" result="BackgroundImageFix"/>
<feColorMatrix in="SourceAlpha" type="matrix" values="0 0 0 0 0 0 0 0 0 0 0 0 0 0 0 0 0 0 127 0"/>
<feOffset dy="3.16433"/>
<feGaussianBlur stdDeviation="3.69171"/>
<feColorMatrix type="matrix" values="0 0 0 0 0.44795 0 0 0 0 0.85 0 0 0 0 0.3825 0 0 0 0.22 0"/>
<feBlend mode="normal" in2="BackgroundImageFix" result="effect1_dropShadow"/>
<feBlend mode="normal" in="SourceGraphic" in2="effect1_dropShadow" result="shape"/>
</filter>
<filter id="filter2_d" x="51.9848" y="41.9958" width="15.2656" height="15.2656" filterUnits="userSpaceOnUse" color-interpolation-filters="sRGB">
<feFlood flood-opacity="0" result="BackgroundImageFix"/>
<feColorMatrix in="SourceAlpha" type="matrix" values="0 0 0 0 0 0 0 0 0 0 0 0 0 0 0 0 0 0 127 0"/>
<feOffset dy="2.46927"/>
<feGaussianBlur stdDeviation="1.23464"/>
<feColorMatrix type="matrix" values="0 0 0 0 0.956863 0 0 0 0 0.14902 0 0 0 0 0.243137 0 0 0 0.12 0"/>
<feBlend mode="normal" in2="BackgroundImageFix" result="effect1_dropShadow"/>
<feBlend mode="normal" in="SourceGraphic" in2="effect1_dropShadow" result="shape"/>
</filter>
<filter id="filter3_d" x="66.7934" y="41.9958" width="15.2656" height="15.2656" filterUnits="userSpaceOnUse" color-interpolation-filters="sRGB">
<feFlood flood-opacity="0" result="BackgroundImageFix"/>
<feColorMatrix in="SourceAlpha" type="matrix" values="0 0 0 0 0 0 0 0 0 0 0 0 0 0 0 0 0 0 127 0"/>
<feOffset dy="2.46927"/>
<feGaussianBlur stdDeviation="1.23464"/>
<feColorMatrix type="matrix" values="0 0 0 0 1 0 0 0 0 0.80475 0 0 0 0 0.1125 0 0 0 0.25 0"/>
<feBlend mode="normal" in2="BackgroundImageFix" result="effect1_dropShadow"/>
<feBlend mode="normal" in="SourceGraphic" in2="effect1_dropShadow" result="shape"/>
</filter>
<filter id="filter4_d" x="81.6001" y="41.9958" width="15.2656" height="15.2656" filterUnits="userSpaceOnUse" color-interpolation-filters="sRGB">
<feFlood flood-opacity="0" result="BackgroundImageFix"/>
<feColorMatrix in="SourceAlpha" type="matrix" values="0 0 0 0 0 0 0 0 0 0 0 0 0 0 0 0 0 0 127 0"/>
<feOffset dy="2.46927"/>
<feGaussianBlur stdDeviation="1.23464"/>
<feColorMatrix type="matrix" values="0 0 0 0 0.513726 0 0 0 0 0.894118 0 0 0 0 0.211765 0 0 0 0.25 0"/>
<feBlend mode="normal" in2="BackgroundImageFix" result="effect1_dropShadow"/>
<feBlend mode="normal" in="SourceGraphic" in2="effect1_dropShadow" result="shape"/>
</filter>
<filter id="filter5_d" x="93.1176" y="169.926" width="47.2715" height="23.2051" filterUnits="userSpaceOnUse" color-interpolation-filters="sRGB">
<feFlood flood-opacity="0" result="BackgroundImageFix"/>
<feColorMatrix in="SourceAlpha" type="matrix" values="0 0 0 0 0 0 0 0 0 0 0 0 0 0 0 0 0 0 127 0"/>
<feOffset dy="3.16433"/>
<feGaussianBlur stdDeviation="3.16433"/>
<feColorMatrix type="matrix" values="0 0 0 0 0.109219 0 0 0 0 0.491032 0 0 0 0 0.970833 0 0 0 0.21 0"/>
<feBlend mode="normal" in2="BackgroundImageFix" result="effect1_dropShadow"/>
<feBlend mode="normal" in="SourceGraphic" in2="effect1_dropShadow" result="shape"/>
</filter>
<filter id="filter6_d" x="180.604" y="66.7725" width="235.497" height="250.458" filterUnits="userSpaceOnUse" color-interpolation-filters="sRGB">
<feFlood flood-opacity="0" result="BackgroundImageFix"/>
<feColorMatrix in="SourceAlpha" type="matrix" values="0 0 0 0 0 0 0 0 0 0 0 0 0 0 0 0 0 0 127 0"/>
<feOffset dy="4.16777"/>
<feGaussianBlur stdDeviation="21.3856"/>
<feColorMatrix type="matrix" values="0 0 0 0 0.0880209 0 0 0 0 0.541667 0 0 0 0 0.215042 0 0 0 0.58 0"/>
<feBlend mode="normal" in2="BackgroundImageFix" result="effect1_dropShadow"/>
<feBlend mode="normal" in="SourceGraphic" in2="effect1_dropShadow" result="shape"/>
</filter>
<filter id="filter7_d" x="226.618" y="135.41" width="90.6569" height="57.5571" filterUnits="userSpaceOnUse" color-interpolation-filters="sRGB">
<feFlood flood-opacity="0" result="BackgroundImageFix"/>
<feColorMatrix in="SourceAlpha" type="matrix" values="0 0 0 0 0 0 0 0 0 0 0 0 0 0 0 0 0 0 127 0"/>
<feOffset dy="3.16433"/>
<feGaussianBlur stdDeviation="3.69171"/>
<feColorMatrix type="matrix" values="0 0 0 0 0.44795 0 0 0 0 0.85 0 0 0 0 0.3825 0 0 0 0.22 0"/>
<feBlend mode="normal" in2="BackgroundImageFix" result="effect1_dropShadow"/>
<feBlend mode="normal" in="SourceGraphic" in2="effect1_dropShadow" result="shape"/>
</filter>
<filter id="filter8_d" x="226.618" y="183.624" width="90.6569" height="57.5571" filterUnits="userSpaceOnUse" color-interpolation-filters="sRGB">
<feFlood flood-opacity="0" result="BackgroundImageFix"/>
<feColorMatrix in="SourceAlpha" type="matrix" values="0 0 0 0 0 0 0 0 0 0 0 0 0 0 0 0 0 0 127 0"/>
<feOffset dy="3.16433"/>
<feGaussianBlur stdDeviation="3.69171"/>
<feColorMatrix type="matrix" values="0 0 0 0 0.44795 0 0 0 0 0.85 0 0 0 0 0.3825 0 0 0 0.22 0"/>
<feBlend mode="normal" in2="BackgroundImageFix" result="effect1_dropShadow"/>
<feBlend mode="normal" in="SourceGraphic" in2="effect1_dropShadow" result="shape"/>
</filter>
<filter id="filter9_d" x="226.618" y="233.648" width="90.6569" height="57.5571" filterUnits="userSpaceOnUse" color-interpolation-filters="sRGB">
<feFlood flood-opacity="0" result="BackgroundImageFix"/>
<feColorMatrix in="SourceAlpha" type="matrix" values="0 0 0 0 0 0 0 0 0 0 0 0 0 0 0 0 0 0 127 0"/>
<feOffset dy="3.16433"/>
<feGaussianBlur stdDeviation="3.69171"/>
<feColorMatrix type="matrix" values="0 0 0 0 0.44795 0 0 0 0 0.85 0 0 0 0 0.3825 0 0 0 0.22 0"/>
<feBlend mode="normal" in2="BackgroundImageFix" result="effect1_dropShadow"/>
<feBlend mode="normal" in="SourceGraphic" in2="effect1_dropShadow" result="shape"/>
</filter>
<filter id="filter10_d" x="233.583" y="119.335" width="15.2656" height="15.2656" filterUnits="userSpaceOnUse" color-interpolation-filters="sRGB">
<feFlood flood-opacity="0" result="BackgroundImageFix"/>
<feColorMatrix in="SourceAlpha" type="matrix" values="0 0 0 0 0 0 0 0 0 0 0 0 0 0 0 0 0 0 127 0"/>
<feOffset dy="2.46927"/>
<feGaussianBlur stdDeviation="1.23464"/>
<feColorMatrix type="matrix" values="0 0 0 0 0.956863 0 0 0 0 0.14902 0 0 0 0 0.243137 0 0 0 0.12 0"/>
<feBlend mode="normal" in2="BackgroundImageFix" result="effect1_dropShadow"/>
<feBlend mode="normal" in="SourceGraphic" in2="effect1_dropShadow" result="shape"/>
</filter>
<filter id="filter11_d" x="248.391" y="119.335" width="15.2656" height="15.2656" filterUnits="userSpaceOnUse" color-interpolation-filters="sRGB">
<feFlood flood-opacity="0" result="BackgroundImageFix"/>
<feColorMatrix in="SourceAlpha" type="matrix" values="0 0 0 0 0 0 0 0 0 0 0 0 0 0 0 0 0 0 127 0"/>
<feOffset dy="2.46927"/>
<feGaussianBlur stdDeviation="1.23464"/>
<feColorMatrix type="matrix" values="0 0 0 0 1 0 0 0 0 0.80475 0 0 0 0 0.1125 0 0 0 0.25 0"/>
<feBlend mode="normal" in2="BackgroundImageFix" result="effect1_dropShadow"/>
<feBlend mode="normal" in="SourceGraphic" in2="effect1_dropShadow" result="shape"/>
</filter>
<filter id="filter12_d" x="263.198" y="119.335" width="15.2656" height="15.2656" filterUnits="userSpaceOnUse" color-interpolation-filters="sRGB">
<feFlood flood-opacity="0" result="BackgroundImageFix"/>
<feColorMatrix in="SourceAlpha" type="matrix" values="0 0 0 0 0 0 0 0 0 0 0 0 0 0 0 0 0 0 127 0"/>
<feOffset dy="2.46927"/>
<feGaussianBlur stdDeviation="1.23464"/>
<feColorMatrix type="matrix" values="0 0 0 0 0.513726 0 0 0 0 0.894118 0 0 0 0 0.211765 0 0 0 0.25 0"/>
<feBlend mode="normal" in2="BackgroundImageFix" result="effect1_dropShadow"/>
<feBlend mode="normal" in="SourceGraphic" in2="effect1_dropShadow" result="shape"/>
</filter>
<clipPath id="clip0">
<rect width="415" height="302" fill="white"/>
</clipPath>
</defs>
</svg>
