<svg width="693" height="374" viewBox="0 0 693 374" fill="none" xmlns="http://www.w3.org/2000/svg">
<g clip-path="url(#clip0)">
<path d="M693 0H0V374H693V0Z" fill="white"/>
<path d="M693 0H0V374H693V0Z" fill="#1C7DF8"/>
<g filter="url(#filter0_d)">
<path d="M376.271 55.5388L99.8678 74.8696C86.0808 75.8338 75.6857 87.792 76.6497 101.579L90.3506 297.539C91.3145 311.326 103.272 321.721 117.059 320.756L393.462 301.426C407.249 300.461 417.644 288.503 416.68 274.716L402.979 78.7565C402.016 64.9695 390.058 54.5746 376.271 55.5388Z" fill="white" fill-opacity="0.01"/>
</g>
<path d="M376.271 55.5388L99.8678 74.8696C86.0808 75.8338 75.6857 87.792 76.6497 101.579L90.3506 297.539C91.3145 311.326 103.272 321.721 117.059 320.756L393.462 301.426C407.249 300.461 417.644 288.503 416.68 274.716L402.979 78.7565C402.016 64.9695 390.058 54.5746 376.271 55.5388Z" fill="white"/>
<g filter="url(#filter1_d)">
<path d="M226.7 145.803L106.167 154.238C103.064 154.455 100.725 157.146 100.942 160.249C101.158 163.352 103.849 165.691 106.952 165.474L227.485 157.039C230.588 156.822 232.927 154.131 232.71 151.028C232.494 147.925 229.803 145.586 226.7 145.803Z" fill="#1C7DF8" fill-opacity="0.01"/>
</g>
<path d="M226.7 145.803L106.167 154.238C103.064 154.455 100.725 157.146 100.942 160.249C101.158 163.352 103.849 165.691 106.952 165.474L227.485 157.039C230.588 156.822 232.927 154.131 232.71 151.028C232.494 147.925 229.803 145.586 226.7 145.803Z" fill="#1C7DF8"/>
<path opacity="0.8" d="M326.158 175.259L107.067 190.59C104.866 190.744 103.207 192.653 103.36 194.854C103.514 197.055 105.423 198.714 107.624 198.56L326.715 183.229C328.916 183.075 330.575 181.166 330.421 178.965C330.268 176.764 328.359 175.105 326.158 175.259Z" fill="#DCE3ED"/>
<g filter="url(#filter2_d)">
<path d="M194.515 169.803L106.047 175.994C103.846 176.148 102.187 178.057 102.34 180.258C102.494 182.459 104.403 184.118 106.604 183.964L195.072 177.774C197.273 177.62 198.933 175.711 198.779 173.51C198.625 171.309 196.716 169.649 194.515 169.803Z" fill="#72D962" fill-opacity="0.01"/>
</g>
<path d="M194.515 169.803L106.047 175.994C103.846 176.148 102.187 178.057 102.34 180.258C102.494 182.459 104.403 184.118 106.604 183.964L195.072 177.774C197.273 177.62 198.933 175.711 198.779 173.51C198.625 171.309 196.716 169.649 194.515 169.803Z" fill="#72D962"/>
<path opacity="0.8" d="M272.815 193.66L108.087 205.187C105.886 205.341 104.227 207.25 104.38 209.451C104.534 211.652 106.443 213.311 108.644 213.157L273.372 201.63C275.573 201.476 277.232 199.567 277.078 197.366C276.924 195.165 275.016 193.506 272.815 193.66Z" fill="#DCE3ED"/>
<g filter="url(#filter3_d)">
<path d="M275.644 222.778L111.758 234.247C108.655 234.464 106.316 237.155 106.533 240.258C106.749 243.36 109.44 245.7 112.543 245.482L276.429 234.014C279.532 233.797 281.871 231.106 281.654 228.003C281.438 224.901 278.747 222.561 275.644 222.778Z" fill="#1C7DF8" fill-opacity="0.01"/>
</g>
<path d="M275.644 222.778L111.758 234.247C108.655 234.464 106.316 237.155 106.533 240.258C106.749 243.36 109.44 245.7 112.543 245.482L276.429 234.014C279.532 233.797 281.871 231.106 281.654 228.003C281.438 224.901 278.747 222.561 275.644 222.778Z" fill="#1C7DF8"/>
<path opacity="0.8" d="M195.029 264.835L112.655 270.599C110.454 270.753 108.795 272.662 108.948 274.863C109.102 277.064 111.011 278.723 113.212 278.569L195.586 272.805C197.787 272.651 199.446 270.742 199.292 268.541C199.139 266.34 197.23 264.681 195.029 264.835Z" fill="#DCE3ED"/>
<g filter="url(#filter4_d)">
<path d="M246.854 246.54L111.634 256.002C109.433 256.156 107.774 258.065 107.927 260.266C108.081 262.467 109.99 264.126 112.191 263.972L247.411 254.51C249.612 254.356 251.271 252.447 251.117 250.246C250.964 248.045 249.055 246.386 246.854 246.54Z" fill="#72D962" fill-opacity="0.01"/>
</g>
<path d="M246.854 246.54L111.634 256.002C109.433 256.156 107.774 258.065 107.927 260.266C108.081 262.467 109.99 264.126 112.191 263.972L247.411 254.51C249.612 254.356 251.271 252.447 251.117 250.246C250.964 248.045 249.055 246.386 246.854 246.54Z" fill="#72D962"/>
<path opacity="0.8" d="M314.846 271.118L113.675 285.195C111.474 285.349 109.815 287.258 109.968 289.459C110.122 291.66 112.031 293.319 114.232 293.165L315.402 279.088C317.603 278.934 319.263 277.025 319.109 274.824C318.955 272.623 317.046 270.964 314.846 271.118Z" fill="#DCE3ED"/>
<g filter="url(#filter5_d)">
<path d="M326.212 85.7072L113.846 100.568C104.462 101.225 97.3851 109.365 98.0409 118.75L98.0409 118.75C98.6967 128.135 106.836 135.211 116.221 134.554L328.587 119.693C337.972 119.037 345.048 110.896 344.393 101.511C343.737 92.1261 335.597 85.0505 326.212 85.7072Z" fill="white" fill-opacity="0.01"/>
<path d="M326.235 86.038L113.87 100.899C104.668 101.543 97.7292 109.524 98.3722 118.726C99.0152 127.929 106.996 134.866 116.198 134.222L328.564 119.362C337.766 118.718 344.705 110.736 344.061 101.534C343.418 92.3318 335.437 85.394 326.235 86.038Z" stroke="#FAFBFD" stroke-opacity="0.01" stroke-width="0.664133"/>
</g>
<path d="M326.212 85.7072L113.846 100.568C104.462 101.225 97.3851 109.365 98.0409 118.75L98.0409 118.75C98.6967 128.135 106.836 135.211 116.221 134.554L328.587 119.693C337.972 119.037 345.048 110.896 344.393 101.511C343.737 92.1261 335.597 85.0505 326.212 85.7072Z" fill="white"/>
<path d="M326.235 86.038L113.87 100.899C104.668 101.543 97.7292 109.524 98.3722 118.726C99.0152 127.929 106.996 134.866 116.198 134.222L328.564 119.362C337.766 118.718 344.705 110.736 344.061 101.534C343.418 92.3318 335.437 85.394 326.235 86.038Z" stroke="#FAFBFD" stroke-width="0.664133"/>
<g filter="url(#filter6_d)">
<path d="M321.011 108.518C324.497 108.274 327.126 105.248 326.882 101.759C326.638 98.2707 323.615 95.6404 320.129 95.8843C316.642 96.1283 314.014 99.1541 314.258 102.643C314.502 106.131 317.525 108.762 321.011 108.518Z" stroke="#1C7DF8" stroke-opacity="0.01" stroke-width="1.85957" stroke-linecap="round" stroke-linejoin="round"/>
<path d="M325.344 106.356L329.4 109.884" stroke="#1C7DF8" stroke-opacity="0.01" stroke-width="1.85957" stroke-linecap="round" stroke-linejoin="round"/>
</g>
<path d="M321.011 108.518C324.497 108.274 327.126 105.248 326.882 101.759C326.638 98.2707 323.615 95.6404 320.129 95.8843C316.642 96.1283 314.014 99.1541 314.258 102.643C314.502 106.131 317.525 108.762 321.011 108.518Z" stroke="#1C7DF8" stroke-width="1.85957" stroke-linecap="round" stroke-linejoin="round"/>
<path d="M325.344 106.356L329.4 109.884" stroke="#1C7DF8" stroke-width="1.85957" stroke-linecap="round" stroke-linejoin="round"/>
<path d="M179.019 109.088L111.009 113.847C108.813 114 107.157 115.905 107.311 118.101C107.464 120.296 109.369 121.952 111.564 121.798L179.574 117.039C181.77 116.885 183.426 114.981 183.272 112.785C183.119 110.589 181.214 108.934 179.019 109.088Z" fill="#DCE3ED"/>
<g filter="url(#filter7_d)">
<path d="M588.178 45.0219L400.858 31.9157C384.334 30.7595 370.002 43.2182 368.847 59.7429L352.268 296.962C351.114 313.487 363.573 327.82 380.098 328.976L567.418 342.082C583.942 343.239 598.274 330.78 599.429 314.255L616.008 77.036C617.162 60.5113 604.703 46.1781 588.178 45.0219Z" fill="white" fill-opacity="0.01"/>
</g>
<path d="M588.178 45.0219L400.858 31.9157C384.334 30.7595 370.002 43.2182 368.847 59.7429L352.268 296.962C351.114 313.487 363.573 327.82 380.098 328.976L567.418 342.082C583.942 343.239 598.274 330.78 599.429 314.255L616.008 77.036C617.162 60.5113 604.703 46.1781 588.178 45.0219Z" fill="white"/>
<g filter="url(#filter8_d)">
<path d="M401.606 144.976C401.97 139.767 398.042 135.249 392.833 134.884C387.624 134.52 383.106 138.447 382.742 143.656L381.175 166.083C380.811 171.292 384.739 175.81 389.948 176.175C395.157 176.539 399.675 172.612 400.039 167.403L401.606 144.976Z" fill="#72D962" fill-opacity="0.01"/>
</g>
<path d="M401.606 144.976C401.97 139.767 398.042 135.249 392.833 134.884C387.624 134.52 383.106 138.447 382.742 143.656L381.175 166.083C380.811 171.292 384.739 175.81 389.948 176.175C395.157 176.539 399.675 172.612 400.039 167.403L401.606 144.976Z" fill="#72D962"/>
<g filter="url(#filter9_d)">
<path d="M436.647 96.4265C437.011 91.2173 433.083 86.6989 427.874 86.3343C422.665 85.9698 418.147 89.8972 417.783 95.1065L412.669 168.286C412.305 173.495 416.233 178.014 421.442 178.378C426.652 178.743 431.17 174.815 431.534 169.606L436.647 96.4265Z" fill="#72D962" fill-opacity="0.01"/>
</g>
<path d="M436.647 96.4265C437.011 91.2173 433.083 86.6989 427.874 86.3343C422.665 85.9698 418.147 89.8972 417.783 95.1065L412.669 168.286C412.305 173.495 416.233 178.014 421.442 178.378C426.652 178.743 431.17 174.815 431.534 169.606L436.647 96.4265Z" fill="#72D962"/>
<g filter="url(#filter10_d)">
<path d="M465.619 134.76C465.983 129.551 462.055 125.032 456.846 124.668C451.637 124.303 447.119 128.231 446.755 133.44L444.166 170.49C443.802 175.699 447.73 180.218 452.939 180.582C458.148 180.947 462.666 177.02 463.03 171.81L465.619 134.76Z" fill="#72D962" fill-opacity="0.01"/>
</g>
<path d="M465.619 134.76C465.983 129.551 462.055 125.032 456.846 124.668C451.637 124.303 447.119 128.231 446.755 133.44L444.166 170.49C443.802 175.699 447.73 180.218 452.939 180.582C458.148 180.947 462.666 177.02 463.03 171.81L465.619 134.76Z" fill="#72D962"/>
<g filter="url(#filter11_d)">
<path d="M498.918 111.158C499.282 105.949 495.354 101.43 490.145 101.066C484.936 100.701 480.418 104.629 480.054 109.838L475.662 172.695C475.298 177.904 479.225 182.423 484.435 182.787C489.644 183.152 494.162 179.224 494.526 174.015L498.918 111.158Z" fill="#72D962" fill-opacity="0.01"/>
</g>
<path d="M498.918 111.158C499.282 105.949 495.354 101.43 490.145 101.066C484.936 100.701 480.418 104.629 480.054 109.838L475.662 172.695C475.298 177.904 479.225 182.423 484.435 182.787C489.644 183.152 494.162 179.224 494.526 174.015L498.918 111.158Z" fill="#72D962"/>
<g filter="url(#filter12_d)">
<path d="M531.136 103.038C531.5 97.8291 527.572 93.3107 522.363 92.9462C517.154 92.5816 512.636 96.5091 512.272 101.718L507.158 174.898C506.794 180.107 510.722 184.626 515.931 184.99C521.141 185.355 525.659 181.427 526.023 176.218L531.136 103.038Z" fill="#72D962" fill-opacity="0.01"/>
</g>
<path d="M531.136 103.038C531.5 97.8291 527.572 93.3107 522.363 92.9462C517.154 92.5816 512.636 96.5091 512.272 101.718L507.158 174.898C506.794 180.107 510.722 184.626 515.931 184.99C521.141 185.355 525.659 181.427 526.023 176.218L531.136 103.038Z" fill="#72D962"/>
<g filter="url(#filter13_d)">
<path d="M560.587 134.492C560.951 129.283 557.023 124.765 551.814 124.4C546.605 124.036 542.087 127.963 541.723 133.172L538.653 177.103C538.289 182.312 542.217 186.831 547.426 187.195C552.635 187.56 557.153 183.632 557.517 178.423L560.587 134.492Z" fill="#72D962" fill-opacity="0.01"/>
</g>
<path d="M560.587 134.492C560.951 129.283 557.023 124.765 551.814 124.4C546.605 124.036 542.087 127.963 541.723 133.172L538.653 177.103C538.289 182.312 542.217 186.831 547.426 187.195C552.635 187.56 557.153 183.632 557.517 178.423L560.587 134.492Z" fill="#72D962"/>
<g filter="url(#filter14_d)">
<path d="M594.487 102.264C594.851 97.0552 590.923 92.5368 585.714 92.1722C580.505 91.8077 575.987 95.7351 575.623 100.944L570.147 179.307C569.783 184.516 573.711 189.035 578.92 189.399C584.129 189.764 588.647 185.836 589.011 180.627L594.487 102.264Z" fill="#72D962" fill-opacity="0.01"/>
</g>
<path d="M594.487 102.264C594.851 97.0552 590.923 92.5368 585.714 92.1722C580.505 91.8077 575.987 95.7351 575.623 100.944L570.147 179.307C569.783 184.516 573.711 189.035 578.92 189.399C584.129 189.764 588.647 185.836 589.011 180.627L594.487 102.264Z" fill="#72D962"/>
<path d="M490.26 202.534L385.616 195.211C382.055 194.962 378.967 197.646 378.719 201.207L378.719 201.207C378.47 204.768 381.154 207.856 384.715 208.105L489.359 215.428C492.919 215.677 496.007 212.993 496.256 209.432C496.505 205.871 493.82 202.783 490.26 202.534Z" fill="#E3E9F1"/>
<path d="M467.639 236.105L425.45 233.153C423.476 233.015 421.764 234.503 421.626 236.477C421.488 238.451 422.977 240.163 424.95 240.301L467.139 243.253C469.113 243.391 470.825 241.903 470.963 239.929C471.101 237.955 469.612 236.243 467.639 236.105Z" fill="#B4C2D6"/>
<g filter="url(#filter15_d)">
<path d="M580.987 244.036L559.43 242.528C557.456 242.39 555.744 243.878 555.606 245.852C555.468 247.825 556.957 249.537 558.93 249.676L580.488 251.184C582.461 251.322 584.173 249.834 584.311 247.86C584.449 245.887 582.961 244.175 580.987 244.036Z" fill="#1C7DF8" fill-opacity="0.01"/>
</g>
<path d="M580.987 244.036L559.43 242.528C557.456 242.39 555.744 243.878 555.606 245.852C555.468 247.825 556.957 249.537 558.93 249.676L580.488 251.184C582.461 251.322 584.173 249.834 584.311 247.86C584.449 245.887 582.961 244.175 580.987 244.036Z" fill="#1C7DF8"/>
<g filter="url(#filter16_d)">
<path d="M577.937 287.727L539.171 285.014C537.197 284.876 535.485 286.364 535.347 288.338C535.209 290.312 536.698 292.024 538.671 292.162L577.438 294.875C579.412 295.013 581.123 293.525 581.261 291.551C581.399 289.577 579.911 287.865 577.937 287.727Z" fill="#1C7DF8" fill-opacity="0.01"/>
</g>
<path d="M577.937 287.727L539.171 285.014C537.197 284.876 535.485 286.364 535.347 288.338C535.209 290.312 536.698 292.024 538.671 292.162L577.438 294.875C579.412 295.013 581.123 293.525 581.261 291.551C581.399 289.577 579.911 287.865 577.937 287.727Z" fill="#1C7DF8"/>
<path d="M500.143 250.35L424.617 245.065C422.643 244.927 420.931 246.415 420.793 248.389C420.655 250.363 422.144 252.075 424.117 252.213L499.644 257.498C501.618 257.636 503.33 256.148 503.467 254.174C503.605 252.2 502.117 250.488 500.143 250.35Z" fill="#E3E9F1"/>
<path d="M496.08 281.998L422.396 276.842C420.422 276.704 418.71 278.192 418.572 280.166C418.434 282.14 419.923 283.852 421.896 283.99L495.581 289.146C497.555 289.284 499.267 287.796 499.405 285.822C499.542 283.848 498.054 282.136 496.08 281.998Z" fill="#B4C2D6"/>
<path d="M463.753 291.707L421.564 288.755C419.59 288.617 417.878 290.105 417.74 292.079C417.602 294.053 419.091 295.765 421.064 295.903L463.253 298.855C465.227 298.993 466.939 297.505 467.077 295.531C467.215 293.557 465.726 291.845 463.753 291.707Z" fill="#E3E9F1"/>
<path d="M455.87 62.6207L395.823 58.4187C391.906 58.1447 388.509 61.0975 388.235 65.0142L388.235 65.0142C387.962 68.9308 390.915 72.328 394.832 72.6021L454.879 76.804C458.795 77.0781 462.192 74.1252 462.466 70.2086C462.739 66.292 459.786 62.8947 455.87 62.6207Z" fill="#B4C2D6"/>
<g filter="url(#filter17_d)">
<path d="M393.318 259.143C403.567 259.86 412.457 252.127 413.174 241.871C413.89 231.614 406.163 222.718 395.914 222.001C385.665 221.284 376.775 229.017 376.058 239.274C375.342 249.53 383.069 258.426 393.318 259.143Z" fill="#1C7DF8" fill-opacity="0.01"/>
</g>
<path d="M393.318 259.143C403.567 259.86 412.457 252.127 413.174 241.871C413.89 231.614 406.163 222.718 395.914 222.001C385.665 221.284 376.775 229.017 376.058 239.274C375.342 249.53 383.069 258.426 393.318 259.143Z" fill="#1C7DF8"/>
<g filter="url(#filter18_d)">
<path d="M390.265 302.833C400.514 303.55 409.404 295.817 410.121 285.561C410.837 275.304 403.11 266.408 392.861 265.691C382.612 264.974 373.722 272.707 373.005 282.964C372.289 293.22 380.016 302.116 390.265 302.833Z" fill="#72D962" fill-opacity="0.01"/>
</g>
<path d="M390.265 302.833C400.514 303.55 409.404 295.817 410.121 285.561C410.837 275.304 403.11 266.408 392.861 265.691C382.612 264.974 373.722 272.707 373.005 282.964C372.289 293.22 380.016 302.116 390.265 302.833Z" fill="#72D962"/>
</g>
<defs>
<filter id="filter0_d" x="40.1335" y="21.7124" width="413.063" height="338.25" filterUnits="userSpaceOnUse" color-interpolation-filters="sRGB">
<feFlood flood-opacity="0" result="BackgroundImageFix"/>
<feColorMatrix in="SourceAlpha" type="matrix" values="0 0 0 0 0 0 0 0 0 0 0 0 0 0 0 0 0 0 127 0"/>
<feOffset dy="2.68974"/>
<feGaussianBlur stdDeviation="18.2271"/>
<feColorMatrix type="matrix" values="0 0 0 0 0.0976562 0 0 0 0 0.192861 0 0 0 0 0.3125 0 0 0 0.27 0"/>
<feBlend mode="normal" in2="BackgroundImageFix" result="effect1_dropShadow"/>
<feBlend mode="normal" in="SourceGraphic" in2="effect1_dropShadow" result="shape"/>
</filter>
<filter id="filter1_d" x="94.9504" y="143.797" width="143.751" height="31.6526" filterUnits="userSpaceOnUse" color-interpolation-filters="sRGB">
<feFlood flood-opacity="0" result="BackgroundImageFix"/>
<feColorMatrix in="SourceAlpha" type="matrix" values="0 0 0 0 0 0 0 0 0 0 0 0 0 0 0 0 0 0 127 0"/>
<feOffset dy="3.9848"/>
<feGaussianBlur stdDeviation="2.9886"/>
<feColorMatrix type="matrix" values="0 0 0 0 0.109219 0 0 0 0 0.491032 0 0 0 0 0.970833 0 0 0 0.12 0"/>
<feBlend mode="normal" in2="BackgroundImageFix" result="effect1_dropShadow"/>
<feBlend mode="normal" in="SourceGraphic" in2="effect1_dropShadow" result="shape"/>
</filter>
<filter id="filter2_d" x="97.6817" y="167.137" width="105.756" height="23.4787" filterUnits="userSpaceOnUse" color-interpolation-filters="sRGB">
<feFlood flood-opacity="0" result="BackgroundImageFix"/>
<feColorMatrix in="SourceAlpha" type="matrix" values="0 0 0 0 0 0 0 0 0 0 0 0 0 0 0 0 0 0 127 0"/>
<feOffset dy="1.9924"/>
<feGaussianBlur stdDeviation="2.32447"/>
<feColorMatrix type="matrix" values="0 0 0 0 0.44795 0 0 0 0 0.85 0 0 0 0 0.3825 0 0 0 0.23 0"/>
<feBlend mode="normal" in2="BackgroundImageFix" result="effect1_dropShadow"/>
<feBlend mode="normal" in="SourceGraphic" in2="effect1_dropShadow" result="shape"/>
</filter>
<filter id="filter3_d" x="100.541" y="220.772" width="187.104" height="34.6863" filterUnits="userSpaceOnUse" color-interpolation-filters="sRGB">
<feFlood flood-opacity="0" result="BackgroundImageFix"/>
<feColorMatrix in="SourceAlpha" type="matrix" values="0 0 0 0 0 0 0 0 0 0 0 0 0 0 0 0 0 0 127 0"/>
<feOffset dy="3.9848"/>
<feGaussianBlur stdDeviation="2.9886"/>
<feColorMatrix type="matrix" values="0 0 0 0 0.109219 0 0 0 0 0.491032 0 0 0 0 0.970833 0 0 0 0.12 0"/>
<feBlend mode="normal" in2="BackgroundImageFix" result="effect1_dropShadow"/>
<feBlend mode="normal" in="SourceGraphic" in2="effect1_dropShadow" result="shape"/>
</filter>
<filter id="filter4_d" x="103.269" y="243.873" width="152.508" height="26.7502" filterUnits="userSpaceOnUse" color-interpolation-filters="sRGB">
<feFlood flood-opacity="0" result="BackgroundImageFix"/>
<feColorMatrix in="SourceAlpha" type="matrix" values="0 0 0 0 0 0 0 0 0 0 0 0 0 0 0 0 0 0 127 0"/>
<feOffset dy="1.9924"/>
<feGaussianBlur stdDeviation="2.32447"/>
<feColorMatrix type="matrix" values="0 0 0 0 0.44795 0 0 0 0 0.85 0 0 0 0 0.3825 0 0 0 0.23 0"/>
<feBlend mode="normal" in2="BackgroundImageFix" result="effect1_dropShadow"/>
<feBlend mode="normal" in="SourceGraphic" in2="effect1_dropShadow" result="shape"/>
</filter>
<filter id="filter5_d" x="93.3498" y="82.3438" width="255.734" height="58.2299" filterUnits="userSpaceOnUse" color-interpolation-filters="sRGB">
<feFlood flood-opacity="0" result="BackgroundImageFix"/>
<feColorMatrix in="SourceAlpha" type="matrix" values="0 0 0 0 0 0 0 0 0 0 0 0 0 0 0 0 0 0 127 0"/>
<feOffset dy="1.32827"/>
<feGaussianBlur stdDeviation="2.32447"/>
<feColorMatrix type="matrix" values="0 0 0 0 0.109219 0 0 0 0 0.491032 0 0 0 0 0.970833 0 0 0 0.08 0"/>
<feBlend mode="normal" in2="BackgroundImageFix" result="effect1_dropShadow"/>
<feBlend mode="normal" in="SourceGraphic" in2="effect1_dropShadow" result="shape"/>
</filter>
<filter id="filter6_d" x="310.656" y="94.2747" width="22.3304" height="21.1882" filterUnits="userSpaceOnUse" color-interpolation-filters="sRGB">
<feFlood flood-opacity="0" result="BackgroundImageFix"/>
<feColorMatrix in="SourceAlpha" type="matrix" values="0 0 0 0 0 0 0 0 0 0 0 0 0 0 0 0 0 0 127 0"/>
<feOffset dy="1.9924"/>
<feGaussianBlur stdDeviation="1.32827"/>
<feColorMatrix type="matrix" values="0 0 0 0 0.109219 0 0 0 0 0.491032 0 0 0 0 0.970833 0 0 0 0.24 0"/>
<feBlend mode="normal" in2="BackgroundImageFix" result="effect1_dropShadow"/>
<feBlend mode="normal" in="SourceGraphic" in2="effect1_dropShadow" result="shape"/>
</filter>
<filter id="filter7_d" x="308.501" y="-8.62764" width="351.273" height="397.701" filterUnits="userSpaceOnUse" color-interpolation-filters="sRGB">
<feFlood flood-opacity="0" result="BackgroundImageFix"/>
<feColorMatrix in="SourceAlpha" type="matrix" values="0 0 0 0 0 0 0 0 0 0 0 0 0 0 0 0 0 0 127 0"/>
<feOffset dy="3.22383"/>
<feGaussianBlur stdDeviation="21.8464"/>
<feColorMatrix type="matrix" values="0 0 0 0 0.0976562 0 0 0 0 0.192861 0 0 0 0 0.3125 0 0 0 0.27 0"/>
<feBlend mode="normal" in2="BackgroundImageFix" result="effect1_dropShadow"/>
<feBlend mode="normal" in="SourceGraphic" in2="effect1_dropShadow" result="shape"/>
</filter>
<filter id="filter8_d" x="373.191" y="131.677" width="36.3982" height="57.2578" filterUnits="userSpaceOnUse" color-interpolation-filters="sRGB">
<feFlood flood-opacity="0" result="BackgroundImageFix"/>
<feColorMatrix in="SourceAlpha" type="matrix" values="0 0 0 0 0 0 0 0 0 0 0 0 0 0 0 0 0 0 127 0"/>
<feOffset dy="4.77605"/>
<feGaussianBlur stdDeviation="3.98004"/>
<feColorMatrix type="matrix" values="0 0 0 0 0.44795 0 0 0 0 0.85 0 0 0 0 0.3825 0 0 0 0.37 0"/>
<feBlend mode="normal" in2="BackgroundImageFix" result="effect1_dropShadow"/>
<feBlend mode="normal" in="SourceGraphic" in2="effect1_dropShadow" result="shape"/>
</filter>
<filter id="filter9_d" x="404.686" y="83.1269" width="39.9447" height="108.011" filterUnits="userSpaceOnUse" color-interpolation-filters="sRGB">
<feFlood flood-opacity="0" result="BackgroundImageFix"/>
<feColorMatrix in="SourceAlpha" type="matrix" values="0 0 0 0 0 0 0 0 0 0 0 0 0 0 0 0 0 0 127 0"/>
<feOffset dy="4.77605"/>
<feGaussianBlur stdDeviation="3.98004"/>
<feColorMatrix type="matrix" values="0 0 0 0 0.44795 0 0 0 0 0.85 0 0 0 0 0.3825 0 0 0 0.37 0"/>
<feBlend mode="normal" in2="BackgroundImageFix" result="effect1_dropShadow"/>
<feBlend mode="normal" in="SourceGraphic" in2="effect1_dropShadow" result="shape"/>
</filter>
<filter id="filter10_d" x="436.182" y="121.46" width="37.4201" height="71.8817" filterUnits="userSpaceOnUse" color-interpolation-filters="sRGB">
<feFlood flood-opacity="0" result="BackgroundImageFix"/>
<feColorMatrix in="SourceAlpha" type="matrix" values="0 0 0 0 0 0 0 0 0 0 0 0 0 0 0 0 0 0 127 0"/>
<feOffset dy="4.77605"/>
<feGaussianBlur stdDeviation="3.98004"/>
<feColorMatrix type="matrix" values="0 0 0 0 0.44795 0 0 0 0 0.85 0 0 0 0 0.3825 0 0 0 0.37 0"/>
<feBlend mode="normal" in2="BackgroundImageFix" result="effect1_dropShadow"/>
<feBlend mode="normal" in="SourceGraphic" in2="effect1_dropShadow" result="shape"/>
</filter>
<filter id="filter11_d" x="467.678" y="97.8583" width="39.2233" height="97.6883" filterUnits="userSpaceOnUse" color-interpolation-filters="sRGB">
<feFlood flood-opacity="0" result="BackgroundImageFix"/>
<feColorMatrix in="SourceAlpha" type="matrix" values="0 0 0 0 0 0 0 0 0 0 0 0 0 0 0 0 0 0 127 0"/>
<feOffset dy="4.77605"/>
<feGaussianBlur stdDeviation="3.98004"/>
<feColorMatrix type="matrix" values="0 0 0 0 0.44795 0 0 0 0 0.85 0 0 0 0 0.3825 0 0 0 0.37 0"/>
<feBlend mode="normal" in2="BackgroundImageFix" result="effect1_dropShadow"/>
<feBlend mode="normal" in="SourceGraphic" in2="effect1_dropShadow" result="shape"/>
</filter>
<filter id="filter12_d" x="499.175" y="89.7387" width="39.9447" height="108.011" filterUnits="userSpaceOnUse" color-interpolation-filters="sRGB">
<feFlood flood-opacity="0" result="BackgroundImageFix"/>
<feColorMatrix in="SourceAlpha" type="matrix" values="0 0 0 0 0 0 0 0 0 0 0 0 0 0 0 0 0 0 127 0"/>
<feOffset dy="4.77605"/>
<feGaussianBlur stdDeviation="3.98004"/>
<feColorMatrix type="matrix" values="0 0 0 0 0.44795 0 0 0 0 0.85 0 0 0 0 0.3825 0 0 0 0.37 0"/>
<feBlend mode="normal" in2="BackgroundImageFix" result="effect1_dropShadow"/>
<feBlend mode="normal" in="SourceGraphic" in2="effect1_dropShadow" result="shape"/>
</filter>
<filter id="filter13_d" x="530.67" y="121.193" width="37.9008" height="78.7621" filterUnits="userSpaceOnUse" color-interpolation-filters="sRGB">
<feFlood flood-opacity="0" result="BackgroundImageFix"/>
<feColorMatrix in="SourceAlpha" type="matrix" values="0 0 0 0 0 0 0 0 0 0 0 0 0 0 0 0 0 0 127 0"/>
<feOffset dy="4.77605"/>
<feGaussianBlur stdDeviation="3.98004"/>
<feColorMatrix type="matrix" values="0 0 0 0 0.44795 0 0 0 0 0.85 0 0 0 0 0.3825 0 0 0 0.37 0"/>
<feBlend mode="normal" in2="BackgroundImageFix" result="effect1_dropShadow"/>
<feBlend mode="normal" in="SourceGraphic" in2="effect1_dropShadow" result="shape"/>
</filter>
<filter id="filter14_d" x="562.164" y="88.9647" width="40.3068" height="113.194" filterUnits="userSpaceOnUse" color-interpolation-filters="sRGB">
<feFlood flood-opacity="0" result="BackgroundImageFix"/>
<feColorMatrix in="SourceAlpha" type="matrix" values="0 0 0 0 0 0 0 0 0 0 0 0 0 0 0 0 0 0 127 0"/>
<feOffset dy="4.77605"/>
<feGaussianBlur stdDeviation="3.98004"/>
<feColorMatrix type="matrix" values="0 0 0 0 0.44795 0 0 0 0 0.85 0 0 0 0 0.3825 0 0 0 0.37 0"/>
<feBlend mode="normal" in2="BackgroundImageFix" result="effect1_dropShadow"/>
<feBlend mode="normal" in="SourceGraphic" in2="effect1_dropShadow" result="shape"/>
</filter>
<filter id="filter15_d" x="552.413" y="242.519" width="35.0907" height="15.042" filterUnits="userSpaceOnUse" color-interpolation-filters="sRGB">
<feFlood flood-opacity="0" result="BackgroundImageFix"/>
<feColorMatrix in="SourceAlpha" type="matrix" values="0 0 0 0 0 0 0 0 0 0 0 0 0 0 0 0 0 0 127 0"/>
<feOffset dy="3.18403"/>
<feGaussianBlur stdDeviation="1.59202"/>
<feColorMatrix type="matrix" values="0 0 0 0 0.109219 0 0 0 0 0.491032 0 0 0 0 0.970833 0 0 0 0.29 0"/>
<feBlend mode="normal" in2="BackgroundImageFix" result="effect1_dropShadow"/>
<feBlend mode="normal" in="SourceGraphic" in2="effect1_dropShadow" result="shape"/>
</filter>
<filter id="filter16_d" x="532.154" y="285.005" width="52.2999" height="16.2463" filterUnits="userSpaceOnUse" color-interpolation-filters="sRGB">
<feFlood flood-opacity="0" result="BackgroundImageFix"/>
<feColorMatrix in="SourceAlpha" type="matrix" values="0 0 0 0 0 0 0 0 0 0 0 0 0 0 0 0 0 0 127 0"/>
<feOffset dy="3.18403"/>
<feGaussianBlur stdDeviation="1.59202"/>
<feColorMatrix type="matrix" values="0 0 0 0 0.109219 0 0 0 0 0.491032 0 0 0 0 0.970833 0 0 0 0.29 0"/>
<feBlend mode="normal" in2="BackgroundImageFix" result="effect1_dropShadow"/>
<feBlend mode="normal" in="SourceGraphic" in2="effect1_dropShadow" result="shape"/>
</filter>
<filter id="filter17_d" x="367.256" y="216.383" width="54.7196" height="54.7462" filterUnits="userSpaceOnUse" color-interpolation-filters="sRGB">
<feFlood flood-opacity="0" result="BackgroundImageFix"/>
<feColorMatrix in="SourceAlpha" type="matrix" values="0 0 0 0 0 0 0 0 0 0 0 0 0 0 0 0 0 0 127 0"/>
<feOffset dy="3.18403"/>
<feGaussianBlur stdDeviation="4.37804"/>
<feColorMatrix type="matrix" values="0 0 0 0 0.109219 0 0 0 0 0.491032 0 0 0 0 0.970833 0 0 0 0.24 0"/>
<feBlend mode="normal" in2="BackgroundImageFix" result="effect1_dropShadow"/>
<feBlend mode="normal" in="SourceGraphic" in2="effect1_dropShadow" result="shape"/>
</filter>
<filter id="filter18_d" x="369.775" y="265.645" width="43.5755" height="43.6022" filterUnits="userSpaceOnUse" color-interpolation-filters="sRGB">
<feFlood flood-opacity="0" result="BackgroundImageFix"/>
<feColorMatrix in="SourceAlpha" type="matrix" values="0 0 0 0 0 0 0 0 0 0 0 0 0 0 0 0 0 0 127 0"/>
<feOffset dy="3.18403"/>
<feGaussianBlur stdDeviation="1.59202"/>
<feColorMatrix type="matrix" values="0 0 0 0 0.44795 0 0 0 0 0.85 0 0 0 0 0.3825 0 0 0 0.18 0"/>
<feBlend mode="normal" in2="BackgroundImageFix" result="effect1_dropShadow"/>
<feBlend mode="normal" in="SourceGraphic" in2="effect1_dropShadow" result="shape"/>
</filter>
<clipPath id="clip0">
<rect width="693" height="374" fill="white"/>
</clipPath>
</defs>
</svg>
