<svg width="66" height="66" viewBox="0 0 66 66" fill="none" xmlns="http://www.w3.org/2000/svg">
<g filter="url(#filter0_d)">
<path d="M32.8078 8C28.4946 8 24.2783 9.279 20.692 11.6753C17.1058 14.0715 14.3106 17.4774 12.66 21.4623C11.0094 25.4471 10.5776 29.8319 11.419 34.0622C12.2605 38.2925 14.3375 42.1783 17.3874 45.2282C20.4372 48.278 24.323 50.355 28.5533 51.1965C32.7836 52.0379 37.1684 51.6061 41.1532 49.9555C45.1381 48.3049 48.544 45.5098 50.9403 41.9235C53.3365 38.3372 54.6155 34.1209 54.6155 29.8078C54.6088 24.026 52.309 18.4831 48.2207 14.3948C44.1325 10.3065 38.5895 8.00673 32.8078 8ZM45.3963 22.902L32.9568 39.783C32.8099 39.9778 32.6257 40.1415 32.4149 40.2644C32.2041 40.3873 31.971 40.4669 31.7291 40.4988C31.4871 40.5306 31.2413 40.5139 31.0059 40.4496C30.7705 40.3854 30.5503 40.2749 30.358 40.1246L21.475 33.0226C21.2886 32.8734 21.1334 32.689 21.0183 32.4799C20.9032 32.2708 20.8304 32.041 20.8041 31.8037C20.7509 31.3245 20.8903 30.8439 21.1915 30.4674C21.4927 30.091 21.9312 29.8497 22.4104 29.7965C22.6476 29.7702 22.8878 29.7908 23.117 29.8573C23.3463 29.9238 23.5603 30.0348 23.7466 30.1839L31.154 36.1102L42.4704 20.7521C42.6067 20.5477 42.7829 20.373 42.9886 20.2386C43.1942 20.1042 43.425 20.0129 43.6669 19.9702C43.9089 19.9275 44.1569 19.9343 44.3962 19.9902C44.6354 20.0461 44.8608 20.1499 45.0588 20.2954C45.2568 20.4409 45.4232 20.625 45.548 20.8366C45.6728 21.0482 45.7534 21.2829 45.785 21.5265C45.8165 21.7701 45.7983 22.0176 45.7315 22.2541C45.6647 22.4905 45.5507 22.7109 45.3963 22.902Z" fill="#1C7DF8" fill-opacity="0.01"/>
</g>
<path d="M32.8078 8C28.4946 8 24.2783 9.279 20.692 11.6753C17.1058 14.0715 14.3106 17.4774 12.66 21.4623C11.0094 25.4471 10.5776 29.8319 11.419 34.0622C12.2605 38.2925 14.3375 42.1783 17.3874 45.2282C20.4372 48.278 24.323 50.355 28.5533 51.1965C32.7836 52.0379 37.1684 51.6061 41.1532 49.9555C45.1381 48.3049 48.544 45.5098 50.9403 41.9235C53.3365 38.3372 54.6155 34.1209 54.6155 29.8078C54.6088 24.026 52.309 18.4831 48.2207 14.3948C44.1325 10.3065 38.5895 8.00673 32.8078 8ZM45.3963 22.902L32.9568 39.783C32.8099 39.9778 32.6257 40.1415 32.4149 40.2644C32.2041 40.3873 31.971 40.4669 31.7291 40.4988C31.4871 40.5306 31.2413 40.5139 31.0059 40.4496C30.7705 40.3854 30.5503 40.2749 30.358 40.1246L21.475 33.0226C21.2886 32.8734 21.1334 32.689 21.0183 32.4799C20.9032 32.2708 20.8304 32.041 20.8041 31.8037C20.7509 31.3245 20.8903 30.8439 21.1915 30.4674C21.4927 30.091 21.9312 29.8497 22.4104 29.7965C22.6476 29.7702 22.8878 29.7908 23.117 29.8573C23.3463 29.9238 23.5603 30.0348 23.7466 30.1839L31.154 36.1102L42.4704 20.7521C42.6067 20.5477 42.7829 20.373 42.9886 20.2386C43.1942 20.1042 43.425 20.0129 43.6669 19.9702C43.9089 19.9275 44.1569 19.9343 44.3962 19.9902C44.6354 20.0461 44.8608 20.1499 45.0588 20.2954C45.2568 20.4409 45.4232 20.625 45.548 20.8366C45.6728 21.0482 45.7534 21.2829 45.785 21.5265C45.8165 21.7701 45.7983 22.0176 45.7315 22.2541C45.6647 22.4905 45.5507 22.7109 45.3963 22.902Z" fill="#1C7DF8"/>
<defs>
<filter id="filter0_d" x="0" y="0" width="65.6155" height="65.6155" filterUnits="userSpaceOnUse" color-interpolation-filters="sRGB">
<feFlood flood-opacity="0" result="BackgroundImageFix"/>
<feColorMatrix in="SourceAlpha" type="matrix" values="0 0 0 0 0 0 0 0 0 0 0 0 0 0 0 0 0 0 127 0"/>
<feOffset dy="3"/>
<feGaussianBlur stdDeviation="5.5"/>
<feColorMatrix type="matrix" values="0 0 0 0 0.109219 0 0 0 0 0.491032 0 0 0 0 0.970833 0 0 0 0.24 0"/>
<feBlend mode="normal" in2="BackgroundImageFix" result="effect1_dropShadow"/>
<feBlend mode="normal" in="SourceGraphic" in2="effect1_dropShadow" result="shape"/>
</filter>
</defs>
</svg>
