<svg width="500" height="500" viewBox="0 0 500 500" fill="none" xmlns="http://www.w3.org/2000/svg">
<g clip-path="url(#clip0_110_4)">
<path d="M396.9 154.98C396.9 154.98 400 146.05 409.28 145.82C418.57 145.59 415.23 151.32 425 150.4C434.77 149.48 431.19 138.49 446.43 136.2C461.67 133.91 468.1 154.98 468.1 154.98H396.9V154.98Z" fill="white"/>
<path d="M235.89 48.1599C235.89 48.1599 238.2 41.4899 245.14 41.3199C252.08 41.1499 249.59 45.4299 256.88 44.7399C264.17 44.0599 261.5 35.8399 272.88 34.1299C284.26 32.4199 289.06 48.1599 289.06 48.1599H235.89Z" fill="white"/>
<path d="M31 115.46C31 115.46 33.07 109.5 39.26 109.34C45.46 109.19 43.23 113.01 49.75 112.4C56.27 111.79 53.88 104.45 64.05 102.92C74.22 101.39 78.51 115.46 78.51 115.46H31V115.46Z" fill="white"/>
<path d="M271.88 76.8701H130.11C114.386 76.8701 101.64 89.6166 101.64 105.34V437.96C101.64 453.684 114.386 466.43 130.11 466.43H271.88C287.603 466.43 300.35 453.684 300.35 437.96V105.34C300.35 89.6166 287.603 76.8701 271.88 76.8701Z" fill="#E5EDFD"/>
<path d="M271.88 86.6201C282.2 86.6201 290.6 95.0201 290.6 105.34V437.97C290.6 448.29 282.2 456.69 271.88 456.69H130.11C119.79 456.69 111.39 448.29 111.39 437.97V105.34C111.39 95.0201 119.79 86.6201 130.11 86.6201H271.88M271.88 76.8701H130.11C114.39 76.8701 101.64 89.6201 101.64 105.34V437.97C101.64 453.69 114.39 466.44 130.11 466.44H271.88C287.6 466.44 300.35 453.69 300.35 437.97V105.34C300.35 89.6201 287.6 76.8701 271.88 76.8701V76.8701Z" fill="#060000"/>
<path d="M245.35 77.8501H156.64V88.1701C156.64 92.7401 160.35 96.4501 164.92 96.4501H237.07C241.64 96.4501 245.35 92.7401 245.35 88.1701V77.8501Z" fill="#060000"/>
<path d="M184.48 85.5801H218.5" stroke="white" stroke-width="0.76" stroke-linecap="round" stroke-linejoin="round"/>
<path d="M236.42 323.15H135.11C130.73 323.15 127.18 326.701 127.18 331.08V415.7C127.18 420.08 130.73 423.63 135.11 423.63H236.42C240.8 423.63 244.35 420.08 244.35 415.7V331.08C244.35 326.701 240.8 323.15 236.42 323.15Z" fill="#9BBDF9"/>
<path d="M170.01 337.21H146.72C144.98 337.21 143.57 338.621 143.57 340.36V363.65C143.57 365.39 144.98 366.8 146.72 366.8H170.01C171.75 366.8 173.16 365.39 173.16 363.65V340.36C173.16 338.621 171.75 337.21 170.01 337.21Z" fill="white"/>
<path d="M183.25 346.55H210" stroke="black" stroke-width="1.3" stroke-linecap="round" stroke-linejoin="round"/>
<path d="M183.25 356.07H226.38" stroke="black" stroke-width="1.3" stroke-linecap="round" stroke-linejoin="round"/>
<path d="M143.57 379.12H173.15" stroke="white" stroke-width="1.3" stroke-linecap="round" stroke-linejoin="round"/>
<path d="M143.57 388.95H226.38" stroke="white" stroke-width="1.3" stroke-linecap="round" stroke-linejoin="round"/>
<path d="M143.57 399.78H226.38" stroke="white" stroke-width="1.3" stroke-linecap="round" stroke-linejoin="round"/>
<path d="M83.2773 178.738C86.3189 165.991 78.4505 153.191 65.7026 150.149C52.9548 147.107 40.1548 154.976 37.1131 167.724C34.0715 180.471 41.9399 193.271 54.6878 196.313C67.4356 199.355 80.2356 191.486 83.2773 178.738Z" fill="#6ED05C"/>
<path d="M50.6399 174.36L58.0899 179.88L70.8499 166.64" stroke="white" stroke-width="2.14" stroke-linecap="round" stroke-linejoin="round"/>
<path d="M152.89 236.1H73.44C70.5736 236.1 68.25 238.424 68.25 241.29V296.64C68.25 299.506 70.5736 301.83 73.44 301.83H152.89C155.756 301.83 158.08 299.506 158.08 296.64V241.29C158.08 238.424 155.756 236.1 152.89 236.1Z" fill="#F6C51D"/>
<path d="M127.02 263.62C127.02 255.78 120.67 249.43 112.83 249.43C104.99 249.43 98.6399 255.78 98.6399 263.62C98.6399 266.24 99.3599 268.68 100.6 270.79L100.64 270.84C101.18 271.76 101.82 272.61 102.55 273.38L112.84 287L123.11 273.39C123.85 272.61 124.5 271.75 125.04 270.83L125.07 270.79C126.31 268.68 127.03 266.24 127.03 263.62H127.02ZM112.83 269.8C109.38 269.8 106.58 267 106.58 263.55C106.58 260.1 109.38 257.3 112.83 257.3C116.28 257.3 119.08 260.1 119.08 263.55C119.08 267 116.28 269.8 112.83 269.8Z" fill="white"/>
<path d="M269.47 125.95H132.45C128.07 125.95 124.52 129.501 124.52 133.88V218.5C124.52 222.88 128.07 226.43 132.45 226.43H269.47C273.85 226.43 277.4 222.88 277.4 218.5V133.88C277.4 129.501 273.85 125.95 269.47 125.95Z" fill="white"/>
<path d="M160.28 149.9H139.86C138.336 149.9 137.1 151.136 137.1 152.66V173.08C137.1 174.604 138.336 175.84 139.86 175.84H160.28C161.804 175.84 163.04 174.604 163.04 173.08V152.66C163.04 151.136 161.804 149.9 160.28 149.9Z" fill="#1D78EE"/>
<path d="M193.33 149.9H172.91C171.386 149.9 170.15 151.136 170.15 152.66V173.08C170.15 174.604 171.386 175.84 172.91 175.84H193.33C194.854 175.84 196.09 174.604 196.09 173.08V152.66C196.09 151.136 194.854 149.9 193.33 149.9Z" fill="#1D78EE"/>
<path d="M226.38 149.9H205.96C204.436 149.9 203.2 151.136 203.2 152.66V173.08C203.2 174.604 204.436 175.84 205.96 175.84H226.38C227.905 175.84 229.14 174.604 229.14 173.08V152.66C229.14 151.136 227.905 149.9 226.38 149.9Z" fill="#1D78EE"/>
<path d="M259.43 149.9H239.01C237.486 149.9 236.25 151.136 236.25 152.66V173.08C236.25 174.604 237.486 175.84 239.01 175.84H259.43C260.954 175.84 262.19 174.604 262.19 173.08V152.66C262.19 151.136 260.954 149.9 259.43 149.9Z" fill="#6ED05C"/>
<path d="M160.28 184.9H139.86C138.336 184.9 137.1 186.136 137.1 187.66V208.08C137.1 209.604 138.336 210.84 139.86 210.84H160.28C161.804 210.84 163.04 209.604 163.04 208.08V187.66C163.04 186.136 161.804 184.9 160.28 184.9Z" fill="#9BBDF9"/>
<path d="M193.33 184.9H172.91C171.386 184.9 170.15 186.136 170.15 187.66V208.08C170.15 209.604 171.386 210.84 172.91 210.84H193.33C194.854 210.84 196.09 209.604 196.09 208.08V187.66C196.09 186.136 194.854 184.9 193.33 184.9Z" fill="#9BBDF9"/>
<path d="M226.38 184.9H205.96C204.436 184.9 203.2 186.136 203.2 187.66V208.08C203.2 209.604 204.436 210.84 205.96 210.84H226.38C227.905 210.84 229.14 209.604 229.14 208.08V187.66C229.14 186.136 227.905 184.9 226.38 184.9Z" fill="#9BBDF9"/>
<path d="M259.43 184.9H239.01C237.486 184.9 236.25 186.136 236.25 187.66V208.08C236.25 209.604 237.486 210.84 239.01 210.84H259.43C260.954 210.84 262.19 209.604 262.19 208.08V187.66C262.19 186.136 260.954 184.9 259.43 184.9Z" fill="#9BBDF9"/>
<path d="M272.22 236.1H182.58C179.714 236.1 177.39 238.424 177.39 241.29V296.64C177.39 299.506 179.714 301.83 182.58 301.83H272.22C275.086 301.83 277.41 299.506 277.41 296.64V241.29C277.41 238.424 275.086 236.1 272.22 236.1Z" fill="white"/>
<path d="M263.81 243.56H192.75C191.226 243.56 189.99 244.796 189.99 246.32V255.74C189.99 257.264 191.226 258.5 192.75 258.5H263.81C265.334 258.5 266.57 257.264 266.57 255.74V246.32C266.57 244.796 265.334 243.56 263.81 243.56Z" fill="#9BBDF9"/>
<path d="M190.99 268.29H225.89" stroke="black" stroke-width="1.3" stroke-linecap="round" stroke-linejoin="round"/>
<path d="M190.99 276.79H265.57" stroke="black" stroke-width="1.3" stroke-linecap="round" stroke-linejoin="round"/>
<path d="M190.99 286.16H265.57" stroke="black" stroke-width="1.3" stroke-linecap="round" stroke-linejoin="round"/>
<path d="M320.3 344.54H268.33C264.845 344.54 262.02 347.365 262.02 350.85V395.92C262.02 399.405 264.845 402.23 268.33 402.23H320.3C323.785 402.23 326.61 399.405 326.61 395.92V350.85C326.61 347.365 323.785 344.54 320.3 344.54Z" fill="#1D78EE"/>
<path d="M307.11 370.88L304.99 370.51C304.74 369.59 304.37 368.7 303.9 367.87L305.14 366.11C305.59 365.46 305.52 364.58 304.96 364.02L303.69 362.75C303.12 362.2 302.24 362.14 301.6 362.6L299.84 363.84C299.01 363.36 298.12 362.99 297.2 362.75L296.84 360.58C296.71 359.81 296.05 359.24 295.27 359.23H293.44C292.65 359.23 291.97 359.8 291.83 360.58L291.46 362.7C290.54 362.95 289.65 363.32 288.82 363.79L287.06 362.61C286.41 362.16 285.53 362.23 284.97 362.79L283.7 364.06C283.14 364.62 283.06 365.5 283.52 366.15L284.76 367.91C284.28 368.74 283.91 369.63 283.67 370.55L281.55 370.92C280.77 371.06 280.2 371.73 280.2 372.53V374.33C280.2 375.12 280.77 375.8 281.55 375.94L283.67 376.31C283.92 377.23 284.29 378.12 284.76 378.95L283.52 380.71C283.07 381.36 283.14 382.24 283.7 382.8L284.97 384.07C285.53 384.63 286.41 384.71 287.06 384.25L288.82 383.01C289.65 383.49 290.54 383.86 291.46 384.1L291.83 386.22C291.97 387 292.64 387.57 293.44 387.57H295.26C296.05 387.57 296.73 387 296.87 386.22L297.24 384.1C298.16 383.85 299.05 383.48 299.88 383.01L301.6 384.22C302.25 384.67 303.13 384.6 303.69 384.04L304.96 382.77C305.52 382.21 305.6 381.33 305.14 380.68L303.9 378.9C304.38 378.07 304.75 377.18 304.99 376.26L307.11 375.89C307.89 375.75 308.46 375.08 308.46 374.28V372.48C308.46 371.69 307.89 371.01 307.11 370.88V370.88ZM294.31 379.02C291.2 379.02 288.67 376.5 288.67 373.38C288.67 370.27 291.19 367.74 294.31 367.74C297.42 367.74 299.95 370.26 299.95 373.38V373.41C299.93 376.51 297.41 379.01 294.31 379.01V379.02Z" fill="white"/>
<path d="M45.72 466.43H455.66" stroke="black" stroke-width="0.75" stroke-miterlimit="10"/>
<path d="M380.78 95.9899H421.09C431.05 95.9899 439.13 87.9099 439.13 77.9499C439.13 67.9899 431.05 59.9099 421.09 59.9099H380.78C370.82 59.9099 362.74 67.9899 362.74 77.9499C362.74 87.9099 370.82 95.9899 380.78 95.9899Z" fill="#9BBDF9"/>
<path d="M394.97 92.0098L381.89 104.85L379.51 91.0598L394.97 92.0098Z" fill="#9BBDF9"/>
<path d="M394.89 72.2199C393.01 70.3799 390 70.4099 388.16 72.2899L386.95 73.5299L385.7 72.2999C383.83 70.4499 380.81 70.4799 378.97 72.3499C377.13 74.2199 377.15 77.2399 379.02 79.0799L383.65 83.6399C383.65 83.6399 383.67 83.6599 383.68 83.6699C384.42 84.3899 385.33 84.8299 386.28 84.9699C387.75 85.1999 389.29 84.7299 390.41 83.5999L394.97 78.9499C396.81 77.0699 396.78 74.0599 394.9 72.2199H394.89Z" fill="white"/>
<path d="M403.99 73.8198H422.54" stroke="white" stroke-width="1.02" stroke-linecap="round" stroke-linejoin="round"/>
<path d="M403.99 78.96H413.78" stroke="white" stroke-width="1.02" stroke-linecap="round" stroke-linejoin="round"/>
<path d="M343.12 453.98L331.26 460.51C330 461.2 329.24 462.79 329.63 464.29C329.94 465.48 330.95 466.38 333.59 466.44C339.45 466.56 365.4 462.23 365.4 462.23V465.96L377.52 466.02C377.52 466.02 378.28 448.39 374.61 446.14L343.11 453.98H343.12Z" fill="#200902"/>
<path d="M359.01 441.01L343.12 453.98C343.12 453.98 345.16 459.84 354.22 455.93C363.27 452.02 374.62 446.13 374.62 446.13L372.97 439.34L359.02 441L359.01 441.01Z" fill="#FFA757"/>
<path d="M372.96 439.35L374.62 392.27L358.87 390.99V446.13L372.96 439.35Z" fill="#FFA757"/>
<path d="M344.92 250.91L351.51 434.25H382.05L383.61 236.1L344.92 250.91Z" fill="#3A2222"/>
<path d="M348.35 247.7L363.72 337.03C365.58 348.05 376.89 354.78 387.46 351.16C395.24 348.5 400.25 340.93 399.67 332.72L396.73 292.15C395.25 278.38 398.66 260.57 383.62 236.11L348.36 247.71L348.35 247.7Z" fill="#523332"/>
<path d="M429.12 449.48L422.53 461.31C421.83 462.56 422.03 464.31 423.15 465.38C424.04 466.22 425.38 466.45 427.64 465.1C432.67 462.09 452.37 444.66 452.37 444.66L454.35 447.82L464.66 441.44C464.66 441.44 455.95 426.09 451.65 426.13L429.11 449.49L429.12 449.48Z" fill="#200902"/>
<path d="M435.71 430.05L429.12 449.47C429.12 449.47 433.96 453.36 439.57 445.24C445.18 437.12 451.66 426.11 451.66 426.11L446.66 421.23L435.71 430.04V430.05Z" fill="#FFA757"/>
<path d="M446.66 421.24L423.08 380.46L409.06 387.73L438.31 434.47L446.66 421.24Z" fill="#FFA757"/>
<path d="M366 343.27L422.77 427.93L449.23 410.97L394.36 318.85L366 343.27Z" fill="#523332"/>
<path d="M323.65 102.62C323.65 102.62 311.03 100.98 309.39 112.92C308.17 121.81 312.26 126.18 309.05 133.33C305.84 140.48 311.86 146.87 311.86 146.87C311.86 146.87 326.8 153.81 343.04 139.62L323.65 102.63V102.62Z" fill="black"/>
<path d="M328.55 142.56L335.39 160.34L349.71 156.53L336.49 130.96L328.55 142.56Z" fill="#FFA757"/>
<path d="M331.82 151.05L334.75 138.03L329.42 144.81L331.82 151.05Z" fill="black"/>
<path d="M322.05 105.29C322.05 105.29 313.55 107.08 313.54 117.87C313.54 117.87 313.13 121.99 313.67 133.23C314.05 141.19 317.81 146.7 325.28 145.94C328.9 145.57 332.7 143.36 336.09 140.5L340.85 135.65C351.85 122.22 340.37 101.99 323.28 105.04C322.87 105.11 322.46 105.19 322.04 105.29H322.05Z" fill="#FFA757"/>
<path d="M314.22 126.97L311.21 132.26C310.86 132.82 311.04 133.68 311.78 133.73L315.69 134.24L314.23 126.97H314.22Z" fill="#FFA757"/>
<path d="M334.31 123.82C334.61 121.38 336.27 104.39 323.55 106.58C321.58 106.92 320.57 104.29 322.27 103.23C326.82 100.39 334.04 98.4299 344.48 102.45C348.72 104.08 354.56 109.67 354.56 115.16C354.56 126.95 350.64 132.92 343.73 138.99C343.38 139.3 342.82 139.2 342.6 138.78L338.15 130.18C338.15 130.18 338.12 130.12 338.11 130.09C337.62 128.53 335.14 125.25 334.45 124.34C334.33 124.19 334.28 124.01 334.31 123.82V123.82Z" fill="black"/>
<path d="M325.79 102.42C309.79 109.8 333.21 127.36 333.21 127.36L339.8 114.39C339.8 114.39 328.47 101.19 325.79 102.42Z" fill="black"/>
<path d="M315.18 117.11L323.64 119.98C323.64 119.98 322.17 117.26 319.17 115.8C315.14 113.84 315.18 117.11 315.18 117.11V117.11Z" fill="black"/>
<path d="M316.96 122.89C316.96 122.89 319.81 123.51 319.9 126.35C320 129.19 316.9 129 316.9 129C316.9 129 314.23 125.56 316.95 122.89H316.96Z" fill="white"/>
<path d="M317.54 122.16C317.54 122.16 319.75 126.27 316.91 129C314.07 131.73 316.91 129 316.91 129L315.32 128.85L315.24 124.32L317.53 122.16H317.54Z" fill="black"/>
<path d="M316.28 122.18C316.81 122.22 317.23 122.33 317.67 122.51C318.1 122.68 318.5 122.93 318.85 123.24C319.19 123.55 319.49 123.91 319.69 124.31C319.91 124.7 320.02 125.14 320.12 125.56C320.14 125.65 320.08 125.74 319.99 125.76C319.91 125.78 319.83 125.73 319.8 125.66C319.66 125.27 319.5 124.9 319.26 124.59C319.04 124.27 318.75 124.01 318.43 123.8C318.11 123.59 317.76 123.44 317.4 123.36C317.04 123.27 316.63 123.23 316.32 123.26H316.3C316.01 123.29 315.75 123.07 315.73 122.78C315.71 122.49 315.92 122.23 316.21 122.21C316.24 122.21 316.27 122.21 316.29 122.21L316.28 122.18Z" fill="black"/>
<path d="M314.2 135.74C313.19 135.9 313.11 137.07 314.04 137.45C314.04 137.45 312.82 138.7 314.67 139.11C316.52 139.52 318.27 136.36 318.27 136.36C316.01 136.86 315.54 135.53 314.2 135.74V135.74Z" fill="#C7181B"/>
<path d="M335.5 131.04C336.5 138.16 335.67 146.03 335.67 146.03C335.67 146.03 355.87 152.52 365.04 129.54C365.04 129.54 359.18 127.28 357.38 122.24C355.58 117.2 357.36 99.67 333.78 100.19C333.78 100.19 334.37 123.02 335.5 131.04V131.04Z" fill="black"/>
<path d="M343.26 127.21C343.63 130.19 341.52 132.91 338.53 133.28C335.55 133.65 332.83 131.54 332.46 128.55C332.09 125.57 334.2 122.85 337.19 122.48C340.17 122.11 342.89 124.22 343.26 127.21Z" fill="#FFA757"/>
<path d="M335.5 130.19C335.5 130.19 335.71 126.05 339.13 125.97Z" fill="#FFA757"/>
<path d="M370.66 170.18L404.14 197.29C408.93 201.38 409.3 208.67 404.94 213.22C400.95 217.38 394.42 217.75 389.99 214.06L353.66 185.28L370.67 170.19L370.66 170.18Z" fill="#FFA757"/>
<path d="M390.74 180.13C390.74 180.13 389.31 190.92 370.5 203.31L344.93 184.3C337.79 178.99 336.75 168.7 342.68 162.07C347.59 156.58 355.75 155.42 362 159.33L390.75 180.12L390.74 180.13Z" fill="#1D78EE"/>
<path d="M391.22 216.49L424.13 256.85L431.76 247.48L406.82 202.39C402.81 197.23 395.13 196.92 390.72 201.74C386.84 205.97 387.06 212.54 391.22 216.5V216.49Z" fill="#FFA757"/>
<path d="M421.39 255.29L421.05 257.43C420.59 260.3 420.81 263.24 421.7 266L423.26 270.87C423.63 272.03 424.95 272.58 426.03 272.02C426.94 271.55 427.48 270.57 427.38 269.55L426.87 264.14L437.67 279.43C438.18 280.19 439.24 280.33 439.93 279.73L440.39 279.33C440.94 278.85 441.07 278.06 440.71 277.43L433.81 266.89L443.41 277.9C443.97 278.62 445.03 278.7 445.68 278.06L446 277.74C446.55 277.2 446.61 276.34 446.14 275.73L438.21 265.52L445.94 271.95C446.67 272.59 447.81 272.4 448.28 271.55L448.38 271.38C448.7 270.8 448.61 270.07 448.15 269.59L440.6 262.34L445.34 265.17C446.21 265.88 447.52 265.43 447.78 264.34C447.9 263.82 447.74 263.27 447.36 262.9L428.1 244.87L424.16 249.37C422.7 251.05 421.73 253.1 421.38 255.3L421.39 255.29Z" fill="#FFA757"/>
<path d="M345.07 155.98C345.07 155.98 331.91 154.7 331.74 178.47C331.57 202.3 339.09 213.53 344.92 250.91C344.92 250.91 367.23 248.17 383.61 236.1C383.61 236.1 384.63 148.56 345.07 155.98V155.98Z" fill="#1D78EE"/>
<path d="M342.41 187.83L311.29 217.62C306.62 221.86 299.35 221.3 295.39 216.4C291.76 211.92 292.23 205.39 296.45 201.47L329.59 169.06L342.42 187.83H342.41Z" fill="#FFA757"/>
<path d="M333.93 206.71C333.93 206.71 323.08 206.34 311.92 184.21L333.8 161.06C339.91 154.59 350.25 154.77 356.14 161.44C361.02 166.96 361.21 175.2 356.59 180.94L333.93 206.72V206.71Z" fill="#1D78EE"/>
<path d="M336.93 203.29L351.89 186.27" stroke="black" stroke-width="0.51" stroke-linecap="round" stroke-linejoin="round"/>
<path d="M310.75 201.79L266.41 168.24L260.59 177.37L295.63 216.72C299.9 221.75 307.67 221.72 311.91 216.67C315.64 212.22 315.12 205.61 310.75 201.8V201.79Z" fill="#FFA757"/>
<path d="M272.28 177.5C270.61 183.12 265.19 182.89 254.53 179.91C248.89 178.33 246.84 174.33 248.51 168.71C250.18 163.09 256.09 159.89 261.71 161.56C267.33 163.23 273.96 171.88 272.29 177.5H272.28Z" fill="#FFA757"/>
<path d="M263.66 162.36L250.11 154.48C249.22 153.88 247.97 154.09 247.35 154.96C246.82 155.71 246.94 156.71 247.63 157.32L258.15 166.21L263.66 162.36V162.36Z" fill="#FFA757"/>
</g>
<defs>
<clipPath id="clip0_110_4">
<rect width="437.1" height="432.81" fill="white" transform="translate(31 34)"/>
</clipPath>
</defs>
</svg>
